<svg id="Group_220279" data-name="Group 220279" xmlns="http://www.w3.org/2000/svg" width="24" height="24" viewBox="0 0 24 24">
  <path id="Path_297729" data-name="Path 297729" d="M0,0H24V24H0Z" fill="none"/>
  <path id="Path_297730" data-name="Path 297730" d="M8.686,4l2.607-2.607a1,1,0,0,1,1.414,0L15.314,4H19a1,1,0,0,1,1,1V8.686l2.607,2.607a1,1,0,0,1,0,1.414L20,15.314V19a1,1,0,0,1-1,1H15.314l-2.607,2.607a1,1,0,0,1-1.414,0L8.686,20H5a1,1,0,0,1-1-1V15.314L1.393,12.707a1,1,0,0,1,0-1.414L4,8.686V5A1,1,0,0,1,5,4ZM6,6V9.515L3.515,12,6,14.485V18H9.515L12,20.485,14.485,18H18V14.485L20.485,12,18,9.515V6H14.485L12,3.515,9.515,6Zm6,10a4,4,0,1,1,4-4A4,4,0,0,1,12,16Zm0-2a2,2,0,1,0-2-2A2,2,0,0,0,12,14Z" fill="#4e1e7e"/>
</svg>
