<svg id="Group_220460" data-name="Group 220460" xmlns="http://www.w3.org/2000/svg" width="24" height="24" viewBox="0 0 24 24">
  <path id="Path_297799" data-name="Path 297799" d="M0,0H24V24H0Z" fill="none"/>
  <path id="Path_297800" data-name="Path 297800" d="M10.007,2.1a3,3,0,0,0-3.6,1.489L5.606,5.17a1,1,0,0,1-.436.436l-1.577.806a3,3,0,0,0-1.489,3.6l.545,1.685a1,1,0,0,1,0,.616L2.1,13.993a3,3,0,0,0,1.489,3.6l1.577.806a1,1,0,0,1,.436.436l.806,1.577a3,3,0,0,0,3.6,1.489l1.685-.545a1,1,0,0,1,.616,0l1.685.545a3,3,0,0,0,3.6-1.489l.806-1.577a1,1,0,0,1,.435-.436l1.577-.806a3,3,0,0,0,1.489-3.6l-.545-1.685a1,1,0,0,1,0-.616l.545-1.685a3,3,0,0,0-1.489-3.6L18.83,5.606a1,1,0,0,1-.435-.436l-.806-1.577a3,3,0,0,0-3.6-1.489l-1.685.545a1,1,0,0,1-.616,0ZM8.193,4.5a1,1,0,0,1,1.2-.5l1.685.545a3,3,0,0,0,1.848,0l1.685-.545a1,1,0,0,1,1.2.5l.806,1.577A3,3,0,0,0,17.92,7.387l1.577.806a1,1,0,0,1,.5,1.2l-.545,1.685a3,3,0,0,0,0,1.848l.545,1.685a1,1,0,0,1-.5,1.2l-1.577.806a3,3,0,0,0-1.307,1.307L15.808,19.5a1,1,0,0,1-1.2.5l-1.685-.545a3,3,0,0,0-1.848,0l-1.685.545a1,1,0,0,1-1.2-.5L7.387,17.92A3,3,0,0,0,6.08,16.613L4.5,15.807a1,1,0,0,1-.5-1.2l.545-1.685a3,3,0,0,0,0-1.848L4.007,9.391a1,1,0,0,1,.5-1.2L6.08,7.387A3,3,0,0,0,7.387,6.08ZM6.76,11.757,11,16l7.071-7.071L16.659,7.515,11,13.172,8.174,10.343Z" fill="#25ad49"/>
</svg>
