<svg id="Group_220633" data-name="Group 220633" xmlns="http://www.w3.org/2000/svg" width="54" height="54" viewBox="0 0 54 54">
  <path id="Path_297899" data-name="Path 297899" d="M0,0H54V54H0Z" fill="none"/>
  <path id="Path_297900" data-name="Path 297900" d="M2,5.25A2.25,2.25,0,0,1,4.25,3h40.5A2.25,2.25,0,0,1,47,5.25v36a2.25,2.25,0,0,1-2.25,2.25H4.25A2.25,2.25,0,0,1,2,41.25ZM6.5,7.5V39h36V7.5ZM11,12h4.5v4.5H11Zm4.5,9H11v4.5h4.5ZM11,30h4.5v4.5H11ZM38,12H20v4.5H38ZM20,30H38v4.5H20Zm18-9H20v4.5H38Z" transform="translate(2.5 3.75)" fill="#5326e2"/>
</svg>
