<svg id="Group_220046" data-name="Group 220046" xmlns="http://www.w3.org/2000/svg" width="24" height="24" viewBox="0 0 24 24">
  <path id="Path_297012" data-name="Path 297012" d="M0,0H24V24H0Z" fill="none"/>
  <path id="Path_297013" data-name="Path 297013" d="M22,17a6,6,0,0,1-4.713,5.859l-.638-1.914A4,4,0,0,0,19.465,19H17a2,2,0,0,1-2-2V13a2,2,0,0,1,2-2h2.938A8,8,0,0,0,4.062,11H7a2,2,0,0,1,2,2v4a2,2,0,0,1-2,2H4a2,2,0,0,1-2-2V12a10,10,0,0,1,20,0v1h0v4h0Z" transform="translate(0 0)" fill="#4e1e7e"/>
</svg>
