<svg id="Group_123046" data-name="Group 123046" xmlns="http://www.w3.org/2000/svg" xmlns:xlink="http://www.w3.org/1999/xlink" width="300.168" height="103" viewBox="0 0 300.168 103">
  <defs>
    <clipPath id="clip-path">
      <rect id="Rectangle_57326" data-name="Rectangle 57326" width="300.168" height="103" fill="none"/>
    </clipPath>
  </defs>
  <g id="Group_123036" data-name="Group 123036" transform="translate(0 0)" clip-path="url(#clip-path)">
    <path id="Path_270373" data-name="Path 270373" d="M234.207,97.909V5.091c-3.839-.306-6.824-2.455-6.824-5.091H10.67C10.67,3.92,5.892,7.1,0,7.1v3.63c5.518,0,9.99,2.975,9.99,6.645S5.518,24.019,0,24.019v3.772c5.518,0,9.99,2.976,9.99,6.646S5.518,41.082,0,41.082v3.772c5.518,0,9.99,2.976,9.99,6.645S5.518,58.146,0,58.146v3.772c5.518,0,9.99,2.974,9.99,6.645S5.518,75.208,0,75.208V78.98c5.518,0,9.99,2.976,9.99,6.646S5.518,92.272,0,92.272V95.9c5.892,0,10.67,3.177,10.67,7.1H227.383c0-2.636,2.985-4.785,6.824-5.091" transform="translate(0 0.001)" fill="#25c5d9"/>
    <path id="Path_270374" data-name="Path 270374" d="M205.282,34.437c0-3.67,3.771-6.645,8.423-6.645V24.02c-4.651,0-8.423-2.976-8.423-6.646s3.771-6.645,8.423-6.645V7.1c-4.968,0-9-3.178-9-7.1H155.054c0,2.636-2.517,4.785-5.752,5.091V97.909c3.235.307,5.752,2.455,5.752,5.091h49.654c0-3.92,4.027-7.1,9-7.1V92.273c-4.651,0-8.423-2.976-8.423-6.646s3.771-6.645,8.423-6.645V75.209c-4.651,0-8.423-2.976-8.423-6.646s3.771-6.645,8.423-6.645V58.146c-4.651,0-8.423-2.976-8.423-6.645s3.771-6.646,8.423-6.646V41.082c-4.651,0-8.423-2.975-8.423-6.645" transform="translate(86.46 0.001)" fill="#25c5d9"/>
    <path id="Path_270375" data-name="Path 270375" d="M148.137,4.84v90.1c.257-.023.511-.059.776-.059s.519.036.777.059V4.84c-.259.023-.511.06-.777.06s-.519-.037-.776-.06" transform="translate(86.072 1.613)" fill="#80dde9"/>
  </g>
</svg>
