<svg id="Group_220414" data-name="Group 220414" xmlns="http://www.w3.org/2000/svg" width="16" height="16" viewBox="0 0 16 16">
  <path id="Path_297786" data-name="Path 297786" d="M0,0H16V16H0Z" fill="none"/>
  <path id="Path_297787" data-name="Path 297787" d="M6.667,1V2.333h4V1H12V2.333h2.667A.667.667,0,0,1,15.333,3V13.667a.667.667,0,0,1-.667.667h-12A.667.667,0,0,1,2,13.667V3a.667.667,0,0,1,.667-.667H5.333V1ZM14,7.667H3.333V13H14ZM6,9v1.333H4.667V9ZM9.333,9v1.333H8V9Zm3.333,0v1.333H11.333V9ZM5.333,3.667h-2V6.333H14V3.667H12V5H10.667V3.667h-4V5H5.333Z" transform="translate(-0.667 -0.333)" fill="#fff"/>
</svg>
