<svg width="9" height="9" viewBox="0 0 9 9" fill="none" xmlns="http://www.w3.org/2000/svg">
<path d="M8.505 6.19C7.89 6.19 7.295 6.09 6.74 5.91C6.65305 5.88053 6.55956 5.87615 6.47024 5.89738C6.38092 5.9186 6.29939 5.96457 6.235 6.03L5.45 7.015C4.035 6.34 2.71 5.065 2.005 3.6L2.98 2.77C3.115 2.63 3.155 2.435 3.1 2.26C2.915 1.705 2.82 1.11 2.82 0.495C2.82 0.225 2.595 0 2.325 0H0.595C0.325 0 0 0.12 0 0.495C0 5.14 3.865 9 8.505 9C8.86 9 9 8.685 9 8.41V6.685C9 6.415 8.775 6.19 8.505 6.19Z" fill="black"/>
</svg>
