<svg id="Group_71170" data-name="Group 71170" xmlns="http://www.w3.org/2000/svg" width="236" height="139" viewBox="0 0 236 139">
  <rect id="Rectangle_24946" data-name="Rectangle 24946" width="236" height="139" fill="#fff" opacity="0"/>
  <g id="RaG42R.tif" transform="translate(30.481 6.928)">
    <g id="Group_71083" data-name="Group 71083" transform="translate(0 0)">
      <path id="Path_240460" data-name="Path 240460" d="M13.238,23.9c-6.225-.454-9.243-2.758-9.767-7.457C3,12.208,5,8.844,9.05,7.074A9.841,9.841,0,0,1,20.4,9.526c2.924,3.423,3.469,7.33,2.488,11.653a18.591,18.591,0,0,0-.589,6.4c.466,3.487,3.385,4.637,6.27,2.544A9.6,9.6,0,0,0,31.8,26.17C34.405,19.559,33.189,13.3,29.2,7.6,25.327,2.075,19.95-.575,13.145.1,4.762.942-1.135,8.162.185,15.852,1.332,22.535,7.671,26.442,13.238,23.9Z" transform="translate(0 51.277) rotate(-77)" fill="#e3a200"/>
      <path id="Path_240649" data-name="Path 240649" d="M7.417,13.391c-3.488-.255-5.179-1.545-5.473-4.178A4.856,4.856,0,0,1,5.071,3.964a5.514,5.514,0,0,1,6.361,1.374,7.037,7.037,0,0,1,1.394,6.529,10.417,10.417,0,0,0-.33,3.588c.261,1.954,1.9,2.6,3.513,1.426a5.375,5.375,0,0,0,1.811-2.217,10.562,10.562,0,0,0-1.46-10.4A9.261,9.261,0,0,0,7.365.059C2.668.528-.636,4.574.1,8.882.747,12.627,4.3,14.816,7.417,13.391Z" transform="translate(132.69 105.037) rotate(9)" fill="#e3a200"/>
      <path id="Path_240462" data-name="Path 240462" d="M1034.1,337.835c-.329-.441-.616-.759-.83-1.121-4.642-7.837-11.08-11.124-18.973-9.679a20.328,20.328,0,0,0-16.077,16.176,14.657,14.657,0,0,1-2.73,6.1c-1.978,2.464-5.123,1.961-6.288-.971a11.276,11.276,0,0,1-.614-6.018c2.629-13.371,17.7-22.875,30.968-19.721A19.3,19.3,0,0,1,1034.1,337.835Z" transform="translate(-932.618 -265.091)" fill="#e3a200"/>
      <path id="Path_240463" data-name="Path 240463" d="M932.558,353.258l-11.619,3.936-8.388-11.253,13.879-7Z" transform="translate(-898.03 -256.938)" fill="#1479fc"/>
      <path id="Path_240464" data-name="Path 240464" d="M1061.658,260.838l11.367,10.6L1061.666,282.1c-2.329-2.88-4.573-5.522-6.628-8.3a2.771,2.771,0,0,1-.147-2.494C1056.966,267.872,1059.227,264.552,1061.658,260.838Z" transform="translate(-943.067 -256.469)" fill="#f3722c"/>
      <path id="Path_240466" data-name="Path 240466" d="M965.512,301.123a4.951,4.951,0,0,1-4.935,4.611A4.849,4.849,0,0,1,956.12,301a4.742,4.742,0,0,1,4.576-4.594A4.857,4.857,0,0,1,965.512,301.123Z" transform="translate(-926.288 -234.387)" fill="#767bff"/>
      <path id="Path_240467" data-name="Path 240467" d="M1110.071,359.22l-3.359-7.082,7.082-2.872C1116.738,355.528,1116.374,356.5,1110.071,359.22Z" transform="translate(-943.908 -274.401)" fill="#f3722c"/>
      <path id="Path_240468" data-name="Path 240468" d="M1040.77,381.965c1.338-6.527,7.2-7.233,10.4-11.3l1.984,5.651Z" transform="translate(-950.492 -281.708)" fill="#e3a200"/>
      <path id="Path_240469" data-name="Path 240469" d="M976.588,262.6l10.537,8.077c-6.085,2.54-9.3-3.039-14.833-3.392Z" transform="translate(-914.029 -262.603)" fill="#e3a200"/>
      <path id="Path_240470" data-name="Path 240470" d="M1163.046,338.573l5.071,3.463-6.518,11.807C1158.691,347.976,1163.025,343.967,1163.046,338.573Z" transform="translate(-1018.027 -312.676)" fill="#e3a200"/>
      <path id="Path_240471" data-name="Path 240471" d="M1078.077,402.035c-1.307.874-2.559,2.355-3.934,2.478-2.038.182-3.424-1.324-3.27-3.583.144-2.1,1.59-3.379,3.491-2.972,1.383.3,2.521,1.734,3.768,2.663Q1078.1,401.328,1078.077,402.035Z" transform="translate(-1019.871 -279.331)" fill="#e3a200"/>
      <path id="Path_240472" data-name="Path 240472" d="M1103.446,326.965c-.932-1.217-2.658-2.489-2.579-3.636a4.844,4.844,0,0,1,2.924-3.414,2.768,2.768,0,0,1,3.549,3.106c-.128,1.356-1.535,2.592-2.369,3.881Z" transform="translate(-966.852 -261.567)" fill="#43aa8b"/>
      <path id="Path_240473" data-name="Path 240473" d="M1007.506,299.116l-3.647-2.122,3.416-3.145,1.263,4.885Z" transform="translate(-948.975 -267.952)" fill="#e3a200"/>
    </g>
  </g>
  <g id="Group_71084" data-name="Group 71084" transform="translate(73.436 34.639)">
    <path id="Polygon_1" data-name="Polygon 1" d="M49.136,6.108a12.527,12.527,0,0,1,17.275,7.156h0a12.527,12.527,0,0,0,7.7,7.7h0A12.527,12.527,0,0,1,81.27,38.242h0a12.527,12.527,0,0,0,0,10.894h0a12.527,12.527,0,0,1-7.156,17.275h0a12.527,12.527,0,0,0-7.7,7.7h0A12.527,12.527,0,0,1,49.136,81.27h0a12.527,12.527,0,0,0-10.894,0h0a12.527,12.527,0,0,1-17.275-7.156h0a12.527,12.527,0,0,0-7.7-7.7h0A12.527,12.527,0,0,1,6.108,49.136h0a12.527,12.527,0,0,0,0-10.894h0a12.527,12.527,0,0,1,7.156-17.275h0a12.527,12.527,0,0,0,7.7-7.7h0A12.527,12.527,0,0,1,38.242,6.108h0a12.527,12.527,0,0,0,10.894,0Z" transform="translate(0 0)" fill="#022b5c"/>
    <g id="Group_71082" data-name="Group 71082" transform="translate(30.553 35.01)">
      <line id="Line_1949" data-name="Line 1949" x2="6.789" y2="8.146" transform="matrix(0.978, -0.208, 0.208, 0.978, 0, 9.368)" fill="none" stroke="#fff" stroke-linecap="round" stroke-width="6"/>
      <line id="Line_1950" data-name="Line 1950" y1="15.913" x2="16.633" transform="translate(8.609 0)" fill="none" stroke="#fff" stroke-linecap="round" stroke-width="6"/>
    </g>
  </g>
</svg>
