<svg id="Group_220437" data-name="Group 220437" xmlns="http://www.w3.org/2000/svg" width="24" height="24" viewBox="0 0 24 24">
  <path id="Path_297793" data-name="Path 297793" d="M0,0H24V24H0Z" fill="none"/>
  <path id="Path_297794" data-name="Path 297794" d="M21,3a1,1,0,0,1,1,1V9.5a2.5,2.5,0,0,0,0,5V20a1,1,0,0,1-1,1H3a1,1,0,0,1-1-1V14.5a2.5,2.5,0,0,0,0-5V4A1,1,0,0,1,3,3ZM20,5H4V7.968l.156.081A4.5,4.5,0,0,1,6.5,11.788L6.5,12a4.5,4.5,0,0,1-2.344,3.951L4,16.031V19H20V16.031l-.156-.08a4.5,4.5,0,0,1-2.339-3.739l0-.212a4.5,4.5,0,0,1,2.344-3.951L20,7.968Z" fill="#363636"/>
</svg>
