<svg id="Group_220456" data-name="Group 220456" xmlns="http://www.w3.org/2000/svg" width="54" height="54" viewBox="0 0 54 54">
  <path id="Path_297797" data-name="Path 297797" d="M0,0H54V54H0Z" fill="none"/>
  <path id="Path_297798" data-name="Path 297798" d="M5.25,3A2.25,2.25,0,0,0,3,5.25v13.5A2.25,2.25,0,0,0,5.25,21h13.5A2.25,2.25,0,0,0,21,18.75V5.25A2.25,2.25,0,0,0,18.75,3Zm0,22.5A2.25,2.25,0,0,0,3,27.75v13.5A2.25,2.25,0,0,0,5.25,43.5h13.5A2.25,2.25,0,0,0,21,41.25V27.75a2.25,2.25,0,0,0-2.25-2.25Zm22.5,0a2.25,2.25,0,0,0-2.25,2.25v13.5a2.25,2.25,0,0,0,2.25,2.25h13.5a2.25,2.25,0,0,0,2.25-2.25V27.75a2.25,2.25,0,0,0-2.25-2.25ZM30,39V30h9v9ZM7.5,16.5v-9h9v9ZM7.5,39V30h9v9ZM32.25,21V14.25H25.5V9.75h6.75V3h4.5V9.75H43.5v4.5H36.75V21Z" transform="translate(3.75 3.75)" fill="#a07bff"/>
</svg>
