<svg id="Group_220088" data-name="Group 220088" xmlns="http://www.w3.org/2000/svg" xmlns:xlink="http://www.w3.org/1999/xlink" width="110" height="91.61" viewBox="0 0 110 91.61">
  <defs>
    <clipPath id="clip-path">
      <rect id="Rectangle_85184" data-name="Rectangle 85184" width="110" height="91.61" fill="none"/>
    </clipPath>
    <clipPath id="clip-path-4">
      <rect id="Rectangle_85182" data-name="Rectangle 85182" width="5.898" height="6.028" fill="none"/>
    </clipPath>
  </defs>
  <g id="Group_220087" data-name="Group 220087" transform="translate(0)" clip-path="url(#clip-path)">
    <g id="Group_220081" data-name="Group 220081">
      <g id="Group_220080" data-name="Group 220080" clip-path="url(#clip-path)">
        <path id="Path_297084" data-name="Path 297084" d="M33.244,76.921C52.2,102.245,86.2,108.56,106.38,96.076s21.87-43.485,7.9-52.423-36.413,6.195-50.3-17.165-70.433-2.6-30.739,50.434" transform="translate(-19.348 -11.75)" fill="#e1f1f1"/>
        <path id="Path_297085" data-name="Path 297085" d="M23.865,164.275s-7.137,2.66-10.821,5.085c-6.07,4-6.4,12.63-11.23,10.86s1.093-12.531,4.855-15.108c9.8-6.709,17.2-.837,17.2-.837" transform="translate(86.135 -112.034)" fill="#eab868"/>
        <path id="Path_297086" data-name="Path 297086" d="M58.231,170.461q.665-.456,1.315-.835c-3.387,6.271-2.473,13.717-5.594,16.1a4.023,4.023,0,0,1-.577-.161c-4.827-1.77,1.093-12.531,4.856-15.108" transform="translate(34.573 -117.383)" fill="#d3963d"/>
        <path id="Path_297087" data-name="Path 297087" d="M18.644,188.838l.042.012a.4.4,0,0,0,.475-.3,41.78,41.78,0,0,1,3.755-9.639c3.5-6.34,7.869-9.621,13-9.753a.4.4,0,1,0-.02-.794c-5.361.138-10.092,3.657-13.683,10.179a42.644,42.644,0,0,0-3.826,9.832.4.4,0,0,0,.257.463" transform="translate(68.038 -116.51)" fill="#ffe1b6"/>
        <path id="Path_297088" data-name="Path 297088" d="M14.372,164.424l3.735,1.564q-.371.16-.754.33l-3.813-1.6,1.483-2.8q.334.011.654.037Z" transform="translate(87.723 -112.053)" fill="#ffe1b6"/>
        <path id="Path_297089" data-name="Path 297089" d="M29.193,168.152l2.047-4.69q.373-.11.738-.2L30,167.8l4.133,1.423c-.238.13-.472.26-.7.39Z" transform="translate(66.879 -112.979)" fill="#ffe1b6"/>
        <path id="Path_297090" data-name="Path 297090" d="M51.775,190.426l-1.438-4.952q.21-.336.428-.66l1.475,5.079,3.689.548q-.17.278-.334.553Z" transform="translate(38.567 -127.893)" fill="#ffe1b6"/>
        <path id="Path_297091" data-name="Path 297091" d="M43.533,171.677l.109-.078q.247-.169.492-.327l-.079,5.673,3.4,1.17q-.211.242-.41.489l-3.591-1.237Z" transform="translate(49.163 -118.522)" fill="#ffe1b6"/>
        <path id="Path_297092" data-name="Path 297092" d="M56.487,201.47q.124-.424.279-.858l1.918,4.455,3.859-.513c-.146.23-.292.451-.44.659l-3.788.5Z" transform="translate(30.06 -138.826)" fill="#ffe1b6"/>
        <path id="Path_297093" data-name="Path 297093" d="M90.17,135.844S86.7,142.622,85.612,146.9c-1.785,7.044,3.792,13.643-.965,15.592S77,152.5,78.04,148.06c2.706-11.56,12.13-12.216,12.13-12.216" transform="translate(-4.141 -94.006)" fill="#eab868"/>
        <path id="Path_297094" data-name="Path 297094" d="M94.062,174.707l.039-.019a.4.4,0,0,0,.149-.542,41.792,41.792,0,0,1-3.73-9.649c-1.7-7.038-.681-12.411,3.018-15.969a.4.4,0,0,0-.55-.573c-3.865,3.718-4.984,9.508-3.235,16.744a42.633,42.633,0,0,0,3.808,9.839.4.4,0,0,0,.5.168" transform="translate(-11.698 -102.31)" fill="#ffe1b6"/>
        <path id="Path_297095" data-name="Path 297095" d="M85.321,147.4l3.812-1.365q-.165.368-.334.752l-3.892,1.394-.794-3.066q.254-.217.508-.415Z" transform="translate(-5.039 -100.137)" fill="#ffe1b6"/>
        <path id="Path_297096" data-name="Path 297096" d="M92.268,161.045,90.615,156.2c.134-.222.27-.437.41-.645l1.6,4.685,4.011-1.737c-.089.257-.174.51-.253.759Z" transform="translate(-14.542 -107.647)" fill="#ffe1b6"/>
        <path id="Path_297097" data-name="Path 297097" d="M96.537,195.788l-4.4-2.686q-.071-.39-.129-.777l4.515,2.755L99.614,193q.061.32.127.633Z" transform="translate(-18.077 -133.092)" fill="#ffe1b6"/>
        <path id="Path_297098" data-name="Path 297098" d="M93.716,174.351c.009-.044.018-.088.028-.131q.068-.292.143-.574l3.768,4.242,3.3-1.429q.007.32.027.638L97.5,178.606Z" transform="translate(-19.844 -120.165)" fill="#ffe1b6"/>
        <path id="Path_297099" data-name="Path 297099" d="M89.973,208.083q-.195-.4-.373-.822l4.421,2,2.5-2.982c.047.269.088.53.12.784l-2.457,2.927Z" transform="translate(-14.239 -142.745)" fill="#ffe1b6"/>
        <path id="Path_297100" data-name="Path 297100" d="M37.928,120.908s-8.065,6.633-11.757,11.421c-6.084,7.889-2.663,19.229-9.71,19.09s-4.176-16.732-.449-21.751c9.7-13.069,21.916-8.759,21.916-8.759" transform="translate(68.332 -83.199)" fill="#eab868"/>
        <path id="Path_297101" data-name="Path 297101" d="M36.6,163.763c.02,0,.04,0,.06,0a.545.545,0,0,0,.482-.6,57.284,57.284,0,0,1,.565-14.171c1.7-9.778,5.906-15.984,12.5-18.445a.544.544,0,1,0-.381-1.02c-6.887,2.571-11.45,9.245-13.194,19.3a58.479,58.479,0,0,0-.571,14.452.545.545,0,0,0,.541.485" transform="translate(48.393 -89.608)" fill="#ffe1b6"/>
        <path id="Path_297102" data-name="Path 297102" d="M75.941,230.757,74.105,246.19c-.144,1.205-.885,2.088-1.754,2.088H64.2c-.869,0-1.611-.883-1.754-2.088l-1.836-15.433c-.127-1.069.459-2.043,1.23-2.043H74.711c.771,0,1.357.974,1.23,2.043" transform="translate(15.379 -158.273)" fill="#c54453"/>
        <path id="Path_297103" data-name="Path 297103" d="M60.737,230.008c.142-.735.619-1.294,1.2-1.294H74.811c.584,0,1.061.559,1.2,1.294Z" transform="translate(15.28 -158.273)" fill="#aa3949"/>
        <path id="Path_297104" data-name="Path 297104" d="M78.5,287.943a1.807,1.807,0,0,1-1.567,1.323H68.784a1.807,1.807,0,0,1-1.567-1.323Z" transform="translate(10.796 -199.26)" fill="#aa3949"/>
        <path id="Path_297105" data-name="Path 297105" d="M97.053,228.714h3.273v7.507a2.116,2.116,0,0,1-2.116,2.116H96.725l-.9-7.58c-.127-1.069.459-2.043,1.23-2.043" transform="translate(-19.833 -158.273)" fill="#aa3949"/>
        <path id="Path_297106" data-name="Path 297106" d="M28.188,125.956l5.539.36q-.409.373-.83.765l-5.655-.367.672-4.29q.438-.135.865-.245Z" transform="translate(67.882 -84.549)" fill="#ffe1b6"/>
        <path id="Path_297107" data-name="Path 297107" d="M44.19,137.928l.56-6.993q.434-.31.866-.588l-.542,6.765h5.992c-.251.274-.5.547-.731.817Z" transform="translate(45.324 -90.201)" fill="#ffe1b6"/>
        <path id="Path_297108" data-name="Path 297108" d="M66.535,178.909l-4.074-5.777q.123-.53.261-1.047L66.9,178.01l5.027-.937q-.1.436-.186.865Z" transform="translate(18.835 -119.084)" fill="#ffe1b6"/>
        <path id="Path_297109" data-name="Path 297109" d="M57.818,149.578c.035-.05.071-.1.107-.149.163-.22.327-.434.492-.644l2.429,7.39h4.929q-.165.407-.314.817H60.255Z" transform="translate(26.418 -102.961)" fill="#ffe1b6"/>
        <path id="Path_297110" data-name="Path 297110" d="M65.846,197.432q-.029-.6-.021-1.237l4.474,4.919,4.774-2.387c-.087.364-.178.715-.276,1.051l-4.685,2.343Z" transform="translate(14.655 -135.769)" fill="#ffe1b6"/>
        <path id="Path_297111" data-name="Path 297111" d="M234.739,82.314a.528.528,0,0,1,.63.3c.462,1.066.652,1.816.3,1.855-.45.051-.805-.72-1.192-1.473-.152-.3-.084-.577.236-.67Z" transform="translate(-198.041 -56.948)" fill="#f0c9a5"/>
        <path id="Path_297112" data-name="Path 297112" d="M269.175,45.591s.937,2,2.352,1.68a2.266,2.266,0,0,0,1.273-3.233c-.673-.924-2.813-.826-2.813-.826Z" transform="translate(-245.992 -29.901)" fill="#d69d6f"/>
        <path id="Path_297113" data-name="Path 297113" d="M47.717,293.841h85.212a.8.8,0,0,0,0-1.6H47.717a.8.8,0,1,0,0,1.6" transform="translate(-38.18 -202.231)" fill="#90b9ba"/>
        <path id="Path_297114" data-name="Path 297114" d="M296.87,273.556a4,4,0,0,1-4.181-.679h-.066a2.415,2.415,0,0,1-.327,1.253c-1.07,1.248-.82,2.08-1.283,3.142s-.371,1.789.489,1.638,4.526.1,5.38.128.219-2.517.251-3.588a7.945,7.945,0,0,0-.262-1.9" transform="translate(-276.873 -188.834)" fill="#6d74ca"/>
        <path id="Path_297115" data-name="Path 297115" d="M252.757,276.7c-.486-1.052-1.357-.953-3.008-1.761-.33-.162-.615-.831-.859-1.791a3.741,3.741,0,0,1-4.252-.273H244.6a14.152,14.152,0,0,1,.32,2.418c.055,1.07-.526,3.629.327,3.582s6.057-.01,6.921.121,1.082-1.246.594-2.3" transform="translate(-218.344 -188.834)" fill="#6d74ca"/>
        <path id="Path_297116" data-name="Path 297116" d="M291.425,274.955a4.227,4.227,0,0,1,.564-.825,2.416,2.416,0,0,0,.327-1.253h.066a4,4,0,0,0,4.181.679,11.41,11.41,0,0,1,.247,1.4Z" transform="translate(-276.565 -188.834)" fill="#505ab4"/>
        <path id="Path_297117" data-name="Path 297117" d="M255.384,274.955a13.662,13.662,0,0,0-.3-2.078h.043a3.741,3.741,0,0,0,4.252.273c.244.96.529,1.629.859,1.791l.031.014Z" transform="translate(-228.837 -188.834)" fill="#505ab4"/>
        <path id="Path_297118" data-name="Path 297118" d="M272.637,154.7s.139,15.281.466,20.268.316,16.81.316,16.81-3.071,1.122-4.723.52c0,0-3.139-10.726-2.864-15.4a103,103,0,0,0-.706-13.179s-.546,9.791-.74,11.87-1.24,16.29-1.24,16.29-4.98.907-5.745-.4c0,0-.163-12.239-.17-16.508s.513-20.275.513-20.275Z" transform="translate(-242.643 -107.058)" fill="#4b341f"/>
        <path id="Path_297119" data-name="Path 297119" d="M267.19,186.094a39.335,39.335,0,0,1-1.269-9.186,103.058,103.058,0,0,0-.706-13.179s-.546,9.791-.74,11.871c-.111,1.185-.5,6.306-.81,10.495h-6.242c-.046-3.84-.1-8.725-.1-11.114-.006-4.269.513-20.275.513-20.275h14.891s.139,15.282.466,20.269c.177,2.693.255,7.379.289,11.121Z" transform="translate(-242.732 -107.057)" fill="#3a2616"/>
        <path id="Path_297120" data-name="Path 297120" d="M259.7,156.91c.042-1.356.07-2.2.07-2.2h14.891s.008.846.024,2.2Z" transform="translate(-244.663 -107.058)" fill="#3a2413"/>
        <path id="Path_297121" data-name="Path 297121" d="M275.582,69.044l-18.373.365s-.49-.727.4-2.975,3.574-2.279,4.951-3.8c.5-.548.688-.663.806-1.332a7.009,7.009,0,0,0-.01-2.284l3.786-1a9.418,9.418,0,0,0,.611,3.332c.293.694.78.755,1.42,1.144.95.576,4.086,1.658,5.454,2.569s.957,3.98.957,3.98" transform="translate(-244.815 -40.15)" fill="#f0c9a5"/>
        <path id="Path_297122" data-name="Path 297122" d="M275.354,69.044l-18.373.365s-.49-.727.4-2.975,3.574-2.279,4.951-3.8c.5-.548.688-.663.806-1.332a7.009,7.009,0,0,0-.01-2.284l3.786-1a9.418,9.418,0,0,0,.611,3.332c.293.694.78.755,1.42,1.144.95.576,4.269,2.055,5.637,2.966s.774,3.583.774,3.583" transform="translate(-244.587 -40.15)" fill="#f0c9a5"/>
        <path id="Path_297123" data-name="Path 297123" d="M282.684,28.332c-.817-2.878-4.823-3.295-4.823-3.295a6.348,6.348,0,0,0-5.6,1.758c-.687.7-1.505,1.172-1.414,4.253-.368,2.874,1.905,4.207,4.639,5.6,3.183,1.615,5.545-.483,5.367-.516-.386-.073,3.3-2.61,1.833-7.8" transform="translate(-256.438 -17.258)" fill="#4b341f"/>
        <path id="Path_297124" data-name="Path 297124" d="M287.082,61.351c-.357.191.225-.018-.188.063a8.99,8.99,0,0,1-4.2-.113,7.01,7.01,0,0,0-.01-2.285l3.786-1a9.413,9.413,0,0,0,.611,3.332" transform="translate(-264.146 -40.15)" fill="#d69d6f"/>
        <path id="Path_297125" data-name="Path 297125" d="M302.364,44.454s-1.126-1.9-2.5-1.445a2.266,2.266,0,0,0-.955,3.341c.759.854,2.88.551,2.88.551Z" transform="translate(-284.301 -29.714)" fill="#f0c9a5"/>
        <path id="Path_297126" data-name="Path 297126" d="M283.377,28.641s1.064,6.3.31,8.08a4.089,4.089,0,0,1-3.225,2.8,5.913,5.913,0,0,1-5.368-2.729c-1-1.777-1.164-7.685-1.164-7.685s3.443-1.856,4.875-1.919,4.572,1.45,4.572,1.45" transform="translate(-258.325 -18.815)" fill="#f0c9a5"/>
        <path id="Path_297127" data-name="Path 297127" d="M295.769,54.17a.708.708,0,1,1-.564-.828.708.708,0,0,1,.564.828" transform="translate(-276.442 -36.905)" fill="#dc8070"/>
        <path id="Path_297128" data-name="Path 297128" d="M278.216,54.857a.708.708,0,1,1-.565-.828.708.708,0,0,1,.565.828" transform="translate(-253.483 -37.38)" fill="#dc8070"/>
        <path id="Path_297129" data-name="Path 297129" d="M269.175,24.425a10.7,10.7,0,0,0,4.08,2.855,28.539,28.539,0,0,0,5.329.766,1.221,1.221,0,0,0,1.262-1.539c-.393-1.393-1.562-3.349-4.958-4.431-4.639-1.481-5.714,2.35-5.714,2.35" transform="translate(-252.796 -15.041)" fill="#4b341f"/>
        <path id="Path_297130" data-name="Path 297130" d="M299.7,29.934a6.646,6.646,0,0,1-.2,3.025c-1.043,2.838-2.047,3.044-2.187,3.14,0,0-2.334-3.015-1.672-5.218.691-2.3,4.064-.946,4.064-.946" transform="translate(-280.801 -20.442)" fill="#4b341f"/>
        <path id="Path_297131" data-name="Path 297131" d="M284.481,45.777c-.008-.2-.315-.173-.307.025.029.742,1.067,2.87-.148,3.02-.2.024-.172.331.026.307,1.62-.2.467-2.42.43-3.352" transform="translate(-262.348 -31.584)" fill="#d69d6f"/>
        <path id="Path_297132" data-name="Path 297132" d="M279.093,47.191c.024.248-.1.463-.273.479s-.333-.172-.356-.42.1-.463.273-.479.334.171.356.42" transform="translate(-254.859 -32.365)" fill="#4b341f"/>
        <path id="Path_297133" data-name="Path 297133" d="M292.553,47.191c.023.248-.1.462-.273.479s-.334-.172-.356-.421.1-.462.272-.478.334.171.357.42" transform="translate(-272.464 -32.365)" fill="#4b341f"/>
        <path id="Path_297134" data-name="Path 297134" d="M289.716,42.672a1.666,1.666,0,0,1,.89-.015c.46.073.528-.646.069-.719a2.307,2.307,0,0,0-1.251.073c-.434.175-.139.834.292.661" transform="translate(-270.061 -28.986)" fill="#4b341f"/>
        <path id="Path_297135" data-name="Path 297135" d="M277.269,42.979a1.678,1.678,0,0,1,.885.1c.447.132.607-.572.161-.7a2.31,2.31,0,0,0-1.25-.091c-.453.117-.246.81.2.694" transform="translate(-253.835 -29.226)" fill="#4b341f"/>
        <path id="Path_297136" data-name="Path 297136" d="M306.654,48.8c-.083-.129-.3-.152-.346-.307-.033-.122.092-.261.112-.38a.79.79,0,0,0-.072-.492c-.284-.56-1.04-.32-1.26.152-.1.224.25.37.354.147a.388.388,0,0,1,.417-.235c.268.037.184.38.111.537a.572.572,0,0,0,.022.5c.065.125.376.252.353.373-.047.243.333.293.379.051a.437.437,0,0,0-.07-.348" transform="translate(-290.692 -32.727)" fill="#d69d6f"/>
        <path id="Path_297137" data-name="Path 297137" d="M252.564,80.273c2.439-.642,2.969,1.754,3.595,3.338s.171,1.743.483,4.641a59.616,59.616,0,0,1,.749,9.3H254.2a48.626,48.626,0,0,1-1.728-6.4l-2.212-9.695a5.128,5.128,0,0,1,2.3-1.179" transform="translate(-224.496 -55.476)" fill="#f0c9a5"/>
        <path id="Path_297138" data-name="Path 297138" d="M259,88.847h-4.766l-1.688-7.4a5.129,5.129,0,0,1,2.3-1.18c2.439-.642,2.969,1.754,3.595,3.338s.171,1.743.483,4.641c.015.143.042.346.075.6" transform="translate(-226.775 -55.475)" fill="#d69d6f"/>
        <path id="Path_297139" data-name="Path 297139" d="M286.523,59.992a2.285,2.285,0,0,1-3.319-.338" transform="translate(-263.746 -41.281)" fill="none" stroke="#d69d6f" stroke-linecap="round" stroke-width="1"/>
        <path id="Path_297140" data-name="Path 297140" d="M312.08,98.3a10.335,10.335,0,0,0-2.965,1.552,2.4,2.4,0,0,1-.655-2.232c.78-2.446,3.994-8.938,3.994-8.938l3.672,4.59-4.12,4.969.074.058" transform="translate(-301.104 -61.369)" fill="#f0c9a5"/>
        <path id="Path_297141" data-name="Path 297141" d="M272.59,75.189c-1.375-.525-3.792-1.395-5.013-2-2.106,1.516-5.407,1.888-7.2.155-1.426,1.313-5.287,1.011-6.13,3.147-.889,2.248-2.267,4.912-2.267,4.912l5.459,2.728.691-1.008-.015,2.407-.707,13.287,15.821-.39-1.155-15.665,3.167-.128s.184-6.363-2.653-7.446" transform="translate(-242.852 -50.649)" fill="#903bde"/>
        <path id="Path_297142" data-name="Path 297142" d="M283.467,74.17l-.669.988-.635-.936-1.091,1.06,1.727.5,2.316-1.117Z" transform="translate(-261.682 -51.327)" fill="#343d70"/>
        <path id="Path_297143" data-name="Path 297143" d="M303.3,78.5c.714-1.808,2.663-1.951,4.7-2.409-.62.236,0,0,0,0,3.095,2.545-.815,9.04-.815,9.04l-.69,1.008-5.459-2.728s1.378-2.664,2.267-4.912" transform="translate(-291.902 -52.656)" fill="#903bde"/>
        <path id="Path_297144" data-name="Path 297144" d="M301.084,89.468a2.633,2.633,0,0,1,2.633-2.633H305.7a15.363,15.363,0,0,1-1.991,5.731l-.691,1.009-1.933-.966Z" transform="translate(-288.428 -60.091)" fill="#903bde"/>
        <path id="Path_297145" data-name="Path 297145" d="M314.352,100.222l-6.44-3.18-.765,1.328,6.391,3.019Z" transform="translate(-298.949 -67.154)" fill="#a43ffd"/>
        <path id="Path_297146" data-name="Path 297146" d="M251.443,77.778s.551.2,1.555.585c2.836,1.082,2.856,8.1,2.856,8.1h-3.3s-1.654-5-1.108-8.683" transform="translate(-223.261 -53.823)" fill="#903bde"/>
        <path id="Path_297147" data-name="Path 297147" d="M100.426,136.3h61.157a2.393,2.393,0,0,0,2.393-2.393v-46.2a2.393,2.393,0,0,0-2.393-2.393H100.426a2.393,2.393,0,0,0-2.393,2.393v46.2a2.393,2.393,0,0,0,2.393,2.393" transform="translate(-84.169 -59.037)" fill="#fff"/>
        <path id="Path_297148" data-name="Path 297148" d="M100.286,135.393V89.668a2.624,2.624,0,0,1,.776-1.865l64.474,49.367a2.623,2.623,0,0,1-1.939.856H102.919a2.633,2.633,0,0,1-2.633-2.633" transform="translate(-86.422 -60.761)" fill="#aec1bf"/>
        <path id="Path_297149" data-name="Path 297149" d="M104.989,137.153h58.346a2.394,2.394,0,0,0,2.394-2.393V91.233a2.394,2.394,0,0,0-2.394-2.393H104.989a2.393,2.393,0,0,0-2.393,2.393v43.526a2.393,2.393,0,0,0,2.393,2.393" transform="translate(-87.327 -61.478)" fill="#e1f1f1"/>
        <path id="Path_297150" data-name="Path 297150" d="M152.071,121.688h7.134a.953.953,0,0,0,.953-.953V113.6a.953.953,0,0,0-.953-.953h-7.134a.953.953,0,0,0-.953.953v7.135a.953.953,0,0,0,.953.953" transform="translate(-96.701 -77.954)" fill="#aec1bf"/>
        <path id="Path_297151" data-name="Path 297151" d="M193.655,121.688h7.134a.953.953,0,0,0,.953-.953V113.6a.953.953,0,0,0-.953-.953h-7.134a.953.953,0,0,0-.953.953v7.135a.953.953,0,0,0,.953.953" transform="translate(-151.092 -77.954)" fill="#aec1bf"/>
        <path id="Path_297152" data-name="Path 297152" d="M235.238,121.688h7.134a.953.953,0,0,0,.953-.953V113.6a.953.953,0,0,0-.953-.953h-7.134a.953.953,0,0,0-.953.953v7.135a.953.953,0,0,0,.953.953" transform="translate(-205.483 -77.954)" fill="#aec1bf"/>
        <path id="Path_297153" data-name="Path 297153" d="M276.822,121.688h7.134a.953.953,0,0,0,.953-.953V113.6a.953.953,0,0,0-.953-.953h-7.134a.953.953,0,0,0-.953.953v7.135a.953.953,0,0,0,.953.953" transform="translate(-259.874 -77.954)" fill="#aec1bf"/>
        <path id="Path_297154" data-name="Path 297154" d="M110.487,158.851h7.134a.953.953,0,0,0,.953-.953v-7.135a.953.953,0,0,0-.953-.953h-7.134a.953.953,0,0,0-.953.953V157.9a.953.953,0,0,0,.953.953" transform="translate(-42.31 -103.671)" fill="#aec1bf"/>
        <path id="Path_297155" data-name="Path 297155" d="M152.071,158.851h7.134a.953.953,0,0,0,.953-.953v-7.135a.953.953,0,0,0-.953-.953h-7.134a.953.953,0,0,0-.953.953V157.9a.953.953,0,0,0,.953.953" transform="translate(-96.701 -103.671)" fill="#aec1bf"/>
        <path id="Path_297156" data-name="Path 297156" d="M193.655,158.851h7.134a.953.953,0,0,0,.953-.953v-7.135a.953.953,0,0,0-.953-.953h-7.134a.953.953,0,0,0-.953.953V157.9a.953.953,0,0,0,.953.953" transform="translate(-151.092 -103.671)" fill="#aec1bf"/>
        <path id="Path_297157" data-name="Path 297157" d="M235.238,158.851h7.134a.953.953,0,0,0,.953-.953v-7.135a.953.953,0,0,0-.953-.953h-7.134a.953.953,0,0,0-.953.953V157.9a.953.953,0,0,0,.953.953" transform="translate(-205.483 -103.671)" fill="#aec1bf"/>
        <path id="Path_297158" data-name="Path 297158" d="M276.822,158.851h7.134a.953.953,0,0,0,.953-.953v-7.135a.953.953,0,0,0-.953-.953h-7.134a.953.953,0,0,0-.953.953V157.9a.953.953,0,0,0,.953.953" transform="translate(-259.874 -103.671)" fill="#aec1bf"/>
        <path id="Path_297159" data-name="Path 297159" d="M110.487,196.013h7.134a.953.953,0,0,0,.953-.953v-7.134a.953.953,0,0,0-.953-.953h-7.134a.953.953,0,0,0-.953.953v7.134a.953.953,0,0,0,.953.953" transform="translate(-42.31 -129.387)" fill="#aec1bf"/>
        <path id="Path_297160" data-name="Path 297160" d="M152.071,196.013h7.134a.953.953,0,0,0,.953-.953v-7.134a.953.953,0,0,0-.953-.953h-7.134a.953.953,0,0,0-.953.953v7.134a.953.953,0,0,0,.953.953" transform="translate(-96.701 -129.387)" fill="#aec1bf"/>
        <path id="Path_297161" data-name="Path 297161" d="M193.655,196.013h7.134a.953.953,0,0,0,.953-.953v-7.134a.953.953,0,0,0-.953-.953h-7.134a.953.953,0,0,0-.953.953v7.134a.953.953,0,0,0,.953.953" transform="translate(-151.092 -129.387)" fill="#aec1bf"/>
        <path id="Path_297162" data-name="Path 297162" d="M235.238,196.013h7.134a.953.953,0,0,0,.953-.953v-7.134a.953.953,0,0,0-.953-.953h-7.134a.953.953,0,0,0-.953.953v7.134a.953.953,0,0,0,.953.953" transform="translate(-205.483 -129.387)" fill="#aec1bf"/>
        <path id="Path_297163" data-name="Path 297163" d="M267.342,29.988a.456.456,0,0,1,.268.769,4.79,4.79,0,0,1-3.9,1.707c-2.623-.348.086-4.348.086-4.348a7.026,7.026,0,0,0,3.548,1.872" transform="translate(-238.605 -19.457)" fill="#4b341f"/>
        <path id="Path_297164" data-name="Path 297164" d="M276.868,69.669l-2.134,1.386,2.076,1.489,1.524-2.335Z" transform="translate(-252.948 -48.212)" fill="#903bde"/>
        <path id="Path_297165" data-name="Path 297165" d="M294.607,71.106l-1.142,1.438-2.81-1.791.966-1.085Z" transform="translate(-274.126 -48.211)" fill="#903bde"/>
        <path id="Path_297166" data-name="Path 297166" d="M174.617,28.72l1.509-3.846V21.726a2.234,2.234,0,0,1,2.234-2.234h19.321a2.234,2.234,0,0,1,2.234,2.234v3.908a2.234,2.234,0,0,1-2.234,2.234H179.062l-3.79,1.5a.5.5,0,0,1-.654-.652" transform="translate(-143.684 -13.489)" fill="#903bde"/>
        <path id="Path_297167" data-name="Path 297167" d="M185.487,28.837a1.648,1.648,0,1,0,1.647-1.647,1.648,1.648,0,0,0-1.647,1.647" transform="translate(-135.91 -18.816)" fill="#fff"/>
        <path id="Path_297168" data-name="Path 297168" d="M207.259,28.837a1.648,1.648,0,1,0,1.647-1.647,1.648,1.648,0,0,0-1.647,1.647" transform="translate(-164.388 -18.816)" fill="#fff"/>
        <path id="Path_297169" data-name="Path 297169" d="M229.032,28.837a1.648,1.648,0,1,0,1.647-1.647,1.648,1.648,0,0,0-1.647,1.647" transform="translate(-192.866 -18.816)" fill="#fff"/>
      </g>
    </g>
    <text id="CALENDAR" transform="translate(16.823 29.674)" fill="#6d74ca" font-size="1" font-family="Montserrat-Black, Montserrat" font-weight="800"><tspan x="0" y="0" letter-spacing="0.09em">C</tspan><tspan y="0" letter-spacing="0.1em">ALEN</tspan><tspan y="0" letter-spacing="0.089em">D</tspan><tspan y="0" letter-spacing="0.099em">A</tspan><tspan y="0">R</tspan></text>
    <g id="Group_220086" data-name="Group 220086">
      <g id="Group_220085" data-name="Group 220085" clip-path="url(#clip-path)">
        <path id="Path_297170" data-name="Path 297170" d="M150.606,120.223h7.134a.953.953,0,0,0,.953-.953v-7.135a.953.953,0,0,0-.953-.953h-7.134a.953.953,0,0,0-.953.953v7.135a.953.953,0,0,0,.953.953" transform="translate(-94.785 -76.94)" fill="#6d74ca"/>
        <path id="Path_297171" data-name="Path 297171" d="M192.189,120.223h7.134a.953.953,0,0,0,.953-.953v-7.135a.953.953,0,0,0-.953-.953h-7.134a.953.953,0,0,0-.953.953v7.135a.953.953,0,0,0,.953.953" transform="translate(-149.175 -76.94)" fill="#6d74ca"/>
        <path id="Path_297172" data-name="Path 297172" d="M233.773,120.223h7.134a.953.953,0,0,0,.953-.953v-7.135a.953.953,0,0,0-.953-.953h-7.134a.953.953,0,0,0-.953.953v7.135a.953.953,0,0,0,.953.953" transform="translate(-203.567 -76.94)" fill="#6d74ca"/>
        <path id="Path_297173" data-name="Path 297173" d="M275.357,120.223h7.134a.953.953,0,0,0,.953-.953v-7.135a.953.953,0,0,0-.953-.953h-7.134a.953.953,0,0,0-.953.953v7.135a.953.953,0,0,0,.953.953" transform="translate(-257.958 -76.94)" fill="#6d74ca"/>
        <path id="Path_297174" data-name="Path 297174" d="M109.022,157.386h7.134a.953.953,0,0,0,.953-.953V149.3a.953.953,0,0,0-.953-.953h-7.134a.953.953,0,0,0-.953.953v7.135a.953.953,0,0,0,.953.953" transform="translate(-40.393 -102.657)" fill="#6d74ca"/>
        <path id="Path_297175" data-name="Path 297175" d="M150.606,157.386h7.134a.953.953,0,0,0,.953-.953V149.3a.953.953,0,0,0-.953-.953h-7.134a.953.953,0,0,0-.953.953v7.135a.953.953,0,0,0,.953.953" transform="translate(-94.785 -102.657)" fill="#6d74ca"/>
        <path id="Path_297176" data-name="Path 297176" d="M192.189,157.386h7.134a.953.953,0,0,0,.953-.953V149.3a.953.953,0,0,0-.953-.953h-7.134a.953.953,0,0,0-.953.953v7.135a.953.953,0,0,0,.953.953" transform="translate(-149.175 -102.657)" fill="#6d74ca"/>
        <path id="Path_297177" data-name="Path 297177" d="M233.773,157.386h7.134a.953.953,0,0,0,.953-.953V149.3a.953.953,0,0,0-.953-.953h-7.134a.953.953,0,0,0-.953.953v7.135a.953.953,0,0,0,.953.953" transform="translate(-203.567 -102.657)" fill="#6d74ca"/>
        <path id="Path_297178" data-name="Path 297178" d="M275.357,157.386h7.134a.953.953,0,0,0,.953-.953V149.3a.953.953,0,0,0-.953-.953h-7.134a.953.953,0,0,0-.953.953v7.135a.953.953,0,0,0,.953.953" transform="translate(-257.958 -102.657)" fill="#6d74ca"/>
        <path id="Path_297179" data-name="Path 297179" d="M278.4,155.168a3.5,3.5,0,1,0,3.5-3.5,3.5,3.5,0,0,0-3.5,3.5" transform="translate(-261.133 -104.959)" fill="#fff"/>
        <path id="Path_297180" data-name="Path 297180" d="M282.973,161.48h-.018a.34.34,0,0,1-.245-.125l-1.415-1.746a.339.339,0,1,1,.526-.427L283,160.635l2.9-2.894a.339.339,0,0,1,.479.479l-3.16,3.161a.339.339,0,0,1-.24.1" transform="translate(-263.085 -109.09)" fill="#c54453"/>
        <path id="Path_297181" data-name="Path 297181" d="M6.563,0a5.716,5.716,0,0,0-5.15,8.189L0,11.362l3.555-.793A5.713,5.713,0,1,0,6.563,0" transform="matrix(-0.07, -0.998, 0.998, -0.07, 1.247, 13.467)" fill="#903bde"/>
        <path id="Path_297182" data-name="Path 297182" d="M327.167,16.075h-.025a.486.486,0,0,1-.351-.179L324.77,13.4a.484.484,0,1,1,.752-.61l1.683,2.076,4.135-4.134a.484.484,0,1,1,.684.684l-4.514,4.514a.482.482,0,0,1-.342.142" transform="translate(-321.634 -6.099)" fill="#fff"/>
        <path id="Path_297183" data-name="Path 297183" d="M109.022,194.548h7.134a.953.953,0,0,0,.953-.953v-7.135a.953.953,0,0,0-.953-.953h-7.134a.953.953,0,0,0-.953.953V193.6a.953.953,0,0,0,.953.953" transform="translate(-40.393 -128.374)" fill="#6d74ca"/>
        <path id="Path_297184" data-name="Path 297184" d="M150.606,194.548h7.134a.953.953,0,0,0,.953-.953v-7.135a.953.953,0,0,0-.953-.953h-7.134a.953.953,0,0,0-.953.953V193.6a.953.953,0,0,0,.953.953" transform="translate(-94.785 -128.374)" fill="#6d74ca"/>
        <path id="Path_297185" data-name="Path 297185" d="M192.189,194.548h7.134a.953.953,0,0,0,.953-.953v-7.135a.953.953,0,0,0-.953-.953h-7.134a.953.953,0,0,0-.953.953V193.6a.953.953,0,0,0,.953.953" transform="translate(-149.175 -128.374)" fill="#6d74ca"/>
        <path id="Path_297186" data-name="Path 297186" d="M233.773,194.548h7.134a.953.953,0,0,0,.953-.953v-7.135a.953.953,0,0,0-.953-.953h-7.134a.953.953,0,0,0-.953.953V193.6a.953.953,0,0,0,.953.953" transform="translate(-203.567 -128.374)" fill="#6d74ca"/>
        <path id="Path_297187" data-name="Path 297187" d="M310.527,116.2s2.99,7.074,4.087,8.8-.515,2.612-3.209.179-5.322-8.123-4.755-9.18,3.011-1.989,3.877.2" transform="translate(-299.383 -79.488)" fill="#f0c9a5"/>
        <g id="Group_220084" data-name="Group 220084" transform="translate(13.863 45.91)" style="mix-blend-mode: multiply;isolation: isolate">
          <g id="Group_220083" data-name="Group 220083" transform="translate(0)">
            <g id="Group_220082" data-name="Group 220082" transform="translate(0)" clip-path="url(#clip-path-4)">
              <path id="Path_297188" data-name="Path 297188" d="M292.992,153.386v-3.537l1.135-.784s1.016.589,1.468.888c.162.107.912.007,1.626.13.282.049.365.683.09.76l-.433.121a1.8,1.8,0,0,1-.389.07,8.345,8.345,0,0,0-.864.143s3.635,3.561,3.236,3.87c-.516.4-2.637-1.915-2.785-2.095.152.187.8,1.186.248,1.463-.42.212-1.328-1.076-1.328-1.076s.905,1.268.1,1.161c-.524-.069-1.163-1.072-1.163-1.072s.319.722-.135.773c-.355.04-.627-.383-.809-.815" transform="translate(-292.992 -149.065)" fill="#e0dddc"/>
            </g>
          </g>
        </g>
        <path id="Path_297189" data-name="Path 297189" d="M293.393,147.627l1.467-1.013s1.015.589,1.467.888c.162.107.912.007,1.626.13.282.048.365.682.09.76l-.433.122a1.813,1.813,0,0,1-.389.07,8.279,8.279,0,0,0-.864.143s3.635,3.561,3.236,3.87c-.516.4-2.637-1.915-2.785-2.094.152.186.8,1.186.248,1.463-.42.211-1.328-1.076-1.328-1.076s.905,1.267.1,1.161c-.524-.069-1.163-1.072-1.163-1.072s.319.722-.135.773c-.648.072-1.022-1.4-1.073-1.646s-.341-1.466-.453-1.886.385-.59.385-.59" transform="translate(-279.861 -101.459)" fill="#f0c9a5"/>
        <path id="Path_297190" data-name="Path 297190" d="M108.289,231.619h50.026a.22.22,0,0,0,.22-.22v-.044a.22.22,0,0,0-.22-.22H108.289a.219.219,0,0,0-.22.22v.044a.219.219,0,0,0,.22.22" transform="translate(-81.818 -159.949)" fill="#6d74ca"/>
        <path id="Path_297191" data-name="Path 297191" d="M221.011,81.072c.314.079.379.45.34.772-.169,1.41-.277,2.05-.677,1.872-.506-.224-.5-1.011-.444-2.044.022-.407.241-.726.636-.626Z" transform="translate(-179.181 -56.072)" fill="#f0c9a5"/>
        <path id="Path_297192" data-name="Path 297192" d="M224.056,81.159a.645.645,0,0,1,.483.7c-.169,1.41-.437,2.74-.837,2.563-.506-.224-.539-1.647-.484-2.68a.645.645,0,0,1,.8-.593Z" transform="translate(-183.286 -56.143)" fill="#f0c9a5"/>
        <path id="Path_297193" data-name="Path 297193" d="M227.682,81.159a.645.645,0,0,1,.483.7c-.169,1.41-.437,2.74-.837,2.563-.506-.224-.539-1.647-.484-2.68a.645.645,0,0,1,.8-.593Z" transform="translate(-188.029 -56.143)" fill="#f0c9a5"/>
        <path id="Path_297194" data-name="Path 297194" d="M231.2,81.155a.645.645,0,0,1,.483.7c-.169,1.41-.431,2.319-.832,2.141-.506-.224-.406-1.257-.35-2.29.022-.407.267-.662.662-.561Z" transform="translate(-192.658 -56.139)" fill="#f0c9a5"/>
      </g>
    </g>
  </g>
</svg>
