<svg id="Group_220439" data-name="Group 220439" xmlns="http://www.w3.org/2000/svg" width="24" height="24" viewBox="0 0 24 24">
  <path id="Path_297795" data-name="Path 297795" d="M0,0H24V24H0Z" fill="none"/>
  <path id="Path_297796" data-name="Path 297796" d="M10.054,2.094a3,3,0,0,1,3.892,0l1.348,1.149a1,1,0,0,0,.569.236l1.765.141a3,3,0,0,1,2.752,2.752l.141,1.765a1,1,0,0,0,.236.569l1.149,1.348a3,3,0,0,1,0,3.892l-1.149,1.348a1,1,0,0,0-.236.569l-.141,1.765a3,3,0,0,1-2.752,2.752l-1.765.141a1,1,0,0,0-.569.236l-1.348,1.149a3,3,0,0,1-3.892,0L8.706,20.757a1,1,0,0,0-.569-.236L6.372,20.38A3,3,0,0,1,3.62,17.628l-.141-1.765a1,1,0,0,0-.236-.569L2.095,13.946a3,3,0,0,1,0-3.892L3.243,8.706a1,1,0,0,0,.236-.569L3.62,6.371A3,3,0,0,1,6.372,3.619l1.765-.141a1,1,0,0,0,.569-.236Zm2.594,1.522a1,1,0,0,0-1.3,0L10,4.765A3,3,0,0,1,8.3,5.472l-1.765.141a1,1,0,0,0-.917.917L5.473,8.3A3,3,0,0,1,4.766,10L3.617,11.351a1,1,0,0,0,0,1.3L4.766,14A3,3,0,0,1,5.473,15.7l.141,1.766a1,1,0,0,0,.917.917l1.765.141A3,3,0,0,1,10,19.234l1.348,1.149a1,1,0,0,0,1.3,0L14,19.234a3,3,0,0,1,1.707-.707l1.765-.141a1,1,0,0,0,.917-.917l.141-1.766A3,3,0,0,1,19.235,14l1.149-1.348a1,1,0,0,0,0-1.3L19.235,10A3,3,0,0,1,18.528,8.3L18.387,6.53a1,1,0,0,0-.917-.917L15.7,5.472A3,3,0,0,1,14,4.765Zm2.18,4.141,1.414,1.414L9.172,16.243,7.757,14.828Zm-4.6,2.475a1.5,1.5,0,1,1,0-2.121A1.5,1.5,0,0,1,10.232,10.232Zm3.536,5.657a1.5,1.5,0,1,0,0-2.121A1.5,1.5,0,0,0,13.768,15.889Z"/>
</svg>
