<svg width="60" height="60" viewBox="0 0 60 60" fill="none" xmlns="http://www.w3.org/2000/svg">
<circle cx="30" cy="30" r="26" stroke="black" stroke-width="8"/>
<path d="M33.9559 23.225V49H27.0559V23.225H33.9559ZM34.7809 15.9C34.7809 16.4833 34.6642 17.025 34.4309 17.525C34.1975 18.025 33.8809 18.4667 33.4809 18.85C33.0975 19.2333 32.6392 19.5333 32.1059 19.75C31.5892 19.9667 31.0309 20.075 30.4309 20.075C29.8642 20.075 29.3225 19.9667 28.8059 19.75C28.3059 19.5333 27.8642 19.2333 27.4809 18.85C27.0975 18.4667 26.7892 18.025 26.5559 17.525C26.3392 17.025 26.2309 16.4833 26.2309 15.9C26.2309 15.3167 26.3392 14.775 26.5559 14.275C26.7892 13.7583 27.0975 13.3083 27.4809 12.925C27.8642 12.5417 28.3059 12.2417 28.8059 12.025C29.3225 11.8083 29.8642 11.7 30.4309 11.7C31.0309 11.7 31.5892 11.8083 32.1059 12.025C32.6392 12.2417 33.0975 12.5417 33.4809 12.925C33.8809 13.3083 34.1975 13.7583 34.4309 14.275C34.6642 14.775 34.7809 15.3167 34.7809 15.9Z" fill="#0F0F0F"/>
</svg>
