<svg id="Group_220267" data-name="Group 220267" xmlns="http://www.w3.org/2000/svg" xmlns:xlink="http://www.w3.org/1999/xlink" width="360" height="201.868" viewBox="0 0 360 201.868">
  <defs>
    <clipPath id="clip-path">
      <rect id="Rectangle_85898" data-name="Rectangle 85898" width="360" height="201.868" fill="none"/>
    </clipPath>
    <clipPath id="clip-path-3">
      <rect id="Rectangle_85884" data-name="Rectangle 85884" width="5.317" height="7.593" fill="none"/>
    </clipPath>
    <clipPath id="clip-path-4">
      <rect id="Rectangle_85887" data-name="Rectangle 85887" width="15.244" height="4.425" fill="none"/>
    </clipPath>
  </defs>
  <g id="Group_220266" data-name="Group 220266" clip-path="url(#clip-path)">
    <path id="Path_297602" data-name="Path 297602" d="M86.029,674.693h58.986V788.4H86.029Zm-.615,114.318h60.217V674.078H85.414Z" transform="translate(-74.398 -587.143)" fill="#dadada"/>
    <path id="Path_297603" data-name="Path 297603" d="M159.046,783.472h-9.231V769.51h9.231Zm-8.616-.615h8V770.125h-8Z" transform="translate(-130.494 -670.268)" fill="#dadada"/>
    <path id="Path_297604" data-name="Path 297604" d="M292.658,783.472h-9.231V769.51h9.231Zm-8.616-.615h8V770.125h-8Z" transform="translate(-246.874 -670.268)" fill="#dadada"/>
    <path id="Path_297605" data-name="Path 297605" d="M1786.717,463.2h96.44V604.181h-96.44ZM1786.1,604.8h97.67V462.587H1786.1Z" transform="translate(-1555.752 -402.928)" fill="#dadada"/>
    <path id="Path_297606" data-name="Path 297606" d="M2188.261,594.125h-12.507V577.979h12.507Zm-11.891-.615h11.276V578.594H2176.37Z" transform="translate(-1895.152 -503.438)" fill="#dadada"/>
    <path id="Path_297607" data-name="Path 297607" d="M2363.893,594.125h-12.507V577.979h12.507ZM2352,593.509h11.276V578.594H2352Z" transform="translate(-2048.135 -503.438)" fill="#dadada"/>
    <path id="Path_297608" data-name="Path 297608" d="M548.3.612h83.651V201.249H548.3Zm-.616,201.253h84.882V0H547.688Z" transform="translate(-477.053 0.003)" fill="#dadada"/>
    <path id="Path_297609" data-name="Path 297609" d="M659.336,106.775H650.1V82.524h9.231Zm-8.616-.615h8V83.139h-8Z" transform="translate(-566.262 -71.881)" fill="#dadada"/>
    <path id="Path_297610" data-name="Path 297610" d="M786.585,106.775h-9.231V82.524h9.231Zm-8.616-.615h8V83.139h-8Z" transform="translate(-677.1 -71.881)" fill="#dadada"/>
    <path id="Path_297611" data-name="Path 297611" d="M913.836,106.775H904.6V82.524h9.231Zm-8.616-.615h8V83.139h-8Z" transform="translate(-787.94 -71.881)" fill="#dadada"/>
    <path id="Path_297612" data-name="Path 297612" d="M1041.085,106.775h-9.231V82.524h9.231Zm-8.615-.615h8V83.139h-8Z" transform="translate(-898.778 -71.881)" fill="#dadada"/>
    <rect id="Rectangle_85786" data-name="Rectangle 85786" width="31.176" height="0.615" transform="translate(89.381 89.453)" fill="#dadada"/>
    <rect id="Rectangle_85787" data-name="Rectangle 85787" width="31.176" height="0.615" transform="translate(89.381 101.146)" fill="#dadada"/>
    <path id="Path_297613" data-name="Path 297613" d="M1201.254,177.468h74.856V355.3h-74.856Zm-.615,178.444h76.087V176.853h-76.087Z" transform="translate(-1045.794 -154.045)" fill="#dadada"/>
    <rect id="Rectangle_85788" data-name="Rectangle 85788" width="47.387" height="0.615" transform="translate(169.175 37.348)" fill="#dadada"/>
    <rect id="Rectangle_85789" data-name="Rectangle 85789" width="47.387" height="0.615" transform="translate(169.175 49.041)" fill="#dadada"/>
    <rect id="Rectangle_85790" data-name="Rectangle 85790" width="27.899" height="0.615" transform="translate(188.663 85.814)" fill="#dadada"/>
    <rect id="Rectangle_85791" data-name="Rectangle 85791" width="76.839" height="76.839" transform="translate(127.421 124.568)" fill="#754bf8"/>
    <path id="Path_297614" data-name="Path 297614" d="M1063.072,1040.952H985.618V963.5h77.454Zm-76.839-.615h76.224V964.114H986.233Z" transform="translate(-858.505 -839.238)" fill="#86a7ff"/>
    <rect id="Rectangle_85792" data-name="Rectangle 85792" width="14.719" height="0.615" transform="translate(179.342 194.638)" fill="#fff"/>
    <rect id="Rectangle_85793" data-name="Rectangle 85793" width="14.719" height="0.615" transform="translate(133.34 194.638)" fill="#fff"/>
    <rect id="Rectangle_85794" data-name="Rectangle 85794" width="14.719" height="0.615" transform="translate(148.674 194.638)" fill="#fff"/>
    <rect id="Rectangle_85795" data-name="Rectangle 85795" width="14.719" height="0.615" transform="translate(164.008 194.638)" fill="#fff"/>
    <rect id="Rectangle_85796" data-name="Rectangle 85796" width="9.165" height="0.615" transform="translate(194.677 194.638)" fill="#fff"/>
    <rect id="Rectangle_85797" data-name="Rectangle 85797" width="4.886" height="0.615" transform="translate(127.838 194.638)" fill="#fff"/>
    <rect id="Rectangle_85798" data-name="Rectangle 85798" width="14.719" height="0.615" transform="translate(179.342 179.304)" fill="#fff"/>
    <rect id="Rectangle_85799" data-name="Rectangle 85799" width="14.719" height="0.615" transform="translate(148.674 179.304)" fill="#fff"/>
    <rect id="Rectangle_85800" data-name="Rectangle 85800" width="4.886" height="0.615" transform="translate(127.838 179.304)" fill="#fff"/>
    <rect id="Rectangle_85801" data-name="Rectangle 85801" width="9.165" height="0.615" transform="translate(194.677 179.304)" fill="#fff"/>
    <rect id="Rectangle_85802" data-name="Rectangle 85802" width="14.719" height="0.615" transform="translate(164.008 179.304)" fill="#fff"/>
    <rect id="Rectangle_85803" data-name="Rectangle 85803" width="14.719" height="0.615" transform="translate(133.34 179.304)" fill="#fff"/>
    <rect id="Rectangle_85804" data-name="Rectangle 85804" width="14.719" height="0.615" transform="translate(179.342 163.969)" fill="#fff"/>
    <rect id="Rectangle_85805" data-name="Rectangle 85805" width="14.719" height="0.615" transform="translate(164.008 163.969)" fill="#fff"/>
    <rect id="Rectangle_85806" data-name="Rectangle 85806" width="14.719" height="0.615" transform="translate(133.34 163.969)" fill="#fff"/>
    <rect id="Rectangle_85807" data-name="Rectangle 85807" width="14.719" height="0.615" transform="translate(148.674 163.969)" fill="#fff"/>
    <rect id="Rectangle_85808" data-name="Rectangle 85808" width="4.886" height="0.615" transform="translate(127.838 163.969)" fill="#fff"/>
    <rect id="Rectangle_85809" data-name="Rectangle 85809" width="9.165" height="0.615" transform="translate(194.677 163.969)" fill="#fff"/>
    <rect id="Rectangle_85810" data-name="Rectangle 85810" width="14.719" height="0.615" transform="translate(148.674 148.635)" fill="#fff"/>
    <rect id="Rectangle_85811" data-name="Rectangle 85811" width="9.165" height="0.615" transform="translate(194.677 148.635)" fill="#fff"/>
    <rect id="Rectangle_85812" data-name="Rectangle 85812" width="14.719" height="0.615" transform="translate(133.34 148.635)" fill="#fff"/>
    <rect id="Rectangle_85813" data-name="Rectangle 85813" width="14.719" height="0.615" transform="translate(164.008 148.635)" fill="#fff"/>
    <rect id="Rectangle_85814" data-name="Rectangle 85814" width="4.886" height="0.615" transform="translate(127.838 148.635)" fill="#fff"/>
    <rect id="Rectangle_85815" data-name="Rectangle 85815" width="14.719" height="0.615" transform="translate(179.342 148.635)" fill="#fff"/>
    <rect id="Rectangle_85816" data-name="Rectangle 85816" width="14.719" height="0.615" transform="translate(179.342 133.302)" fill="#fff"/>
    <rect id="Rectangle_85817" data-name="Rectangle 85817" width="4.886" height="0.615" transform="translate(127.838 133.302)" fill="#fff"/>
    <rect id="Rectangle_85818" data-name="Rectangle 85818" width="9.165" height="0.615" transform="translate(194.677 133.302)" fill="#fff"/>
    <rect id="Rectangle_85819" data-name="Rectangle 85819" width="14.719" height="0.615" transform="translate(164.008 133.302)" fill="#fff"/>
    <rect id="Rectangle_85820" data-name="Rectangle 85820" width="14.719" height="0.615" transform="translate(133.34 133.302)" fill="#fff"/>
    <rect id="Rectangle_85821" data-name="Rectangle 85821" width="14.719" height="0.615" transform="translate(148.674 133.302)" fill="#fff"/>
    <path id="Path_297615" data-name="Path 297615" d="M1504.726,992.77v52.354h.616v-76h-.616v23.65Z" transform="translate(-1310.665 -844.135)" fill="#fff"/>
    <path id="Path_297616" data-name="Path 297616" d="M1385.825,992.77v52.354h.615v-76h-.615v23.65Z" transform="translate(-1207.099 -844.135)" fill="#fff"/>
    <path id="Path_297617" data-name="Path 297617" d="M1266.927,992.77v52.354h.616v-76h-.616v23.65Z" transform="translate(-1103.535 -844.135)" fill="#fff"/>
    <path id="Path_297618" data-name="Path 297618" d="M1148.029,992.77v52.354h.615v-76h-.615v23.65Z" transform="translate(-999.97 -844.135)" fill="#fff"/>
    <path id="Path_297619" data-name="Path 297619" d="M1029.129,1039.389v5.736h.615v-76h-.615v70.267Z" transform="translate(-896.405 -844.136)" fill="#fff"/>
    <path id="Path_297620" data-name="Path 297620" d="M1131.763,1112.216v16.62h-10.855v-16.75l-18.161-30.156h11.526l12.53,20.843,12.53-20.843h10.656Z" transform="translate(-960.529 -942.394)" fill="#fff"/>
    <rect id="Rectangle_85822" data-name="Rectangle 85822" width="76.839" height="76.839" transform="translate(217.886 124.568)" fill="#7248fa"/>
    <path id="Path_297621" data-name="Path 297621" d="M1764.535,1040.952h-77.454V963.5h77.454Zm-76.838-.615h76.223V964.114H1687.7Z" transform="translate(-1469.502 -839.238)" fill="#86a7ff"/>
    <rect id="Rectangle_85823" data-name="Rectangle 85823" width="14.719" height="0.615" transform="translate(269.808 194.638)" fill="#fff"/>
    <rect id="Rectangle_85824" data-name="Rectangle 85824" width="14.719" height="0.615" transform="translate(223.806 194.638)" fill="#fff"/>
    <rect id="Rectangle_85825" data-name="Rectangle 85825" width="14.719" height="0.615" transform="translate(239.141 194.638)" fill="#fff"/>
    <rect id="Rectangle_85826" data-name="Rectangle 85826" width="14.719" height="0.615" transform="translate(254.475 194.638)" fill="#fff"/>
    <rect id="Rectangle_85827" data-name="Rectangle 85827" width="9.165" height="0.615" transform="translate(285.143 194.638)" fill="#fff"/>
    <rect id="Rectangle_85828" data-name="Rectangle 85828" width="4.886" height="0.615" transform="translate(218.304 194.638)" fill="#fff"/>
    <rect id="Rectangle_85829" data-name="Rectangle 85829" width="14.719" height="0.615" transform="translate(269.808 179.304)" fill="#fff"/>
    <rect id="Rectangle_85830" data-name="Rectangle 85830" width="14.719" height="0.615" transform="translate(239.141 179.304)" fill="#fff"/>
    <rect id="Rectangle_85831" data-name="Rectangle 85831" width="4.886" height="0.615" transform="translate(218.304 179.304)" fill="#fff"/>
    <rect id="Rectangle_85832" data-name="Rectangle 85832" width="9.165" height="0.615" transform="translate(285.143 179.304)" fill="#fff"/>
    <rect id="Rectangle_85833" data-name="Rectangle 85833" width="14.719" height="0.615" transform="translate(254.475 179.304)" fill="#fff"/>
    <rect id="Rectangle_85834" data-name="Rectangle 85834" width="14.719" height="0.615" transform="translate(223.806 179.304)" fill="#fff"/>
    <rect id="Rectangle_85835" data-name="Rectangle 85835" width="14.719" height="0.615" transform="translate(269.808 163.969)" fill="#fff"/>
    <rect id="Rectangle_85836" data-name="Rectangle 85836" width="14.719" height="0.615" transform="translate(254.475 163.969)" fill="#fff"/>
    <rect id="Rectangle_85837" data-name="Rectangle 85837" width="14.719" height="0.615" transform="translate(223.806 163.969)" fill="#fff"/>
    <rect id="Rectangle_85838" data-name="Rectangle 85838" width="14.719" height="0.615" transform="translate(239.141 163.969)" fill="#fff"/>
    <rect id="Rectangle_85839" data-name="Rectangle 85839" width="4.886" height="0.615" transform="translate(218.304 163.969)" fill="#fff"/>
    <rect id="Rectangle_85840" data-name="Rectangle 85840" width="9.165" height="0.615" transform="translate(285.143 163.969)" fill="#fff"/>
    <rect id="Rectangle_85841" data-name="Rectangle 85841" width="14.719" height="0.615" transform="translate(239.141 148.635)" fill="#fff"/>
    <rect id="Rectangle_85842" data-name="Rectangle 85842" width="9.165" height="0.615" transform="translate(285.143 148.635)" fill="#fff"/>
    <rect id="Rectangle_85843" data-name="Rectangle 85843" width="14.719" height="0.615" transform="translate(223.806 148.635)" fill="#fff"/>
    <rect id="Rectangle_85844" data-name="Rectangle 85844" width="14.719" height="0.615" transform="translate(254.475 148.635)" fill="#fff"/>
    <rect id="Rectangle_85845" data-name="Rectangle 85845" width="4.886" height="0.615" transform="translate(218.304 148.635)" fill="#fff"/>
    <rect id="Rectangle_85846" data-name="Rectangle 85846" width="14.719" height="0.615" transform="translate(269.808 148.635)" fill="#fff"/>
    <rect id="Rectangle_85847" data-name="Rectangle 85847" width="14.719" height="0.615" transform="translate(269.808 133.302)" fill="#fff"/>
    <rect id="Rectangle_85848" data-name="Rectangle 85848" width="4.886" height="0.615" transform="translate(218.304 133.302)" fill="#fff"/>
    <rect id="Rectangle_85849" data-name="Rectangle 85849" width="9.165" height="0.615" transform="translate(285.143 133.302)" fill="#fff"/>
    <rect id="Rectangle_85850" data-name="Rectangle 85850" width="14.719" height="0.615" transform="translate(254.475 133.302)" fill="#fff"/>
    <rect id="Rectangle_85851" data-name="Rectangle 85851" width="14.719" height="0.615" transform="translate(223.806 133.302)" fill="#fff"/>
    <rect id="Rectangle_85852" data-name="Rectangle 85852" width="14.719" height="0.615" transform="translate(239.141 133.302)" fill="#fff"/>
    <path id="Path_297622" data-name="Path 297622" d="M2206.19,992.77v52.354h.615v-76h-.615v23.65Z" transform="translate(-1921.662 -844.135)" fill="#fff"/>
    <path id="Path_297623" data-name="Path 297623" d="M2087.289,992.77v52.354h.616v-76h-.616v23.65Z" transform="translate(-1818.096 -844.135)" fill="#fff"/>
    <path id="Path_297624" data-name="Path 297624" d="M1968.391,992.77v52.354h.615v-76h-.615v23.65Z" transform="translate(-1714.532 -844.135)" fill="#fff"/>
    <path id="Path_297625" data-name="Path 297625" d="M1849.493,992.77v52.354h.615v-76h-.615v23.65Z" transform="translate(-1610.967 -844.135)" fill="#fff"/>
    <path id="Path_297626" data-name="Path 297626" d="M1730.592,1039.389v5.736h.615v-76h-.615v70.267Z" transform="translate(-1507.402 -844.136)" fill="#fff"/>
    <g id="Group_220265" data-name="Group 220265" transform="translate(0 0)">
      <g id="Group_220264" data-name="Group 220264" clip-path="url(#clip-path)">
        <path id="Path_297627" data-name="Path 297627" d="M1813.826,1099.968c0-14.142,10.855-24.258,25.464-24.258,8.108,0,14.876,2.946,19.3,8.31l-6.97,6.433a15.072,15.072,0,0,0-11.794-5.494c-8.779,0-15.01,6.16-15.01,15.01s6.231,15.01,15.01,15.01a14.938,14.938,0,0,0,11.794-5.565l6.97,6.433c-4.422,5.429-11.191,8.375-19.367,8.375-14.541,0-25.4-10.116-25.4-24.253" transform="translate(-1579.901 -936.977)" fill="#fff"/>
        <rect id="Rectangle_85853" data-name="Rectangle 85853" width="76.839" height="76.839" transform="translate(50.583 124.568)" fill="#764ff4"/>
        <path id="Path_297628" data-name="Path 297628" d="M467.283,1040.952H389.829V963.5h77.454Zm-76.839-.615h76.223V964.114H390.444Z" transform="translate(-339.553 -839.238)" fill="#86a7ff"/>
        <rect id="Rectangle_85854" data-name="Rectangle 85854" width="14.719" height="0.615" transform="translate(102.505 194.638)" fill="#fff"/>
        <rect id="Rectangle_85855" data-name="Rectangle 85855" width="14.719" height="0.615" transform="translate(56.503 194.638)" fill="#fff"/>
        <rect id="Rectangle_85856" data-name="Rectangle 85856" width="14.719" height="0.615" transform="translate(71.837 194.638)" fill="#fff"/>
        <rect id="Rectangle_85857" data-name="Rectangle 85857" width="14.719" height="0.615" transform="translate(87.171 194.638)" fill="#fff"/>
        <rect id="Rectangle_85858" data-name="Rectangle 85858" width="9.165" height="0.615" transform="translate(117.839 194.638)" fill="#fff"/>
        <rect id="Rectangle_85859" data-name="Rectangle 85859" width="4.886" height="0.615" transform="translate(51.001 194.638)" fill="#fff"/>
        <rect id="Rectangle_85860" data-name="Rectangle 85860" width="14.719" height="0.615" transform="translate(102.505 179.305)" fill="#fff"/>
        <rect id="Rectangle_85861" data-name="Rectangle 85861" width="14.719" height="0.615" transform="translate(71.837 179.305)" fill="#fff"/>
        <rect id="Rectangle_85862" data-name="Rectangle 85862" width="4.886" height="0.615" transform="translate(51.001 179.304)" fill="#fff"/>
        <rect id="Rectangle_85863" data-name="Rectangle 85863" width="9.165" height="0.615" transform="translate(117.839 179.305)" fill="#fff"/>
        <rect id="Rectangle_85864" data-name="Rectangle 85864" width="14.719" height="0.615" transform="translate(87.171 179.305)" fill="#fff"/>
        <rect id="Rectangle_85865" data-name="Rectangle 85865" width="14.719" height="0.615" transform="translate(56.503 179.305)" fill="#fff"/>
        <rect id="Rectangle_85866" data-name="Rectangle 85866" width="14.719" height="0.615" transform="translate(102.505 163.97)" fill="#fff"/>
        <rect id="Rectangle_85867" data-name="Rectangle 85867" width="14.719" height="0.615" transform="translate(87.171 163.97)" fill="#fff"/>
        <rect id="Rectangle_85868" data-name="Rectangle 85868" width="14.719" height="0.615" transform="translate(56.503 163.97)" fill="#fff"/>
        <rect id="Rectangle_85869" data-name="Rectangle 85869" width="14.719" height="0.615" transform="translate(71.837 163.97)" fill="#fff"/>
        <rect id="Rectangle_85870" data-name="Rectangle 85870" width="4.886" height="0.615" transform="translate(51.001 163.97)" fill="#fff"/>
        <rect id="Rectangle_85871" data-name="Rectangle 85871" width="9.165" height="0.615" transform="translate(117.839 163.97)" fill="#fff"/>
        <rect id="Rectangle_85872" data-name="Rectangle 85872" width="14.719" height="0.615" transform="translate(71.837 148.636)" fill="#fff"/>
        <rect id="Rectangle_85873" data-name="Rectangle 85873" width="9.165" height="0.615" transform="translate(117.839 148.636)" fill="#fff"/>
        <rect id="Rectangle_85874" data-name="Rectangle 85874" width="14.719" height="0.615" transform="translate(56.503 148.636)" fill="#fff"/>
        <rect id="Rectangle_85875" data-name="Rectangle 85875" width="14.719" height="0.615" transform="translate(87.171 148.636)" fill="#fff"/>
        <rect id="Rectangle_85876" data-name="Rectangle 85876" width="4.886" height="0.615" transform="translate(51.001 148.636)" fill="#fff"/>
        <rect id="Rectangle_85877" data-name="Rectangle 85877" width="14.719" height="0.615" transform="translate(102.505 148.636)" fill="#fff"/>
        <rect id="Rectangle_85878" data-name="Rectangle 85878" width="14.719" height="0.615" transform="translate(102.505 133.302)" fill="#fff"/>
        <rect id="Rectangle_85879" data-name="Rectangle 85879" width="4.886" height="0.615" transform="translate(51.001 133.302)" fill="#fff"/>
        <rect id="Rectangle_85880" data-name="Rectangle 85880" width="9.165" height="0.615" transform="translate(117.839 133.302)" fill="#fff"/>
        <rect id="Rectangle_85881" data-name="Rectangle 85881" width="14.719" height="0.615" transform="translate(87.171 133.302)" fill="#fff"/>
        <rect id="Rectangle_85882" data-name="Rectangle 85882" width="14.719" height="0.615" transform="translate(56.503 133.302)" fill="#fff"/>
        <rect id="Rectangle_85883" data-name="Rectangle 85883" width="14.719" height="0.615" transform="translate(71.837 133.302)" fill="#fff"/>
        <path id="Path_297629" data-name="Path 297629" d="M908.939,992.771v52.354h.615v-76h-.615v23.65Z" transform="translate(-791.715 -844.135)" fill="#fff"/>
        <path id="Path_297630" data-name="Path 297630" d="M790.039,992.771v52.354h.615v-76h-.615v23.65Z" transform="translate(-688.149 -844.135)" fill="#fff"/>
        <path id="Path_297631" data-name="Path 297631" d="M671.141,992.771v52.354h.615v-76h-.615v23.65Z" transform="translate(-584.585 -844.135)" fill="#fff"/>
        <path id="Path_297632" data-name="Path 297632" d="M552.243,992.771v52.354h.615v-76h-.615v23.65Z" transform="translate(-481.021 -844.135)" fill="#fff"/>
        <path id="Path_297633" data-name="Path 297633" d="M433.342,1039.389v5.736h.615v-76h-.615v70.267Z" transform="translate(-377.455 -844.136)" fill="#fff"/>
        <path id="Path_297634" data-name="Path 297634" d="M533.672,1110.41l-6.3,6.564v11.861H516.586v-46.907h10.787v21.912l20.775-21.912h12.061l-19.432,20.908,20.57,26H548.682Z" transform="translate(-449.963 -942.394)" fill="#fff"/>
        <path id="Path_297635" data-name="Path 297635" d="M2019.635,750.234c-.044-.1.162-.462.2-.551a3.017,3.017,0,0,1,.789-1.051,2.732,2.732,0,0,1,2.792-.3,2.9,2.9,0,0,1,1.293,1.122,13.524,13.524,0,0,1,.631,1.485,3.752,3.752,0,0,0,1.274,1.336,15.948,15.948,0,0,1,3.239,2.169,3.493,3.493,0,0,1,.846,2.776,4.137,4.137,0,0,1-1.734,2.619c-3.941,3.172-9.323-9.583-9.333-9.606" transform="translate(-1759.162 -651.607)" fill="#102048"/>
        <path id="Path_297636" data-name="Path 297636" d="M2002.656,819.541c.186-6.831-1.958-13.409-7.061-14.6-6.289,1.127-7.289,8.978-6.974,14.412a58.09,58.09,0,0,1,14.035.184" transform="translate(-1732.109 -701.134)" fill="#fbc343"/>
        <path id="Path_297637" data-name="Path 297637" d="M1975.528,804.945s-9.582,1.068-10,10.027l3.856,2.611Z" transform="translate(-1712.041 -701.133)" fill="#fbc343"/>
        <path id="Path_297638" data-name="Path 297638" d="M2028.426,902.644c-.492,3.213-4.271,3.717-6.874,4.222-1.25.246-2.5.443-3.773.615-1.224.172-2.455.308-3.685.431l-.585.055-.092-3.982-.05-2.05.333-.1c.732-.228,2.584-.794,4.677-1.354,3.109-.831,6.739-1.649,7.952-1.3a3.044,3.044,0,0,1,2.1,3.471" transform="translate(-1753.707 -783.138)" fill="#3a6bea"/>
        <path id="Path_297639" data-name="Path 297639" d="M1942.733,930.049l-5.473,5.028s5.962-.178,6.541-1.335Z" transform="translate(-1687.416 -810.102)" fill="#102048"/>
        <g id="Group_220260" data-name="Group 220260" transform="translate(259.708 117.237)" opacity="0.3">
          <g id="Group_220259" data-name="Group 220259">
            <g id="Group_220258" data-name="Group 220258" clip-path="url(#clip-path-3)">
              <path id="Path_297640" data-name="Path 297640" d="M2018.112,916.142c-1.224.172-2.455.308-3.686.431l-.585.055-.092-3.982.283-2.154c.732-.228,2.942-.9,5.034-1.457-.234,1.348-1.114,4.836-.954,7.107" transform="translate(-2013.749 -909.036)" fill="#102048"/>
            </g>
          </g>
        </g>
        <path id="Path_297641" data-name="Path 297641" d="M1980.943,1058.548s4.42-.237,6.5-2.848l-4.509-1.187Z" transform="translate(-1725.466 -918.515)" fill="#1f3c88"/>
        <path id="Path_297642" data-name="Path 297642" d="M1986.793,1045.807l1.592,7.821-6.308,1.943,1.954-4.013-.761-4.218Z" transform="translate(-1726.453 -910.931)" fill="#102048"/>
        <rect id="Rectangle_85885" data-name="Rectangle 85885" width="0.308" height="1.734" transform="matrix(0.175, -0.985, 0.985, 0.175, 257.551, 140.778)" fill="#fff"/>
        <path id="Path_297643" data-name="Path 297643" d="M1973.874,899.326h0a7.788,7.788,0,0,0-3.01,5.729c-.269,4.91-.464,13.591,1.142,17.855,0,0,3.115-3.471,6.5-2.848l.179-16.553,2.224-4.717Z" transform="translate(-1716.528 -782.877)" fill="#3a6bea"/>
        <path id="Path_297644" data-name="Path 297644" d="M2021.709,883.01a11.985,11.985,0,0,0-3.249,1.046,2.877,2.877,0,0,0-1.29,1.78h4.622l1.474.022,1.068-1.268-1.691-1.669Z" transform="translate(-1757.02 -769.052)" fill="#e28b6d"/>
        <path id="Path_297645" data-name="Path 297645" d="M2043.047,804.945s11.536,2.611,10.59,9.611c-.3,2.2-3.8,3.145-7.831,3.382a3.357,3.357,0,0,0-1.558-2.848l4.094-2.759Z" transform="translate(-1779.56 -701.133)" fill="#fbc343"/>
        <path id="Path_297646" data-name="Path 297646" d="M2027.855,784.111v3.575a1.426,1.426,0,0,0,2.851,0v-3.575Z" transform="translate(-1766.327 -682.986)" fill="#e28b6d"/>
        <path id="Path_297647" data-name="Path 297647" d="M2027.855,789.006v1.985a3.676,3.676,0,0,0,2.254-1.847Z" transform="translate(-1766.327 -687.249)" fill="#102048"/>
        <path id="Path_297648" data-name="Path 297648" d="M2018.866,754.441s-.664,4.024,1.133,4.1a3.75,3.75,0,0,0,2.3-.791,2.271,2.271,0,0,0,.929-1.781l.05-1.764-1.914-1.289a2.749,2.749,0,0,0-2.5,1.523" transform="translate(-1758.393 -655.815)" fill="#e28b6d"/>
        <path id="Path_297649" data-name="Path 297649" d="M2019.676,750.109s1.659-1.168,2.6.172c1.395,1.988,1.869,1.424,1.869,1.424l.67.4s.834-3.52-2.031-4.083c-2.188-.43-2.832,1.074-3.106,2.09" transform="translate(-1759.203 -651.483)" fill="#102048"/>
        <path id="Path_297650" data-name="Path 297650" d="M2046.343,769.48a.776.776,0,1,0,1.129-.443.869.869,0,0,0-1.129.443" transform="translate(-1782.298 -669.784)" fill="#e28b6d"/>
        <rect id="Rectangle_85886" data-name="Rectangle 85886" width="6.49" height="0.924" transform="translate(258.283 116.758)" fill="#1f3c88"/>
        <path id="Path_297651" data-name="Path 297651" d="M1951.965,863.217H1943l-2.389-7.3h8.963Z" transform="translate(-1690.336 -745.535)" fill="#1f3c88"/>
        <path id="Path_297652" data-name="Path 297652" d="M2051.887,862.147l-.164-.26,4.851-3.068.165.26Z" transform="translate(-1787.116 -748.059)" fill="#e49b31"/>
        <path id="Path_297653" data-name="Path 297653" d="M2026.294,829.331h-.017a2.169,2.169,0,0,1-1.806-.885l.252-.177a1.867,1.867,0,0,0,1.556.754,2.246,2.246,0,0,0,1.847-.909l.25.179a2.553,2.553,0,0,1-2.082,1.037" transform="translate(-1763.379 -721.314)" fill="#e49b31"/>
        <path id="Path_297654" data-name="Path 297654" d="M1691.96,549.885l-2.93-7.721a14.454,14.454,0,1,0-3.706,4.118Z" transform="translate(-1447.881 -453.252)" fill="#eb5d60"/>
        <path id="Path_297655" data-name="Path 297655" d="M1746.58,575.538l-.024-.642a5.438,5.438,0,0,1,1.456-3.879,4.547,4.547,0,0,0,1.432-2.568c0-.865-.567-1.433-1.8-1.482a4.667,4.667,0,0,0-2.446.741l-.841-2.692a8.485,8.485,0,0,1,4.125-1.012c3.262,0,4.743,1.8,4.743,3.853,0,1.877-1.161,3.112-2.1,4.15a4.243,4.243,0,0,0-1.261,3.087v.444Zm-.644,3.409a2.212,2.212,0,1,1,2.2,2.247,2.142,2.142,0,0,1-2.2-2.247" transform="translate(-1519.39 -491.265)" fill="#fff"/>
        <path id="Path_297656" data-name="Path 297656" d="M1190.2,895.168l1.036,9.137,8.41-.029-3.9-3.738-.676-4.895Z" transform="translate(-1036.701 -779.72)" fill="#102048"/>
        <path id="Path_297657" data-name="Path 297657" d="M1217.607,936.918l-.13-.279,1.961-.92.13.279Z" transform="translate(-1060.461 -815.041)" fill="#fff"/>
        <path id="Path_297658" data-name="Path 297658" d="M1061.592,895.168l-.356,9.107h-9.3l4.112-3.738.382-5.088Z" transform="translate(-916.27 -779.72)" fill="#102048"/>
        <path id="Path_297659" data-name="Path 297659" d="M1085.275,936.918l-1.961-.92.131-.279,1.96.92Z" transform="translate(-943.601 -815.041)" fill="#fff"/>
        <path id="Path_297660" data-name="Path 297660" d="M1085.984,615.459l-.172,1.822-.024.283-.185,1.994-.935,10.025-2.086,22.444a1.862,1.862,0,0,1-1.859,1.7H1076.7a1.871,1.871,0,0,1-1.871-1.926c.332-11.194.406-21.65,1.366-30.518.1-.991.221-1.963.351-2.911l4.9-1.514Z" transform="translate(-936.213 -536.084)" fill="#3a6bea"/>
        <path id="Path_297661" data-name="Path 297661" d="M1144.529,626.307c1.093,10.4,2.744,21.456,4.791,32.98a1.62,1.62,0,0,1-1.593,1.906h-4.951a1.62,1.62,0,0,1-1.6-1.375l-5.4-35.38Z" transform="translate(-989.299 -543.905)" fill="#3a6bea"/>
        <g id="Group_220263" data-name="Group 220263" transform="translate(139.986 80.772)" opacity="0.3">
          <g id="Group_220262" data-name="Group 220262">
            <g id="Group_220261" data-name="Group 220261" clip-path="url(#clip-path-4)">
              <path id="Path_297662" data-name="Path 297662" d="M1100.675,627.923l-5.84,1.071-2.394.437-7.01,1.286c.1-.991.222-1.963.351-2.911l4.9-1.514,1.311.215,3.028.492Z" transform="translate(-1085.431 -626.292)" fill="#102048"/>
            </g>
          </g>
        </g>
        <path id="Path_297663" data-name="Path 297663" d="M1133.894,698.2l-1.575-11.331-2.153-.489.068-.3,2.36.536,1.6,11.542Z" transform="translate(-984.411 -597.599)" fill="#102048"/>
        <path id="Path_297664" data-name="Path 297664" d="M1236.436,537.568s2.291-3.355,2.761-3.23c.624.166-.364,1.39-.364,1.39s1.9-2.046,2.215-1.792-.546,1.415-.546,1.415,1.113-1.247,1.453-.918-.956,1.833-.956,1.833.967-1.307,1.272-1.077-.813,1.672-.813,1.672.792-.662.954-.355-2.422,3.728-2.422,3.728l-3.09.17Z" transform="translate(-1076.976 -465.056)" fill="#f9b384"/>
        <path id="Path_297665" data-name="Path 297665" d="M1182.175,554.512l-3.13,3.73a16.879,16.879,0,0,0-.847-1.664,15.8,15.8,0,0,0-4.867,2.929c1.129,2.535,2.446,4.834,3.727,5.553,3.287,1.844,7.965-6.884,7.965-6.884Z" transform="translate(-1022.01 -482.997)" fill="#f9b384"/>
        <path id="Path_297666" data-name="Path 297666" d="M1149.486,527.252a75.8,75.8,0,0,0,3.075,8.51,15.8,15.8,0,0,1,4.867-2.929c-3.257-5.613-7.942-5.581-7.942-5.581" transform="translate(-1001.24 -459.253)" fill="#102048"/>
        <path id="Path_297667" data-name="Path 297667" d="M1102.829,540.356s-1.958-13.409-7.06-14.6c-6.289,1.127-8.147,9.043-7.831,14.477a138.488,138.488,0,0,1,14.891.118" transform="translate(-947.6 -457.954)" fill="#1f3c88"/>
        <path id="Path_297668" data-name="Path 297668" d="M1071.279,593.866s4.012-2.191,4.547-1.728-1.227,1.419-1.227,1.419,2.968-.775,3.12-.368-1.253,1.127-1.253,1.127,1.7-.656,1.83-.167-1.949,1.115-1.949,1.115,1.66-.635,1.819-.256-1.722,1.051-1.722,1.051,1.128-.151,1.107.217-4.706,1.421-4.706,1.421l-2.739-1.009Z" transform="translate(-932.096 -515.714)" fill="#f9b384"/>
        <path id="Path_297669" data-name="Path 297669" d="M1037.749,579.326s-1.635,3.726.267,5.31c2.136,1.78,9.166-2.344,9.166-2.344l-3.412-2.284a13.059,13.059,0,0,1,.8-3.724,15.848,15.848,0,0,0-4.352-.879,22.862,22.862,0,0,0-2.465,3.921" transform="translate(-903.343 -501.196)" fill="#f9b384"/>
        <path id="Path_297670" data-name="Path 297670" d="M1072.572,525.761s-6.242-.038-11.3,6.4a15.858,15.858,0,0,1,4.352.879c1.091-2.9,3.308-5.361,6.948-7.281" transform="translate(-924.403 -457.954)" fill="#1f3c88"/>
        <path id="Path_297671" data-name="Path 297671" d="M1094.177,551.874l-.293-.094a14.2,14.2,0,0,1,2.387-4.453l.242.19a13.874,13.874,0,0,0-2.336,4.357" transform="translate(-952.808 -476.739)" fill="#3a6bea"/>
        <rect id="Rectangle_85888" data-name="Rectangle 85888" width="2.629" height="0.308" transform="translate(149.312 72.926) rotate(-5.824)" fill="#3a6bea"/>
        <rect id="Rectangle_85889" data-name="Rectangle 85889" width="4.975" height="0.308" transform="translate(136.275 78.742) rotate(-19.384)" fill="#e28b6d"/>
        <rect id="Rectangle_85890" data-name="Rectangle 85890" width="3.103" height="0.308" transform="matrix(0.681, -0.732, 0.732, 0.681, 155.601, 76.554)" fill="#e28b6d"/>
        <path id="Path_297672" data-name="Path 297672" d="M1137.212,502.577v3.576a1.425,1.425,0,0,1-2.851,0v-3.576Z" transform="translate(-988.065 -437.76)" fill="#f9b384"/>
        <path id="Path_297673" data-name="Path 297673" d="M1141.243,507.472v1.985a3.674,3.674,0,0,1-2.254-1.847Z" transform="translate(-992.097 -442.024)" fill="#102048"/>
        <path id="Path_297674" data-name="Path 297674" d="M1134.825,472.911s.665,4.024-1.133,4.1a4.567,4.567,0,0,1-3.2-1.6l-.078-2.735,1.914-1.289Z" transform="translate(-984.624 -410.593)" fill="#f9b384"/>
        <path id="Path_297675" data-name="Path 297675" d="M1129.182,468.575s-1.465-1.074-2.461-.684-1.582.938-1.582,2.872l-1.094-.2s-.834-3.52,2.031-4.083c2.188-.43,2.833,1.074,3.106,2.09" transform="translate(-978.981 -406.258)" fill="#eb5d60"/>
        <path id="Path_297676" data-name="Path 297676" d="M1123.752,492.439a.871.871,0,1,1-1.327-.306.975.975,0,0,1,1.327.306" transform="translate(-977.427 -428.53)" fill="#f9b384"/>
        <path id="Path_297677" data-name="Path 297677" d="M817.167,411.271H797.86a2.347,2.347,0,0,0-2.347,2.347v9.871a2.347,2.347,0,0,0,2.347,2.347h10.77L815,430.759v-4.923h2.166a2.347,2.347,0,0,0,2.347-2.347v-9.871a2.347,2.347,0,0,0-2.347-2.347" transform="translate(-692.918 -358.23)" fill="#3a6bea"/>
        <path id="Path_297678" data-name="Path 297678" d="M835.966,455.443a1.591,1.591,0,1,1-1.592-1.592,1.591,1.591,0,0,1,1.592,1.592" transform="translate(-725.381 -395.318)" fill="#fff"/>
        <path id="Path_297679" data-name="Path 297679" d="M879.407,455.443a1.592,1.592,0,1,1-1.591-1.592,1.591,1.591,0,0,1,1.591,1.592" transform="translate(-763.219 -395.318)" fill="#fff"/>
        <path id="Path_297680" data-name="Path 297680" d="M922.847,455.443a1.592,1.592,0,1,1-1.591-1.592,1.591,1.591,0,0,1,1.591,1.592" transform="translate(-801.057 -395.318)" fill="#fff"/>
        <path id="Path_297681" data-name="Path 297681" d="M306.84,185.161H245.077a9.592,9.592,0,0,1,13.527-6.29,13.587,13.587,0,0,1,26.229.08,19.171,19.171,0,0,1,8.019-1.674c6.991,0,12.8,3.4,13.988,7.883" transform="translate(-213.47 -147.097)" fill="#fff"/>
        <path id="Path_297682" data-name="Path 297682" d="M304.58,183.389H242.023l.1-.382a9.9,9.9,0,0,1,13.629-6.647,13.9,13.9,0,0,1,26.625.085,19.649,19.649,0,0,1,7.819-1.554c7.032,0,13.04,3.411,14.286,8.112Zm-61.761-.615h60.948c-1.4-4.235-7.016-7.268-13.576-7.268a18.878,18.878,0,0,0-7.889,1.645l-.333.154-.094-.354a13.28,13.28,0,0,0-25.635-.078l-.1.36-.335-.165a9.284,9.284,0,0,0-12.988,5.705" transform="translate(-210.81 -145.018)" fill="#86a7ff"/>
        <path id="Path_297683" data-name="Path 297683" d="M1950.547,198.785H2002a8.12,8.12,0,0,0-7.747-6.49,7.511,7.511,0,0,0-3.522.874,11.14,11.14,0,0,0-21.849.071,15.065,15.065,0,0,0-6.68-1.495c-5.824,0-10.664,3.039-11.653,7.039" transform="translate(-1698.99 -160.483)" fill="#fff"/>
        <path id="Path_297684" data-name="Path 297684" d="M1999.733,197.014H1947.5l.095-.382c1.042-4.215,6.068-7.273,11.951-7.273a15.517,15.517,0,0,1,6.478,1.364,11.425,11.425,0,0,1,22.251-.076,7.757,7.757,0,0,1,3.323-.739,8.4,8.4,0,0,1,8.047,6.728ZM1948.3,196.4h50.65a7.759,7.759,0,0,0-7.351-5.874,7.163,7.163,0,0,0-3.379.838l-.345.183-.1-.379a10.833,10.833,0,0,0-21.253.07l-.093.372-.343-.171a14.769,14.769,0,0,0-6.543-1.462c-5.422,0-10.067,2.679-11.247,6.424" transform="translate(-1696.337 -158.404)" fill="#86a7ff"/>
        <path id="Path_297685" data-name="Path 297685" d="M2444.018,1493.672l1.939,8.659-8.791-.031,3.456-2.952-.93-4.233Z" transform="translate(-2122.85 -1301.036)" fill="#102048"/>
        <rect id="Rectangle_85891" data-name="Rectangle 85891" width="0.461" height="1.789" transform="translate(317.711 198.515) rotate(-62.101)" fill="#fff"/>
        <path id="Path_297686" data-name="Path 297686" d="M2609.669,1448.587l4.373,8.28-6.41,6.195.456-6.52-2.373-5.024Z" transform="translate(-2269.663 -1261.766)" fill="#102048"/>
        <path id="Path_297687" data-name="Path 297687" d="M2411.89,1252.13l.46,1.781s-4.6,8.522-4.037,12.448,5.509,13.646,5.509,13.646l6.512-.558-3.163-14.327,5.5-8.629-4.261-11.326Z" transform="translate(-2097.677 -1084.578)" fill="#fbc343"/>
        <path id="Path_297688" data-name="Path 297688" d="M2466.395,1257.926s6.647,15.007,15.113,25.054l-6.745,4.7c-6.293-7.226-12.13-17.483-18.375-28.283Z" transform="translate(-2139.594 -1095.693)" fill="#fbc343"/>
        <rect id="Rectangle_85892" data-name="Rectangle 85892" width="0.462" height="2.419" transform="translate(338.422 195.286) rotate(-88.904)" fill="#fff"/>
        <path id="Path_297689" data-name="Path 297689" d="M2479.213,1350.267l-3.177-14.389.035-.053,5.946-9.392.259.165-5.911,9.338,3.148,14.265Z" transform="translate(-2156.706 -1155.366)" fill="#e49b31"/>
        <path id="Path_297690" data-name="Path 297690" d="M2508.071,1332.983s.04,3.545-.063,5.443l-1.693-2.667Z" transform="translate(-2183.081 -1161.07)" fill="#e49b31"/>
        <path id="Path_297691" data-name="Path 297691" d="M2431.347,1313.871c-.04-.094-3.885-9.422-4.217-14.408-.2-3.007,3.373-11.495,3.687-12.237l-.4-2.83.3-.043.417,2.915-.018.04c-.039.09-3.881,9.129-3.681,12.135.329,4.937,4.156,14.218,4.194,14.311Z" transform="translate(-2114.1 -1118.713)" fill="#e49b31"/>
        <path id="Path_297692" data-name="Path 297692" d="M2417.992,1153.514l2.55-1.85-2.178-3.428-.861-.208-1.734,1.587.042.076,1.072,1.876Z" transform="translate(-2104.213 -999.968)" fill="#f9b384"/>
        <path id="Path_297693" data-name="Path 297693" d="M2417.167,1156.73a3.308,3.308,0,0,0,.518-2.775l-1.589.9Z" transform="translate(-2104.498 -1005.131)" fill="#102048"/>
        <path id="Path_297694" data-name="Path 297694" d="M2392.447,1128.563s1.347,4.722,3.093,4.1a3.821,3.821,0,0,0,2.11-2.811l-1.7-2.165-1.6-.377Z" transform="translate(-2083.898 -981.924)" fill="#f9b384"/>
        <path id="Path_297695" data-name="Path 297695" d="M2395.418,1151.792a.555.555,0,1,0,.171-.751.545.545,0,0,0-.171.751" transform="translate(-2086.413 -1002.512)" fill="#f9b384"/>
        <path id="Path_297696" data-name="Path 297696" d="M2386.042,1119.418s-.58-1.672-1.385-1.043-1.866,1.124-2.445.42a1.424,1.424,0,0,1,.59-1.99,13.925,13.925,0,0,1,1.445-.446c.5-.188.991-.416,1.509-.564a1.934,1.934,0,0,1,2.175.449c1.169,1.552,1.8,4.022,1.364,4.494s-2.086-1.451-2.608-1.025Z" transform="translate(-2074.789 -971.776)" fill="#102048"/>
        <path id="Path_297697" data-name="Path 297697" d="M2411.816,1139.176a.621.621,0,1,0,.393-.894.7.7,0,0,0-.393.894" transform="translate(-2100.742 -991.467)" fill="#f9b384"/>
        <path id="Path_297698" data-name="Path 297698" d="M2435.179,1179.351s-8.2,1.452-12.593,5.317a19.088,19.088,0,0,1-.891-2.856,37.776,37.776,0,0,1-.985-5.188c-.43-3.741-.123-7.625,2.578-8.671,5.656-2.191,11.89,11.4,11.89,11.4" transform="translate(-2108.379 -1017.116)" fill="#d3dfff"/>
        <path id="Path_297699" data-name="Path 297699" d="M2422.776,1225.711a37.782,37.782,0,0,1-.984-5.188l3.567-2.41a16.09,16.09,0,0,1-2.582,7.6" transform="translate(-2109.457 -1061.016)" fill="#86a7ff"/>
        <path id="Path_297700" data-name="Path 297700" d="M2291.531,1186.976l-2.282-.773s-1.129-5-1.594-4.034c-.58,1.2-.5,6.117-.456,7.938a1.064,1.064,0,0,0,.646.95l2.631,1.128,1.985-2.884Z" transform="translate(-1992.196 -1029.6)" fill="#f9b384"/>
        <path id="Path_297701" data-name="Path 297701" d="M2328.34,1174.1s-4.776,4.962-6.079,7.505l-8.373-1.551-1.054,5.21,7.75,2.254a5.847,5.847,0,0,0,2.028.219h0a5.85,5.85,0,0,0,4.234-2.261l4.47-5.793Z" transform="translate(-2014.552 -1022.679)" fill="#d3dfff"/>
        <rect id="Rectangle_85893" data-name="Rectangle 85893" width="12.485" height="12.485" transform="translate(322.605 121.761)" fill="#fff"/>
        <path id="Path_297702" data-name="Path 297702" d="M2512.157,954.827h-13.1v-13.1h13.1Zm-12.485-.615h11.87v-11.87h-11.87Z" transform="translate(-2176.76 -820.273)" fill="#86a7ff"/>
        <path id="Path_297703" data-name="Path 297703" d="M2528.766,968.228l-2.713-4.425.526-.322,2.143,3.5,3.326-6.417.547.284Z" transform="translate(-2200.275 -836.68)" fill="#86a7ff"/>
        <path id="Path_297704" data-name="Path 297704" d="M134.558,1272.7s.3,4.167-.292,4.391-.724-1.6-.724-1.6-.488,2.711-.889,2.654-.467-1.5-.467-1.5-.1,1.642-.563,1.535-.19-2.047-.19-2.047-.1,1.605-.484,1.566-.223-1.838-.223-1.838-.306.967-.608.789.626-4.509.626-4.509l1.889-1.62Z" transform="translate(-113.284 -1106.668)" fill="#f9b384"/>
        <path id="Path_297705" data-name="Path 297705" d="M142.4,1148.149s-5.221,1.965-7.074,17.4l3.733,1Z" transform="translate(-117.872 -1000.075)" fill="#e49b31"/>
        <path id="Path_297706" data-name="Path 297706" d="M211.387,1500.818l-.758,8.084h8.842l-4.126-3.536.674-4.631Z" transform="translate(-183.465 -1307.187)" fill="#102048"/>
        <rect id="Rectangle_85894" data-name="Rectangle 85894" width="1.846" height="0.462" transform="translate(30.143 198.844) rotate(-28.096)" fill="#fff"/>
        <path id="Path_297707" data-name="Path 297707" d="M153.276,1500.818l-.758,8.084h8.842l-4.126-3.536.674-4.631Z" transform="translate(-132.848 -1307.187)" fill="#102048"/>
        <rect id="Rectangle_85895" data-name="Rectangle 85895" width="2.003" height="0.461" transform="matrix(0.855, -0.519, 0.519, 0.855, 22.554, 199.02)" fill="#fff"/>
        <path id="Path_297708" data-name="Path 297708" d="M190.742,1235.431s1.591,5.15,3.093,9.182a17.18,17.18,0,0,1,1.021,7.4c-.4,4.915-1.249,12.99-2.738,17.607l-7.523-.337,1.347-18.75-4.042-17.066Z" transform="translate(-158.441 -1074.388)" fill="#7d69ed"/>
        <path id="Path_297709" data-name="Path 297709" d="M148.689,1242.065s-1.81,24.5-1.558,32.925l7.158.169,2.779-22.062-4.21-12.884Z" transform="translate(-128.135 -1080.264)" fill="#7d69ed"/>
        <path id="Path_297710" data-name="Path 297710" d="M182.259,1336.978l-.307-.021,1.345-18.724-1.74-6.409-2.515-.346.042-.305,2.716.373,1.807,6.656,0,.026Z" transform="translate(-155.952 -1142.074)" fill="#102048"/>
        <path id="Path_297711" data-name="Path 297711" d="M232.345,1282.418l-.3-.059c.027-.139,2.686-13.893,2.382-19.5s-4.179-14.4-4.218-14.485l.281-.126c.039.09,3.938,8.938,4.244,14.594s-2.361,19.439-2.387,19.577" transform="translate(-200.518 -1087.263)" fill="#102048"/>
        <path id="Path_297712" data-name="Path 297712" d="M195.7,1129.147l-3.038-.142-.058-3.921.585-.624,2.24.362.006.084.129,2.082Z" transform="translate(-167.764 -979.44)" fill="#f9b384"/>
        <path id="Path_297713" data-name="Path 297713" d="M202.813,1130a3.2,3.2,0,0,1-1.888-1.965l1.758-.117Z" transform="translate(-175.012 -982.453)" fill="#102048"/>
        <path id="Path_297714" data-name="Path 297714" d="M197.24,1096.094s1.414,4.526-.323,4.95a3.69,3.69,0,0,1-3.192-1.151l.222-2.647,1.091-1.152Z" transform="translate(-168.741 -954.733)" fill="#f9b384"/>
        <path id="Path_297715" data-name="Path 297715" d="M221.74,1111.02a.536.536,0,1,1-.535-.515.526.526,0,0,1,.535.515" transform="translate(-192.21 -967.285)" fill="#f9b384"/>
        <path id="Path_297716" data-name="Path 297716" d="M186.456,1087.452s-.417-1.657.566-1.575,2.1-.081,2.2-.956a1.4,1.4,0,0,0-2.465-.808s-3.381-.094-3.5,1.778.673,4.2,1.279,4.35.916-2.276,1.562-2.209Z" transform="translate(-159.606 -943.848)" fill="#102048"/>
        <path id="Path_297717" data-name="Path 297717" d="M201.785,1109.532a.6.6,0,1,1-.791-.514.676.676,0,0,1,.791.514" transform="translate(-174.756 -965.968)" fill="#f9b384"/>
        <path id="Path_297718" data-name="Path 297718" d="M170.992,1158.812a.1.1,0,0,1-.031-.006,32,32,0,0,0-3.649-.338,19.75,19.75,0,0,0-8.068,1.1c-.123.056.123-13.89,5.348-14.062s6.4,13.305,6.4,13.305" transform="translate(-138.688 -997.772)" fill="#fbc343"/>
        <path id="Path_297719" data-name="Path 297719" d="M218.791,1178.58a31.943,31.943,0,0,0-3.649-.338,18.288,18.288,0,0,1-.563-10.034Z" transform="translate(-186.517 -1017.545)" fill="#e49b31"/>
        <path id="Path_297720" data-name="Path 297720" d="M263.662,1264.875s3.018,3.256,2.681,3.845-1.656-.841-1.656-.841,1.4,2.582,1.039,2.807-1.375-.926-1.375-.926,1.011,1.431.561,1.656-1.516-1.572-1.516-1.572.983,1.4.646,1.628-1.4-1.375-1.4-1.375.393,1.011.028,1.067-2.414-4.056-2.414-4.056l.393-2.737Z" transform="translate(-226.688 -1101.307)" fill="#f9b384"/>
        <path id="Path_297721" data-name="Path 297721" d="M206.712,1145.972s3.514.014,5.389,4.112c1.137,2.484,2.568,7.579,4.926,11.663l-3.41,2.231s-5.277-7.34-5.726-13.908Z" transform="translate(-180.053 -998.178)" fill="#fbc343"/>
        <path id="Path_297722" data-name="Path 297722" d="M54.039,946.643l-1.466-3.864a7.235,7.235,0,1,0-1.855,2.061Z" transform="translate(-34.121 -811.685)" fill="#fff"/>
        <path id="Path_297723" data-name="Path 297723" d="M52.542,945.23l-3.878-2.105a7.444,7.444,0,0,1-4.355,1.4,7.541,7.541,0,1,1,6.525-3.795Zm-8.234-15.135a6.906,6.906,0,1,0,0,13.813,6.844,6.844,0,0,0,4.145-1.392l.158-.119,2.767,1.5-1.225-3.228.077-.128a6.9,6.9,0,0,0-5.922-10.447" transform="translate(-32.042 -809.605)" fill="#86a7ff"/>
        <path id="Path_297724" data-name="Path 297724" d="M64.681,982.082a.9.9,0,1,1-.9-.9.9.9,0,0,1,.9.9" transform="translate(-54.778 -854.644)" fill="#86a7ff"/>
        <path id="Path_297725" data-name="Path 297725" d="M89.135,982.082a.9.9,0,1,1-.9-.9.9.9,0,0,1,.9.9" transform="translate(-76.079 -854.644)" fill="#86a7ff"/>
        <path id="Path_297726" data-name="Path 297726" d="M113.591,982.082a.9.9,0,1,1-.9-.9.9.9,0,0,1,.9.9" transform="translate(-97.381 -854.644)" fill="#86a7ff"/>
        <rect id="Rectangle_85896" data-name="Rectangle 85896" width="360" height="0.923" transform="translate(0 200.945)" fill="#102048"/>
      </g>
    </g>
  </g>
</svg>
