<svg id="Group_220636" data-name="Group 220636" xmlns="http://www.w3.org/2000/svg" width="54" height="54" viewBox="0 0 54 54">
  <path id="Path_297903" data-name="Path 297903" d="M0,0H54V54H0Z" fill="none"/>
  <path id="Path_297904" data-name="Path 297904" d="M8.5,6.5H4V2H40V6.5H35.5V11c0,3.635-1.836,6.558-4.149,8.948A41.472,41.472,0,0,1,25.895,24.5a41.477,41.477,0,0,1,5.457,4.552C33.664,31.442,35.5,34.365,35.5,38v4.5H40V47H4V42.5H8.5V38c0-3.635,1.836-6.558,4.149-8.948A41.483,41.483,0,0,1,18.105,24.5a41.478,41.478,0,0,1-5.457-4.552C10.336,17.558,8.5,14.635,8.5,11Zm4.5,0V11a7.3,7.3,0,0,0,1.735,4.5H29.265A7.3,7.3,0,0,0,31,11V6.5Zm9,20.749a43.574,43.574,0,0,0-6.118,4.933A15.391,15.391,0,0,0,14.735,33.5H29.265a15.415,15.415,0,0,0-1.147-1.318A43.574,43.574,0,0,0,22,27.249Z" transform="translate(5 2.5)" fill="#a07bff"/>
</svg>
