<svg xmlns="http://www.w3.org/2000/svg" width="95" height="85" viewBox="0 0 95 85">
  <g id="Group_220096" data-name="Group 220096" transform="translate(-505 -752)">
    <rect id="Rectangle_85187" data-name="Rectangle 85187" width="95" height="85" rx="8" transform="translate(505 752)" fill="#fff7e6"/>
    <g id="noun-on-track-2430293" transform="translate(520 770)">
      <g id="Group_220093" data-name="Group 220093" transform="translate(0 0)">
        <path id="Path_297200" data-name="Path 297200" d="M87.436,103.106a1.354,1.354,0,0,1-.7-.21l-.912-.7a1.151,1.151,0,0,1,1.4-1.824l.912.7a1.127,1.127,0,0,1-.7,2.035ZM47.655,100.44a1.2,1.2,0,0,1-1.123-.842,1.147,1.147,0,0,1,.842-1.4,7.445,7.445,0,0,0,2.385-1.123,1.158,1.158,0,1,1,1.333,1.894,11,11,0,0,1-3.157,1.544C47.865,100.44,47.795,100.44,47.655,100.44Zm-6.034-.561a1.3,1.3,0,0,1-.491-.14,12.356,12.356,0,0,1-1.614-.982l-1.123-.842a1.151,1.151,0,1,1,1.4-1.824l1.123.842a6.951,6.951,0,0,0,1.193.772,1.18,1.18,0,0,1,.561,1.544A1.158,1.158,0,0,1,41.621,99.879Zm39.921-1.263a1.354,1.354,0,0,1-.7-.21l-2.456-1.894a1.151,1.151,0,1,1,1.4-1.824l2.456,1.894a1.127,1.127,0,0,1-.7,2.035Zm-26.17-3.227a1.127,1.127,0,0,1-.7-2.035l2.456-1.894a1.151,1.151,0,1,1,1.4,1.824l-2.456,1.894A2.059,2.059,0,0,1,55.372,95.388Zm-21.259-.982a1.354,1.354,0,0,1-.7-.21L30.956,92.3a1.151,1.151,0,0,1,1.4-1.824l2.456,1.894a1.127,1.127,0,0,1-.7,2.035ZM74.175,93a1.354,1.354,0,0,1-.7-.21L71.018,90.9a1.151,1.151,0,0,1,1.4-1.824l2.456,1.894a1.127,1.127,0,0,1-.7,2.035Zm-47.429-4.21a1.354,1.354,0,0,1-.7-.21l-2.456-1.894A1.226,1.226,0,0,1,23.309,85a1.137,1.137,0,0,1,1.614-.21l2.456,1.894a1.137,1.137,0,0,1,.21,1.614A1.07,1.07,0,0,1,26.747,88.793Z" transform="translate(-23.094 -53.993)" fill="#e2a126"/>
        <path id="Path_297201" data-name="Path 297201" d="M90,53.208a12.349,12.349,0,0,0-24.7,0c0,6.034,9.051,16.768,11.156,19.154v2.6H75.4A1.183,1.183,0,0,0,74.21,76.15,1.229,1.229,0,0,0,75.4,77.343h4.49a1.183,1.183,0,0,0,1.193-1.193,1.229,1.229,0,0,0-1.193-1.193H78.841v-2.6C80.946,69.976,90,59.241,90,53.208ZM77.648,43.245a9.956,9.956,0,0,1,9.963,9.963c0,4.28-6.525,12.769-9.963,16.839-3.438-4-9.963-12.559-9.963-16.839a10.094,10.094,0,0,1,9.963-9.963Z" transform="translate(-35.688 -40.999)" fill="#e2a126"/>
        <path id="Path_297202" data-name="Path 297202" d="M86.206,56.353a5.753,5.753,0,1,0-5.753,5.753,5.779,5.779,0,0,0,5.753-5.753Zm-9.121,0a3.368,3.368,0,1,1,3.368,3.368,3.415,3.415,0,0,1-3.368-3.368Z" transform="translate(-38.493 -43.864)" fill="#e2a126"/>
      </g>
    </g>
  </g>
</svg>
