<svg xmlns="http://www.w3.org/2000/svg" xmlns:xlink="http://www.w3.org/1999/xlink" width="237" height="248" viewBox="0 0 237 248">
  <defs>
    <clipPath id="clip-path">
      <rect id="Rectangle_24425" data-name="Rectangle 24425" width="237" height="248" transform="translate(13182 846)" fill="#fff"/>
    </clipPath>
  </defs>
  <g id="Mask_Group_2" data-name="Mask Group 2" transform="translate(-13182 -846)" clip-path="url(#clip-path)">
    <g id="Group_21973" data-name="Group 21973" transform="translate(13190.91 854.91)">
      <g id="freepik--Information--inject-103" transform="translate(181.73 22.346)">
        <path id="Path_71129" data-name="Path 71129" d="M427.033,93.9H389.59V90.88h37.443Zm-36.927-.532h36.4V91.412h-36.38Z" transform="translate(-389.569 -83.031)" fill="#fff"/>
        <path id="Path_71130" data-name="Path 71130" d="M408.421,103.251H389.59V100.23h18.831Zm-18.278-.532h17.746v-1.957H390.122Z" transform="translate(-389.569 -87.409)" fill="#fff"/>
        <path id="Path_71131" data-name="Path 71131" d="M415.076,112.6H389.55V109.58h25.526Zm-24.994-.532h24.462v-1.952H390.082Z" transform="translate(-389.55 -91.786)" fill="#fff"/>
        <path id="Path_71132" data-name="Path 71132" d="M405.514,121.945H389.56V118.93h15.954Zm-15.422-.532h14.89v-1.952h-14.89Z" transform="translate(-389.555 -96.164)" fill="#fff"/>
        <path id="Path_71133" data-name="Path 71133" d="M418.408,131.345H389.59V128.33h28.818Zm-28.286-.532h27.754v-1.952H390.122Z" transform="translate(-389.569 -100.565)" fill="#fff"/>
        <path id="Path_71134" data-name="Path 71134" d="M409.755,140.641H389.59V137.62h20.165Zm-19.634-.532h19.1v-1.957h-19.1Z" transform="translate(-389.569 -104.915)" fill="#fff"/>
        <path id="Path_71135" data-name="Path 71135" d="M412.143,150H389.59v-3h22.553Zm-22.027-.532h21.495v-1.941h-21.49Z" transform="translate(-389.569 -109.307)" fill="#fff"/>
        <rect id="Rectangle_24364" data-name="Rectangle 24364" width="18.581" height="0.532" transform="translate(0.612 3.127)" fill="#fff"/>
        <rect id="Rectangle_24365" data-name="Rectangle 24365" width="18.581" height="0.532" transform="translate(0.612 0)" fill="#fff"/>
      </g>
      <g id="freepik--profile-3--inject-103" transform="translate(64.306 141.344)">
        <rect id="Rectangle_24366" data-name="Rectangle 24366" width="42.235" height="0.532" transform="translate(38.028 34.359)" fill="#fff"/>
        <rect id="Rectangle_24367" data-name="Rectangle 24367" width="2.829" height="2.829" transform="translate(32.881 32.822)" fill="#fff"/>
        <rect id="Rectangle_24368" data-name="Rectangle 24368" width="42.235" height="0.532" transform="translate(38.028 40.538)" fill="#fff"/>
        <rect id="Rectangle_24369" data-name="Rectangle 24369" width="2.829" height="2.829" transform="translate(32.881 38.996)" fill="#fff"/>
        <rect id="Rectangle_24370" data-name="Rectangle 24370" width="42.235" height="0.532" transform="translate(38.028 46.712)" fill="#fff"/>
        <rect id="Rectangle_24371" data-name="Rectangle 24371" width="2.829" height="2.829" transform="translate(32.881 45.17)" fill="#fff"/>
        <rect id="Rectangle_24372" data-name="Rectangle 24372" width="42.235" height="0.532" transform="translate(38.028 52.886)" fill="#fff"/>
        <rect id="Rectangle_24373" data-name="Rectangle 24373" width="2.829" height="2.829" transform="translate(32.881 51.35)" fill="#fff"/>
        <path id="Path_71136" data-name="Path 71136" d="M272.971,364.742H168.74V299.89H272.971Zm-103.7-.532H272.439V300.422H169.272Z" transform="translate(-168.74 -299.89)" fill="#fff"/>
        <path id="Path_71137" data-name="Path 71137" d="M272.971,305.591H168.74v-5.7H272.971Zm-103.7-.532H272.439v-4.637H169.272Z" transform="translate(-168.74 -299.89)" fill="#fff"/>
        <rect id="Rectangle_24374" data-name="Rectangle 24374" width="0.532" height="58.242" transform="translate(27.169 5.796)" fill="#fff"/>
        <path id="Path_71138" data-name="Path 71138" d="M191.159,335.027a4.573,4.573,0,1,1,4.568-4.568A4.573,4.573,0,0,1,191.159,335.027Zm0-8.61a4.042,4.042,0,1,0,4.036,4.042A4.042,4.042,0,0,0,191.159,326.417Z" transform="translate(-177.093 -312.059)" fill="#fff"/>
        <path id="Path_71139" data-name="Path 71139" d="M191.159,368.947a4.573,4.573,0,1,1,4.568-4.573,4.573,4.573,0,0,1-4.568,4.573Zm0-8.615a4.068,4.068,0,1,0,0-.005Z" transform="translate(-177.093 -327.941)" fill="#fff"/>
        <path id="Path_71140" data-name="Path 71140" d="M191.159,402.837a4.573,4.573,0,1,1,4.568-4.573,4.573,4.573,0,0,1-4.568,4.573Zm0-8.615a4.042,4.042,0,1,0,4.036,4.042A4.042,4.042,0,0,0,191.159,394.222Z" transform="translate(-177.093 -343.808)" fill="#fff"/>
        <rect id="Rectangle_24375" data-name="Rectangle 24375" width="37.225" height="0.532" transform="translate(32.748 13.688)" fill="#fff"/>
        <rect id="Rectangle_24376" data-name="Rectangle 24376" width="37.225" height="0.532" transform="translate(32.748 18.9)" fill="#fff"/>
        <rect id="Rectangle_24377" data-name="Rectangle 24377" width="37.225" height="0.532" transform="translate(32.748 24.111)" fill="#fff"/>
      </g>
      <g id="freepik--profile-1--inject-103" transform="translate(16.386)">
        <path id="Path_71141" data-name="Path 71141" d="M150.422,173.9H78.63V68.31h71.792Zm-71.26-.532H149.89V68.842H79.162Z" transform="translate(-78.63 -50.117)" fill="#fff"/>
        <rect id="Rectangle_24378" data-name="Rectangle 24378" width="48.09" height="0.532" transform="translate(10.45 81.364)" fill="#fff"/>
        <rect id="Rectangle_24379" data-name="Rectangle 24379" width="48.09" height="0.532" transform="translate(10.45 86.256)" fill="#fff"/>
        <rect id="Rectangle_24380" data-name="Rectangle 24380" width="42.235" height="0.532" transform="translate(16.31 94.488)" fill="#fff"/>
        <rect id="Rectangle_24381" data-name="Rectangle 24381" width="2.829" height="2.829" transform="translate(11.162 92.946)" fill="#fff"/>
        <rect id="Rectangle_24382" data-name="Rectangle 24382" width="42.235" height="0.532" transform="translate(16.31 100.662)" fill="#fff"/>
        <rect id="Rectangle_24383" data-name="Rectangle 24383" width="2.829" height="2.829" transform="translate(11.162 99.125)" fill="#fff"/>
        <rect id="Rectangle_24384" data-name="Rectangle 24384" width="42.235" height="0.532" transform="translate(16.31 106.836)" fill="#fff"/>
        <rect id="Rectangle_24385" data-name="Rectangle 24385" width="2.829" height="2.829" transform="translate(11.162 105.3)" fill="#fff"/>
        <rect id="Rectangle_24386" data-name="Rectangle 24386" width="42.235" height="0.532" transform="translate(16.31 113.01)" fill="#fff"/>
        <rect id="Rectangle_24387" data-name="Rectangle 24387" width="2.829" height="2.829" transform="translate(11.162 111.474)" fill="#fff"/>
        <path id="Path_71142" data-name="Path 71142" d="M168.173,70.852l-.463-.266L188.79,34.1h5.27v.532H189.1Z" transform="translate(-120.338 -34.1)" fill="#fff"/>
        <rect id="Rectangle_24388" data-name="Rectangle 24388" width="12.928" height="0.532" transform="translate(78.572 0.271)" fill="#fff"/>
        <rect id="Rectangle_24389" data-name="Rectangle 24389" width="12.928" height="0.532" transform="translate(78.572 3.504)" fill="#fff"/>
        <rect id="Rectangle_24390" data-name="Rectangle 24390" width="12.928" height="0.532" transform="translate(78.572 6.732)" fill="#fff"/>
        <rect id="Rectangle_24391" data-name="Rectangle 24391" width="42.235" height="0.532" transform="translate(16.31 72.153)" fill="#fff"/>
        <rect id="Rectangle_24392" data-name="Rectangle 24392" width="2.829" height="2.829" transform="translate(11.162 70.611)" fill="#fff"/>
        <rect id="Rectangle_24393" data-name="Rectangle 24393" width="42.235" height="0.532" transform="translate(16.31 63.645)" fill="#fff"/>
        <rect id="Rectangle_24394" data-name="Rectangle 24394" width="2.829" height="2.829" transform="translate(11.162 62.102)" fill="#fff"/>
        <rect id="Rectangle_24395" data-name="Rectangle 24395" width="42.235" height="0.532" transform="translate(16.31 55.136)" fill="#fff"/>
        <rect id="Rectangle_24396" data-name="Rectangle 24396" width="2.829" height="2.829" transform="translate(11.162 53.594)" fill="#fff"/>
        <rect id="Rectangle_24397" data-name="Rectangle 24397" width="42.235" height="0.532" transform="translate(16.31 46.627)" fill="#fff"/>
        <rect id="Rectangle_24398" data-name="Rectangle 24398" width="2.829" height="2.829" transform="translate(11.162 45.085)" fill="#fff"/>
        <rect id="Rectangle_24399" data-name="Rectangle 24399" width="42.235" height="0.532" transform="translate(16.31 38.119)" fill="#fff"/>
        <rect id="Rectangle_24400" data-name="Rectangle 24400" width="2.829" height="2.829" transform="translate(11.162 36.576)" fill="#fff"/>
      </g>
      <g id="freepik--character-1--inject-103" transform="translate(0 85.767)">
        <path id="Path_71143" data-name="Path 71143" d="M174.826,222.052a8.3,8.3,0,1,1,8.3-8.3A8.3,8.3,0,0,1,174.826,222.052Zm0-15.528a7.232,7.232,0,1,0,7.232,7.232,7.232,7.232,0,0,0-7.232-7.232Z" transform="translate(-103.399 -200.1)" fill="#fff"/>
        <rect id="Rectangle_24401" data-name="Rectangle 24401" width="1.595" height="13.975" transform="matrix(0.8, -0.6, 0.6, 0.8, 75.139, 20.968)" fill="#fff"/>
        <path id="Path_71144" data-name="Path 71144" d="M150.288,206.658a9.716,9.716,0,0,1,.436,3.132c-.09,1.569.085,3.829.532,4.18s1.654,1.218,1.3,1.914a2.547,2.547,0,0,1-1.127,1.064,16.63,16.63,0,0,1-1.308,3.914c-.872,1.654-1.478,2.787-2.521,2.872a3.723,3.723,0,0,1-1.654-.17l-1.143,1.117-8.615-1.824.261-3.829a20.477,20.477,0,0,1-2.611-8.966c0-4.526,4.611-7.131,7.312-7.307S148.895,203.7,150.288,206.658Z" transform="translate(-88.093 -198.825)" fill="#fff"/>
        <path id="Path_71145" data-name="Path 71145" d="M144.656,224.734l-8.982-1.877.271-3.978a20.487,20.487,0,0,1-2.606-9.04c0-4.717,4.845-7.4,7.562-7.573,2.526-.16,7.881.862,9.391,4.068v.032a9.89,9.89,0,0,1,.452,3.228c-.106,1.835.149,3.723.42,3.957l.117.09c.585.457,1.675,1.314,1.26,2.127a2.786,2.786,0,0,1-1.133,1.106,16.437,16.437,0,0,1-1.308,3.861c-.888,1.691-1.532,2.909-2.733,3.01a4.323,4.323,0,0,1-1.6-.133Zm-8.418-2.329,8.248,1.75L145.64,223l.165.074a3.723,3.723,0,0,0,1.526.154c.872-.074,1.42-1.037,2.313-2.733a16.364,16.364,0,0,0,1.276-3.84v-.138l.128-.059a2.281,2.281,0,0,0,1-.92c.223-.441-.745-1.2-1.111-1.489l-.117-.1c-.622-.495-.691-3.228-.622-4.4a9.424,9.424,0,0,0-.42-3.021c-1.287-2.7-6.057-3.93-8.87-3.749-2.537.165-7.062,2.659-7.062,7.041a20.4,20.4,0,0,0,2.574,8.828l.043.074Z" transform="translate(-87.859 -198.597)" fill="#263238"/>
        <path id="Path_71146" data-name="Path 71146" d="M151.131,201.23a3.722,3.722,0,0,1-.7,2.436c-.867,1.308-3.217,1.744-3.217,1.744a7.129,7.129,0,0,1-.612,2.7,5.36,5.36,0,0,1-1.739,1.393,1.477,1.477,0,0,0-1.218,2.085c.521,1.914.957,2.175.085,3.723s-6,3.653-7.743,2.436-3.047-1.824-4.089-5.483-2.09-8.785.872-12.268,9.657-2.611,9.657-2.611-1.739-1.654.7-1.563a6.488,6.488,0,0,1,4.089,1.824s.261-1.739,1.563-1.3S150.966,200.284,151.131,201.23Z" transform="translate(-86.686 -195.583)" fill="#263238"/>
        <path id="Path_71147" data-name="Path 71147" d="M137.256,218.2a2.824,2.824,0,0,1-1.622-.415l-.447-.308c-1.542-1.064-2.765-1.893-3.723-5.318-1.138-3.983-2.063-9,.925-12.513,2.5-2.941,7.445-2.888,9.242-2.765a1.064,1.064,0,0,1-.2-.968c.165-.394.659-.569,1.521-.532a6.669,6.669,0,0,1,3.935,1.6,1.813,1.813,0,0,1,.7-.973,1.228,1.228,0,0,1,1.064-.085c1.665.532,2.521,5.031,2.526,5.073h0a4.015,4.015,0,0,1-.739,2.622,5.628,5.628,0,0,1-3.191,1.813,6.591,6.591,0,0,1-.638,2.627,5.451,5.451,0,0,1-1.845,1.478l-.09.027a1.415,1.415,0,0,0-.893.532,1.468,1.468,0,0,0-.1,1.244c.106.388.207.707.3.978a2.88,2.88,0,0,1-.234,2.962c-.564,1.016-2.755,2.244-4.887,2.733a7.471,7.471,0,0,1-1.611.191Zm3.154-20.82c-2.159,0-5.733.372-7.636,2.611-2.824,3.318-1.92,8.168-.819,12.024.925,3.239,2.021,3.988,3.536,5.025l.452.308a3.777,3.777,0,0,0,2.818.128c1.936-.447,4.058-1.6,4.541-2.473a2.423,2.423,0,0,0,.191-2.542c-.09-.282-.2-.606-.3-1a1.962,1.962,0,0,1,.17-1.691,1.883,1.883,0,0,1,1.223-.729,4.946,4.946,0,0,0,1.6-1.282,6.86,6.86,0,0,0,.564-2.563V205l.207-.043s2.249-.431,3.047-1.6a3.558,3.558,0,0,0,.654-2.249c-.239-1.319-1.117-4.313-2.17-4.664a.755.755,0,0,0-.649.037,1.707,1.707,0,0,0-.574,1.064l-.08.532-.372-.388a6.28,6.28,0,0,0-3.909-1.744c-.867-.032-.994.17-1.01.213-.08.186.25.649.505.893l.59.532-.8-.1a15.235,15.235,0,0,0-1.771-.1Z" transform="translate(-86.473 -195.381)" fill="#263238"/>
        <path id="Path_71148" data-name="Path 71148" d="M155.854,222.263s-1.478-2.781-2.611-1.739,0,6.61,1.914,5.568" transform="translate(-96.967 -207.044)" fill="#fff"/>
        <path id="Path_71149" data-name="Path 71149" d="M154.455,226.307a1.484,1.484,0,0,1-1.175-.734c-.973-1.356-1.388-4.557-.447-5.43a1.064,1.064,0,0,1,.92-.287c1.064.181,2,1.9,2.127,2.1l-.468.25c-.25-.468-1.064-1.712-1.728-1.829a.532.532,0,0,0-.468.16c-.681.622-.367,3.494.532,4.722.532.729.947.495,1.09.415l.255.468A1.234,1.234,0,0,1,154.455,226.307Z" transform="translate(-96.738 -206.834)" fill="#263238"/>
        <rect id="Rectangle_24402" data-name="Rectangle 24402" width="7.046" height="0.532" transform="translate(58.191 13.661)" fill="#263238"/>
        <path id="Path_71150" data-name="Path 71150" d="M167.282,221.948l-.319-.425a1.952,1.952,0,0,0,.734-2.031,1.914,1.914,0,0,0-1.383-1.425,1.978,1.978,0,0,0-1.276.09l-.207-.495a2.542,2.542,0,0,1,1.6-.112,2.489,2.489,0,0,1,.835,4.4Z" transform="translate(-102.603 -205.724)" fill="#263238"/>
        <path id="Path_71151" data-name="Path 71151" d="M143.926,242.945s0-1.941-2.553-3.4-7.658-3.4-9.971-3.191-3.643,3.526-3.643,3.526,9.115.851,11.3,1.335a30.369,30.369,0,0,1,4.866,1.728Z" transform="translate(-85.247 -214.558)" fill="#fff"/>
        <path id="Path_71152" data-name="Path 71152" d="M143.879,243.148l-.378-.17a29.929,29.929,0,0,0-4.786-1.686c-2.127-.473-11.168-1.324-11.269-1.329l-.356-.032.138-.335c.053-.138,1.42-3.43,3.861-3.685s7.5,1.691,10.1,3.191,2.691,3.547,2.691,3.632Zm-16.033-3.68c1.76.165,9.009.872,10.96,1.308a28.189,28.189,0,0,1,4.472,1.521,4.55,4.55,0,0,0-2.35-2.733c-2.5-1.431-7.578-3.366-9.806-3.127-1.707.181-2.877,2.218-3.276,3.031Z" transform="translate(-84.933 -214.346)" fill="#263238"/>
        <path id="Path_71153" data-name="Path 71153" d="M68.564,272.53s-2.914,3.4-6.807,8.269-7.046,9.843-7.046,9.843-3.648,3.159-4.132,4.494-1.7,5.227-2.191,6.323,1.7-.367,2.069-1.218a12.714,12.714,0,0,1,.729-1.457l3.159-1.457s-.973,2.43,0,2.792,1.1-1.335,2.186-2.659,2.069-2.313,2.191-3.893a25.525,25.525,0,0,0,0-3.281l15.555-10.1Z" transform="translate(-48.05 -231.503)" fill="#fff"/>
        <path id="Path_71154" data-name="Path 71154" d="M48.228,301.739a.4.4,0,0,1-.335-.154.638.638,0,0,1,0-.606c.3-.675.893-2.457,1.409-4.02.308-.931.59-1.787.776-2.287.484-1.335,3.8-4.254,4.175-4.579.287-.447,3.356-5.227,7.046-9.838,3.85-4.786,6.786-8.237,6.812-8.269l.218-.255,6.078,8.152L58.762,290.039a25.675,25.675,0,0,1,0,3.164,6.247,6.247,0,0,1-1.867,3.579l-.383.457a7.689,7.689,0,0,0-.9,1.5c-.388.8-.76,1.563-1.6,1.25a.867.867,0,0,1-.484-.468,3.446,3.446,0,0,1,.128-2.074l-2.521,1.165a14.32,14.32,0,0,0-.67,1.356,4.068,4.068,0,0,1-2.17,1.766Zm20.086-29.153c-.723.883-3.334,3.946-6.573,8-3.834,4.786-7,9.769-7.03,9.822l-.053.059c-1,.862-3.675,3.34-4.052,4.382-.181.5-.463,1.345-.771,2.271-.532,1.553-1.1,3.308-1.409,4.031a3.951,3.951,0,0,0,1.563-1.388,13.352,13.352,0,0,1,.745-1.494l.043-.069,3.84-1.771-.25.617a4.123,4.123,0,0,0-.335,2.26.33.33,0,0,0,.186.191c.33.122.489-.1.925-.989a7.9,7.9,0,0,1,.963-1.6l.383-.463a5.758,5.758,0,0,0,1.744-3.276,26.249,26.249,0,0,0,0-3.244v-.16l.133-.085,15.316-9.934Z" transform="translate(-47.816 -231.128)" fill="#263238"/>
        <path id="Path_71155" data-name="Path 71155" d="M53.731,318.135l-.441-.3,1.494-2.249h.1a7.668,7.668,0,0,0,1.867-.84,4.9,4.9,0,0,0,1.335-1.207l.436.308a5.748,5.748,0,0,1-1.484,1.345,7.975,7.975,0,0,1-1.92.877Z" transform="translate(-50.379 -250.704)" fill="#263238"/>
        <path id="Path_71156" data-name="Path 71156" d="M185.72,250.292l3.941-8.28a33.113,33.113,0,0,1,.947-3.669c.271-.473,1.9-3.052,2.515-3.122s1.223.2,1.292.745a1.542,1.542,0,0,1-.207.952,4.722,4.722,0,0,1,1.563,1.292,4.307,4.307,0,0,1,.814,2.127c.138.532.612.612.069,1.766a4.233,4.233,0,0,1-1.9,1.829,14.71,14.71,0,0,1-1.627.883s-.069,7.812-1.021,10.87a18.071,18.071,0,0,1-1.627,4.074s-1.633-5.568-2.579-6.658S185.72,250.292,185.72,250.292Z" transform="translate(-112.384 -214.029)" fill="#fff"/>
        <path id="Path_71157" data-name="Path 71157" d="M190.107,260.121l-.16-.532c-.452-1.532-1.776-5.7-2.526-6.557-.947-1.064-2.175-2.787-2.191-2.8l-.09-.128,3.994-8.4a29.785,29.785,0,0,1,.973-3.723c0-.027,1.856-3.159,2.712-3.255a1.313,1.313,0,0,1,1.6.978,1.76,1.76,0,0,1-.117.872,4.988,4.988,0,0,1,1.425,1.239,3.973,3.973,0,0,1,.792,1.872,1.389,1.389,0,0,0,.069.335,1.1,1.1,0,0,0,.133.3c.207.383.335.745-.085,1.638a3.834,3.834,0,0,1-1.68,1.739c-.112.069-.218.133-.308.2a13.424,13.424,0,0,1-1.516.835c0,1.175-.144,7.929-1.032,10.779a17.966,17.966,0,0,1-1.665,4.143Zm-4.35-10.1c.3.415,1.282,1.744,2.063,2.659s1.994,4.643,2.452,6.137a25.684,25.684,0,0,0,1.308-3.462c.925-2.983,1.005-10.71,1.005-10.79V244.4l.154-.074a14.962,14.962,0,0,0,1.6-.856c.1-.069.213-.144.34-.218a3.377,3.377,0,0,0,1.478-1.516c.335-.718.234-.9.1-1.154a1.638,1.638,0,0,1-.181-.431c-.032-.117-.053-.234-.08-.362a3.372,3.372,0,0,0-.691-1.649,4.515,4.515,0,0,0-1.462-1.212l-.282-.128.176-.261a1.266,1.266,0,0,0,.16-.766c-.048-.388-.532-.569-1-.532s-1.744,2-2.308,2.989a28.4,28.4,0,0,0-.92,3.59v.058Z" transform="translate(-112.113 -213.797)" fill="#263238"/>
        <path id="Path_71158" data-name="Path 71158" d="M77,303.92s-5.185,13.369-6.073,16.485a96.781,96.781,0,0,0-3.882,17.469,51.016,51.016,0,0,0,.048,9.817,81.587,81.587,0,0,0-3.723,8.594c-1.925,5.185-8.466,30.9-8.466,30.9a3.814,3.814,0,0,0,3.855,1.335l2.659-.447a4.819,4.819,0,0,0,1.925-.149c1.064-.292,3.409-.144,3.558-1.181s-.6-1.335-1.484-2.372a23.98,23.98,0,0,1-2.223-4.3s7.434-12.992,10.1-17.724,6.381-13.619,6.536-14.954,7.562-20.937,7.562-20.937h1.633l11.7,19.581s-.447,7.854.888,12.449,4.435,21.942,4.435,21.942l-.3,3.116a10.017,10.017,0,0,1,.6,1.925V387.1s.441,1.064,3.409,1.064c1.329,0,5.781-.447,6.52-.6s6.381-.3,6.52-1.037.3-1.335-.59-1.633-7.264-3.26-7.264-3.26v-2.659a4.881,4.881,0,0,1-1.484-1.781c-.292-.888.3-24.75,0-28.9s.149-4.148-1.037-7.855-5.882-29.716-5.882-29.716l-2.4-4.132L78.948,301.41Z" transform="translate(-51.133 -245.025)" fill="#263238"/>
        <path id="Path_71159" data-name="Path 71159" d="M57.687,388.6a3.893,3.893,0,0,1-3.228-1.51l-.069-.1.032-.112c.064-.261,6.562-25.792,8.471-30.929a85.9,85.9,0,0,1,3.68-8.556,52.013,52.013,0,0,1-.037-9.8,89.951,89.951,0,0,1,3.489-16.129c.149-.532.287-.973.4-1.383.883-3.09,6.025-16.368,6.078-16.485l.037-.064,2.042-2.659.165.032,25.308,5.212,2.494,4.318c.048.261,4.712,26,5.882,29.647a14.459,14.459,0,0,1,.92,5.164c0,.691.043,1.553.128,2.749.154,2.127.074,9.322,0,16.257-.064,5.951-.133,12.1,0,12.582a4.68,4.68,0,0,0,1.388,1.649l.106.08V381.2c.978.457,6.291,2.92,7.078,3.191,1.064.362.925,1.165.787,1.872v.064c-.117.574-1.314.83-5.318,1.122-.649.048-1.212.085-1.388.122-.787.16-5.254.6-6.573.6-3.052,0-3.6-1.064-3.653-1.2v-1.734a9.168,9.168,0,0,0-.574-1.829l-.027-.059.3-3.143c-.16-.883-3.143-17.437-4.43-21.867s-.952-11.561-.9-12.455L88.621,326.47H87.329c-2.127,5.568-7.355,19.639-7.445,20.692-.149,1.356-3.887,10.285-6.568,15.055-2.5,4.451-9.28,16.326-10.014,17.618a22.276,22.276,0,0,0,2.127,4.105c.234.271.457.495.654.686.569.564,1.016,1.005.888,1.9s-1.452,1.064-2.622,1.223a7.072,7.072,0,0,0-1.122.181,5.244,5.244,0,0,1-2,.16l-2.627.436A5.315,5.315,0,0,1,57.687,388.6Zm-2.717-1.728a3.6,3.6,0,0,0,3.52,1.133l2.707-.452h.048a4.644,4.644,0,0,0,1.808-.144,7.977,7.977,0,0,1,1.212-.191c.925-.112,2.079-.245,2.154-.776.09-.622-.2-.915-.734-1.436-.207-.207-.441-.436-.686-.723a24.433,24.433,0,0,1-2.265-4.371l-.053-.117.069-.112c.074-.133,7.445-13.045,10.072-17.73s6.381-13.529,6.5-14.853,7.264-20.208,7.567-20.995l.069-.17h1.962l11.816,19.783v.08c0,.074-.431,7.86.877,12.359s4.419,21.8,4.451,21.963v.058l-.292,3.084a8.712,8.712,0,0,1,.59,1.968v1.558c.117.16.76.846,3.143.846,1.34,0,5.8-.457,6.467-.59.213-.043.734-.08,1.457-.133,1.25-.09,4.563-.335,4.866-.729v-.032c.154-.776.175-1.064-.431-1.26-.893-.3-7.03-3.148-7.291-3.27l-.154-.074V378.84a4.786,4.786,0,0,1-1.468-1.824c-.149-.452-.106-5.137,0-12.763.074-6.6.16-14.087,0-16.214-.085-1.212-.106-2.074-.128-2.771a13.943,13.943,0,0,0-.893-5.02c-1.165-3.637-5.605-28.078-5.892-29.663l-2.319-3.988L78.8,301.476l-1.813,2.35c-.3.771-5.2,13.433-6.052,16.422l-.4,1.388a89.054,89.054,0,0,0-3.467,16,51.535,51.535,0,0,0,.043,9.758v.08l-.037.074a83.488,83.488,0,0,0-3.691,8.562C61.559,361.036,55.464,384.966,54.97,386.876Z" transform="translate(-50.894 -244.777)" fill="#263238"/>
        <path id="Path_71160" data-name="Path 71160" d="M182.468,263.157s.484-1.6,2.553-.851,5.222,6.685,4.494,9.843-2.659,4.254-4.371,4.132-3.77-2.186-3.286-2.43S182.468,263.157,182.468,263.157Z" transform="translate(-110.542 -226.623)" fill="#fff"/>
        <path id="Path_71161" data-name="Path 71161" d="M185.153,276.333h-.266c-1.563-.112-3.451-1.76-3.59-2.462a.415.415,0,0,1,.149-.436c.266-.606.468-5.823.532-10.5v-.074a1.872,1.872,0,0,1,.9-1.026,2.483,2.483,0,0,1,1.994,0c2.292.808,5.419,6.913,4.669,10.152S186.839,276.333,185.153,276.333Zm-3.324-2.537a4.806,4.806,0,0,0,3.1,1.994c1.516.117,3.393-.867,4.1-3.925s-2.483-8.886-4.329-9.535a2.031,2.031,0,0,0-1.569-.037,1.329,1.329,0,0,0-.628.686C182.388,272.11,182.032,273.525,181.829,273.8ZM181.505,273.386Z" transform="translate(-110.307 -226.398)" fill="#263238"/>
        <path id="Path_71162" data-name="Path 71162" d="M91.827,261.223s-.851,0-2.063-.117-2.92,1.941-3.893,3.159-2.186,1.946-1.335,4.494,3.159,5.85,6.562,6.078a7.381,7.381,0,0,0,5.35-1.6Z" transform="translate(-64.874 -226.152)" fill="#fff"/>
        <path id="Path_71163" data-name="Path 71163" d="M91.5,274.9h-.643c-3.334-.239-5.818-3.313-6.8-6.259a3.61,3.61,0,0,1,.931-4.217c.149-.17.3-.346.447-.532,1.345-1.68,2.893-3.393,4.127-3.26a17.709,17.709,0,0,0,2.037.117h.186l4.749,12.375-.133.122a7.488,7.488,0,0,1-4.9,1.654Zm-2.069-13.757c-1.122,0-2.9,2.218-3.574,3.063a6.716,6.716,0,0,1-.473.532,3.112,3.112,0,0,0-.824,3.723c.67,2.037,2.8,5.658,6.334,5.887a7.371,7.371,0,0,0,5.009-1.393l-4.483-11.7c-.314,0-1.01-.032-1.909-.122Z" transform="translate(-64.644 -225.93)" fill="#263238"/>
        <path id="Path_71164" data-name="Path 71164" d="M110.312,242.889s-1.946-.245-6.078,2.069-13,9.476-13.614,10.694,1.1,6.685,3.281,7.658a5.85,5.85,0,0,0,4.132.239l-4.371,12.885a63.506,63.506,0,0,1,13,1.218,73.207,73.207,0,0,1,16.539,5.589s.612-.122.734-1.7a8.078,8.078,0,0,1,.968-3.281c.367-.729,4.983-16.411,4.983-16.411s9.12,4.015,11.55,4.015,3.281-4.377,2.308-7.658a6.731,6.731,0,0,0-3.037-4.254,16.294,16.294,0,0,1-5.105-2.8c-2.313-1.941-9.115-5.227-9.115-5.227S116.752,241.8,110.312,242.889Z" transform="translate(-67.798 -217.539)" fill="#903bde"/>
        <path id="Path_71165" data-name="Path 71165" d="M122.928,283.28l-.085-.037a72.868,72.868,0,0,0-16.459-5.568,64.486,64.486,0,0,0-12.944-1.212h-.388L97.391,263.7a6.238,6.238,0,0,1-3.829-.394c-1.6-.7-2.659-3.334-2.92-4.127-.468-1.308-.877-3.111-.489-3.887.649-1.3,9.631-8.509,13.72-10.811,3.877-2.17,5.85-2.127,6.2-2.1,6.44-1.064,15.879,2.893,16.278,3.058.292.144,6.876,3.324,9.184,5.27a16.182,16.182,0,0,0,5.009,2.744c.128.053,2.223,1.064,3.217,4.435.734,2.473.441,5.467-.675,6.966a2.334,2.334,0,0,1-1.888,1.032c-2.249,0-9.8-3.228-11.38-3.914-.649,2.207-4.568,15.47-4.914,16.161a7.923,7.923,0,0,0-.947,3.191c-.128,1.7-.8,1.914-.941,1.941Zm-28.674-7.36a71.5,71.5,0,0,1,12.231,1.228,73.634,73.634,0,0,1,16.485,5.557c.117-.1.388-.42.468-1.425a8.216,8.216,0,0,1,1-3.377c.287-.585,3.68-12.013,4.967-16.368l.085-.287.277.122c.09.037,9.088,3.988,11.439,3.988a1.8,1.8,0,0,0,1.462-.819c1.026-1.377,1.282-4.169.59-6.5a6.493,6.493,0,0,0-2.9-4.089,16.325,16.325,0,0,1-5.158-2.818c-2.255-1.9-8.987-5.158-9.04-5.2s-9.71-4.084-16.007-3.015h-.074c-.037,0-1.957-.176-5.919,2.031-4.2,2.351-12.949,9.476-13.5,10.583a6.1,6.1,0,0,0,.532,3.478c.7,1.941,1.707,3.409,2.659,3.818a5.637,5.637,0,0,0,3.93.239l.532-.2-4.435,13.05Z" transform="translate(-67.567 -217.302)" fill="#263238"/>
        <path id="Path_71166" data-name="Path 71166" d="M161.669,276.834l-5.919-1.4.128-.516,3.318.787-2.446-1.771.314-.431Z" transform="translate(-98.352 -231.957)" fill="#263238"/>
        <rect id="Rectangle_24403" data-name="Rectangle 24403" width="2.074" height="0.532" transform="translate(34.09 33.068) rotate(-72.26)" fill="#263238"/>
        <rect id="Rectangle_24404" data-name="Rectangle 24404" width="11.492" height="0.532" transform="translate(29.981 45.918) rotate(-72.26)" fill="#263238"/>
      </g>
      <g id="Group_21972" data-name="Group 21972" transform="translate(98.478 18.193)">
        <path id="Path_71167" data-name="Path 71167" d="M304.792,173.9H233V68.31h71.792Zm-71.26-.532H304.26V68.842H233.532Z" transform="translate(-233 -68.31)" fill="#fff"/>
        <rect id="Rectangle_24405" data-name="Rectangle 24405" width="48.09" height="0.532" transform="translate(10.439 63.171)" fill="#fff"/>
        <rect id="Rectangle_24406" data-name="Rectangle 24406" width="48.09" height="0.532" transform="translate(10.439 68.064)" fill="#fff"/>
        <rect id="Rectangle_24407" data-name="Rectangle 24407" width="42.235" height="0.532" transform="translate(16.294 76.296)" fill="#fff"/>
        <rect id="Rectangle_24408" data-name="Rectangle 24408" width="2.829" height="2.829" transform="translate(11.152 74.754)" fill="#fff"/>
        <rect id="Rectangle_24409" data-name="Rectangle 24409" width="42.235" height="0.532" transform="translate(16.294 82.47)" fill="#fff"/>
        <rect id="Rectangle_24410" data-name="Rectangle 24410" width="2.829" height="2.829" transform="translate(11.152 80.933)" fill="#fff"/>
        <rect id="Rectangle_24411" data-name="Rectangle 24411" width="42.235" height="0.532" transform="translate(16.294 88.644)" fill="#fff"/>
        <rect id="Rectangle_24412" data-name="Rectangle 24412" width="2.829" height="2.829" transform="translate(11.152 87.107)" fill="#fff"/>
        <rect id="Rectangle_24413" data-name="Rectangle 24413" width="42.235" height="0.532" transform="translate(16.294 94.818)" fill="#fff"/>
        <rect id="Rectangle_24414" data-name="Rectangle 24414" width="2.829" height="2.829" transform="translate(11.152 93.281)" fill="#fff"/>
        <rect id="Rectangle_24415" data-name="Rectangle 24415" width="42.235" height="0.532" transform="translate(16.294 53.961)" fill="#fff"/>
        <rect id="Rectangle_24416" data-name="Rectangle 24416" width="2.829" height="2.829" transform="translate(11.152 52.418)" fill="#fff"/>
        <rect id="Rectangle_24417" data-name="Rectangle 24417" width="42.235" height="0.532" transform="translate(16.294 45.452)" fill="#fff"/>
        <rect id="Rectangle_24418" data-name="Rectangle 24418" width="2.829" height="2.829" transform="translate(11.152 43.91)" fill="#fff"/>
        <rect id="Rectangle_24419" data-name="Rectangle 24419" width="42.235" height="0.532" transform="translate(16.294 36.943)" fill="#fff"/>
        <rect id="Rectangle_24420" data-name="Rectangle 24420" width="2.829" height="2.829" transform="translate(11.152 35.401)" fill="#fff"/>
        <rect id="Rectangle_24421" data-name="Rectangle 24421" width="42.235" height="0.532" transform="translate(16.294 28.435)" fill="#fff"/>
        <rect id="Rectangle_24422" data-name="Rectangle 24422" width="2.829" height="2.829" transform="translate(11.152 26.893)" fill="#fff"/>
        <rect id="Rectangle_24423" data-name="Rectangle 24423" width="42.235" height="0.532" transform="translate(16.294 19.926)" fill="#fff"/>
        <rect id="Rectangle_24424" data-name="Rectangle 24424" width="2.829" height="2.829" transform="translate(11.152 18.384)" fill="#fff"/>
      </g>
    </g>
  </g>
</svg>
