<svg id="Group_220635" data-name="Group 220635" xmlns="http://www.w3.org/2000/svg" width="54" height="54" viewBox="0 0 54 54">
  <path id="Path_297901" data-name="Path 297901" d="M0,0H54V54H0Z" fill="none"/>
  <path id="Path_297902" data-name="Path 297902" d="M26.75,15.5v18A6.75,6.75,0,0,1,20,40.25H15.116a6.75,6.75,0,1,1,0-4.5H20a2.25,2.25,0,0,0,2.25-2.25v-18A6.75,6.75,0,0,1,29,8.75h6.75V2L47,11,35.75,20V13.25H29A2.25,2.25,0,0,0,26.75,15.5Zm-18,24.75A2.25,2.25,0,1,0,6.5,38,2.25,2.25,0,0,0,8.75,40.25Z" transform="translate(2.5 2.5)" fill="#e2a126"/>
</svg>
