<svg id="road-map-line" xmlns="http://www.w3.org/2000/svg" width="20" height="20" viewBox="0 0 20 20">
  <path id="Path_66817" data-name="Path 66817" d="M0,0H20V20H0Z" fill="none"/>
  <path id="Path_66818" data-name="Path 66818" d="M3.667,5.286V15.973l4.221-1.808,5,2.5L17,14.9V4.214l1.086-.465a.417.417,0,0,1,.581.383V16l-5.833,2.5-5-2.5L2.581,18.251A.417.417,0,0,1,2,17.868V6Zm10.2,4.25-3.536,3.535L6.8,9.536a5,5,0,1,1,7.072,0Zm-3.536,1.178L12.69,8.357a3.333,3.333,0,1,0-4.713,0Z" transform="translate(-0.333 -0.167)" fill="#363636"/>
</svg>
