<svg xmlns="http://www.w3.org/2000/svg" xmlns:xlink="http://www.w3.org/1999/xlink" width="60" height="60" viewBox="0 0 60 60">
  <defs>
    <linearGradient id="linear-gradient" y1="0.069" x2="0.991" y2="1" gradientUnits="objectBoundingBox">
      <stop offset="0" stop-color="#aa6aff"/>
      <stop offset="0.493" stop-color="#9c55fd"/>
      <stop offset="1" stop-color="#8f3bff"/>
    </linearGradient>
  </defs>
  <g id="Group_220104" data-name="Group 220104" transform="translate(-131 -952)">
    <circle id="Ellipse_74" data-name="Ellipse 74" cx="30" cy="30" r="30" transform="translate(131 952)" fill="url(#linear-gradient)"/>
    <g id="noun-booking-6927370" transform="translate(138.708 960.074)">
      <path id="Path_297196" data-name="Path 297196" d="M20.42,12.253a.366.366,0,0,1,.516-.516l.94.94,2.5-2.5a.374.374,0,1,1,.52.538l-2.759,2.759a.371.371,0,0,1-.519,0ZM17.221,12a5.073,5.073,0,1,1,1.486,3.585A5.065,5.065,0,0,1,17.221,12Zm.731,0a4.34,4.34,0,1,0,4.34-4.338A4.338,4.338,0,0,0,17.953,12Zm19.339,1.888V30.517a2.254,2.254,0,0,1-2.253,2.254H27.883v1.357a1.124,1.124,0,0,0,.211.659l1.174,1.661h1.317a.366.366,0,1,1,0,.731H14a.366.366,0,1,1,0-.731h1.317l1.174-1.661a1.124,1.124,0,0,0,.211-.659V32.771H9.545a2.253,2.253,0,0,1-2.253-2.254V13.885a2.253,2.253,0,0,1,2.253-2.253h6.221a.366.366,0,0,1,0,.731H9.545a1.524,1.524,0,0,0-1.522,1.522V29.391H36.561V13.885a1.524,1.524,0,0,0-1.522-1.522H28.818a.366.366,0,0,1,0-.731h6.221a2.253,2.253,0,0,1,2.253,2.253ZM27.15,34.129V32.772H17.434v1.357a1.883,1.883,0,0,1-.344,1.1l-.878,1.236H28.373l-.878-1.236a1.883,1.883,0,0,1-.344-1.1Zm9.41-3.611v-.4H8.023v.4a1.524,1.524,0,0,0,1.522,1.522H35.039A1.524,1.524,0,0,0,36.561,30.518ZM29.653,23.2h-.925a.366.366,0,1,0,0,.731h.925a1.877,1.877,0,0,0,1.874-1.877V21.03a1.878,1.878,0,0,0-1.874-1.877H14.931a1.878,1.878,0,0,0-1.874,1.877v1.025a1.877,1.877,0,0,0,1.874,1.873h5.853a.366.366,0,1,0,0-.731H14.931a1.141,1.141,0,0,1-1.141-1.141V21.03a1.144,1.144,0,0,1,1.141-1.144H29.653a1.144,1.144,0,0,1,1.141,1.144v1.025a1.141,1.141,0,0,1-1.141,1.131Zm-2.714,1.561-.132.11,1.131,1.35a1.013,1.013,0,0,1-.125,1.435l-.7.589a1.021,1.021,0,0,1-.654.237h-.088a1,1,0,0,1-.691-.365l-1.135-1.346-.132.106a1.018,1.018,0,0,1-1.657-.6l-.571-3.242a1.017,1.017,0,0,1,1.35-1.135l3.1,1.126h0a1.021,1.021,0,0,1,.307,1.737Zm-.926.3a.364.364,0,0,1-.085-.268.368.368,0,0,1,.129-.248l.41-.344a.289.289,0,0,0-.085-.49l-3.1-1.126h0a.293.293,0,0,0-.285.047.289.289,0,0,0-.1.272l.575,3.249h0a.289.289,0,0,0,.184.22.278.278,0,0,0,.285-.052l.41-.344h0a.368.368,0,0,1,.235-.085h.033a.365.365,0,0,1,.248.129l1.368,1.631h0a.285.285,0,0,0,.193.1.288.288,0,0,0,.209-.067l.7-.589a.29.29,0,0,0,.1-.2.286.286,0,0,0-.067-.21Z" fill="#fff" stroke="#fff" stroke-width="1"/>
    </g>
  </g>
</svg>
