<svg id="Group_220421" data-name="Group 220421" xmlns="http://www.w3.org/2000/svg" width="20" height="20" viewBox="0 0 20 20">
  <path id="Path_297788" data-name="Path 297788" d="M0,0H20V20H0Z" fill="none"/>
  <path id="Path_297789" data-name="Path 297789" d="M4.338,7.836a.833.833,0,0,1,.833.833A5.809,5.809,0,0,1,8.78,9.919h1.808a3.741,3.741,0,0,1,2.795,1.25H16a4.167,4.167,0,0,1,3.763,2.376A10.962,10.962,0,0,1,11,17.836a12.045,12.045,0,0,1-5.884-1.382A.832.832,0,0,1,4.338,17h-2.5A.833.833,0,0,1,1,16.169v-7.5a.833.833,0,0,1,.833-.833Zm.834,2.5v4.185l.038.027A9.908,9.908,0,0,0,11,16.169a9.362,9.362,0,0,0,6.529-2.608l.111-.111-.1-.084a2.5,2.5,0,0,0-1.37-.525L16,12.836h-1.76a3.761,3.761,0,0,1,.093.833V14.5h-7.5V12.836H12.5l-.029-.065a2.084,2.084,0,0,0-1.743-1.179l-.137,0H8.147A4.154,4.154,0,0,0,5.172,10.336ZM3.5,9.5H2.672v5.833H3.5Z" transform="translate(-0.167 -0.334)" fill="#363636"/>
  <path id="Path_297792" data-name="Path 297792" d="M2,7.639H6.679v1.04H2ZM2,4H12.4V5.04H2Zm9.709,2.692.6-.2.52.9-.476.419a2.1,2.1,0,0,1,0,.862l.476.419-.52.9-.6-.2a2.078,2.078,0,0,1-.746.431l-.124.622H9.8l-.124-.622a2.078,2.078,0,0,1-.746-.431l-.6.2-.52-.9.476-.419a2.1,2.1,0,0,1,0-.862l-.476-.419.52-.9.6.2a2.078,2.078,0,0,1,.746-.431L9.8,5.639h1.04l.124.622A2.078,2.078,0,0,1,11.709,6.692Zm-1.39,2.587a1.04,1.04,0,1,0-1.04-1.04A1.04,1.04,0,0,0,10.319,9.279Z" transform="translate(5 -2)" fill="#363636"/>
</svg>
