<svg xmlns="http://www.w3.org/2000/svg" width="95" height="85" viewBox="0 0 95 85">
  <g id="Group_220095" data-name="Group 220095" transform="translate(-95 -752)">
    <rect id="Rectangle_85185" data-name="Rectangle 85185" width="95" height="85" rx="8" transform="translate(95 752)" fill="#f5f2ff"/>
    <g id="noun-ship-6986345" transform="translate(110 771)">
      <path id="Path_297198" data-name="Path 297198" d="M19.92,55.374h6.033V38.762a1.193,1.193,0,0,1,1.193-1.189h22.3a1.194,1.194,0,0,1,1.2,1.189l-.008.1.04,5.206H54.9V25.048a1.191,1.191,0,0,1,1.193-1.189h8.937a1.19,1.19,0,0,1,1.189,1.189V44.067h7.6a1.2,1.2,0,0,1,1.193,1.193v5.429h6.741a1.822,1.822,0,0,1,.955.27,1.8,1.8,0,0,1,.672.728,1.779,1.779,0,0,1-.139,1.9L71.106,70.551a1.9,1.9,0,0,1-1.491.768H30.384a1.836,1.836,0,0,1-.772-.171,1.7,1.7,0,0,1-.624-.481L18.524,58.4a1.87,1.87,0,0,1-.27-1.965l.048-.091a1.862,1.862,0,0,1,.628-.684l.107-.064a1.834,1.834,0,0,1,.883-.227Zm39.573,3.583a1.193,1.193,0,0,1,2.386,0,1.086,1.086,0,0,0,1.086,1.09,1.086,1.086,0,0,0,1.09-1.074v-5.9H58.749l-4.971,4.192-.068.064a1.9,1.9,0,0,1-.549.318h0a1.9,1.9,0,0,1-.628.111H21.105L30.63,68.933h38.7l11.35-15.857H66.441v5.9a1.094,1.094,0,0,0,1.082,1.074,1.078,1.078,0,0,0,.772-.322,1.065,1.065,0,0,0,.318-.768,1.193,1.193,0,0,1,2.386,0,3.476,3.476,0,0,1-5.759,2.617,3.47,3.47,0,0,1-5.747-2.617Zm-4.291.907a1.217,1.217,0,1,1-1.217,1.221A1.215,1.215,0,0,1,55.2,59.864Zm-5.632,0a1.217,1.217,0,1,1-1.221,1.221A1.218,1.218,0,0,1,49.569,59.864Zm-5.636,0a1.217,1.217,0,1,1-1.221,1.221A1.221,1.221,0,0,1,43.934,59.864Zm-5.636,0a1.217,1.217,0,1,1-1.221,1.221A1.221,1.221,0,0,1,38.3,59.864Zm-5.636,0a1.217,1.217,0,1,1-1.217,1.221A1.215,1.215,0,0,1,32.662,59.864Zm9.529-17.905a3.642,3.642,0,0,1,2.577,6.216v.008a3.648,3.648,0,0,1-5.154,0l-.072-.08a3.642,3.642,0,0,1,2.649-6.145Zm.891,2.756a1.261,1.261,0,0,0-2.152.887,1.258,1.258,0,0,0,.326.851l.044.044a1.26,1.26,0,0,0,1.782-1.782Zm-9.155-2.756A3.638,3.638,0,0,1,36.5,43.025h0a3.644,3.644,0,0,1,0,5.158l-.076.072a3.643,3.643,0,0,1-5.075-5.226,3.618,3.618,0,0,1,2.573-1.07Zm.891,2.752a1.253,1.253,0,0,0-.891-.366,1.24,1.24,0,0,0-.891.37h0a1.258,1.258,0,0,0,0,1.778,1.24,1.24,0,0,0,.891.37,1.291,1.291,0,0,0,.851-.318l.04-.052a1.24,1.24,0,0,0,.37-.891,1.254,1.254,0,0,0-.37-.891ZM57.281,31.666h6.55V26.242h-6.55Zm6.55,2.386h-6.55V44.067h6.55ZM28.339,55.374h24l5.039-4.248a1.857,1.857,0,0,1,1.181-.437H72.624v-4.24H49.5a1.194,1.194,0,0,1-1.189-1.185l-.036-5.306H28.338Z" transform="translate(-18.087 -23.859)" fill="#7b58eb"/>
    </g>
  </g>
</svg>
