<svg xmlns="http://www.w3.org/2000/svg" xmlns:xlink="http://www.w3.org/1999/xlink" width="60" height="60" viewBox="0 0 60 60">
  <defs>
    <linearGradient id="linear-gradient" y1="0.069" x2="0.991" y2="1" gradientUnits="objectBoundingBox">
      <stop offset="0" stop-color="#aa6aff"/>
      <stop offset="0.493" stop-color="#9c55fd"/>
      <stop offset="1" stop-color="#8f3bff"/>
    </linearGradient>
  </defs>
  <g id="Group_220105" data-name="Group 220105" transform="translate(-131 -952)">
    <circle id="Ellipse_74" data-name="Ellipse 74" cx="30" cy="30" r="30" transform="translate(131 952)" fill="url(#linear-gradient)"/>
    <g id="noun-responsibility-6416677" transform="translate(143.001 963.055)">
      <g id="Path_297197" data-name="Path 297197" fill="#fff">
        <path d="M 9.63227653503418 33.41462707519531 L 5.576306819915771 33.41462707519531 C 5.306306838989258 33.41462707519531 5.086646556854248 33.19496536254883 5.086646556854248 32.92496490478516 L 5.086646556854248 24.25735473632812 C 5.086646556854248 23.98735618591309 5.306306838989258 23.76768493652344 5.576306819915771 23.76768493652344 L 9.63228702545166 23.76768493652344 C 9.902286529541016 23.76768493652344 10.12194633483887 23.98735618591309 10.12194633483887 24.25735473632812 L 10.12194633483887 24.7012996673584 L 14.04968643188477 23.57457542419434 C 14.30979633331299 23.49996566772461 14.62194633483887 23.42369651794434 14.96490669250488 23.42369651794434 C 15.17022705078125 23.42369651794434 15.36506652832031 23.45031547546387 15.560546875 23.50506591796875 L 20.76486587524414 24.96372604370117 C 20.99335670471191 25.02787590026855 21.14272689819336 25.24578475952148 21.12007713317871 25.48189544677734 L 21.07742691040039 25.92884635925293 C 21.01337242126465 26.60199356079102 20.70582389831543 27.17174339294434 20.18519973754883 27.58552551269531 L 22.47176170349121 28.18353652954102 L 30.05529594421387 25.33208465576172 C 30.31956672668457 25.23265647888184 30.59749603271484 25.18223571777344 30.8813362121582 25.18223571777344 C 31.74848747253418 25.18223571777344 32.52228546142578 25.64752578735352 32.85268783569336 26.36763572692871 L 32.93363571166992 26.54352569580078 C 33.14623641967773 27.00722503662109 33.15482711791992 27.52485466003418 32.95787811279297 28.00120544433594 C 32.74260711669922 28.52394485473633 32.29622650146484 28.94488525390625 31.73324584960938 29.15595626831055 L 23.44265747070312 32.26692581176758 C 23.41407585144043 32.27754592895508 23.38396644592285 32.28564453125 23.35285758972168 32.2911262512207 L 18.54217720031738 33.10190582275391 C 18.51508712768555 33.10647583007812 18.48750686645508 33.10879516601562 18.4602165222168 33.10879516601562 C 18.41989707946777 33.10879516601562 18.37973594665527 33.10376739501953 18.34085655212402 33.09385681152344 L 11.39977836608887 31.34598541259766 L 10.12194633483887 31.94519424438477 L 10.12194633483887 32.92496490478516 C 10.12194633483887 33.19496536254883 9.902276992797852 33.41462707519531 9.63227653503418 33.41462707519531 Z M 6.06563663482666 32.43563461303711 L 9.142616271972656 32.43563461303711 L 9.142616271972656 31.6433048248291 L 9.142616271972656 31.62597465515137 L 9.142616271972656 25.36001586914062 L 9.142616271972656 25.34234619140625 L 9.142616271972656 24.74735641479492 L 6.06563663482666 24.74735641479492 L 6.06563663482666 32.43563461303711 Z M 11.35060691833496 30.33931541442871 C 11.39165687561035 30.33931541442871 11.43194675445557 30.34428596496582 11.47034645080566 30.35409545898438 L 18.4809627532959 32.11954116821289 L 23.14311599731445 31.33395957946777 L 31.38967704772949 28.23937606811523 C 31.69908714294434 28.12310600280762 31.94087600708008 27.90035629272461 32.05300521850586 27.62823486328125 C 32.14469528198242 27.40543556213379 32.14155578613281 27.16508483886719 32.04414749145508 26.95148468017578 L 31.96329689025879 26.77580642700195 C 31.79480743408203 26.40852546691895 31.35982704162598 26.16182518005371 30.88084602355957 26.16182518005371 C 30.71475601196289 26.16182518005371 30.55320739746094 26.19091606140137 30.40068626403809 26.24827575683594 L 22.67139625549316 29.15458488464355 C 22.6160774230957 29.17538642883301 22.55805587768555 29.18593597412109 22.49893760681152 29.18593597412109 C 22.45724678039551 29.18593597412109 22.41565704345703 29.18060493469238 22.37531661987305 29.17009544372559 L 18.0782470703125 28.04606628417969 L 16.48296737670898 27.64700508117676 C 16.35619735717773 27.61541557312012 16.249267578125 27.53622627258301 16.18196678161621 27.4240550994873 C 16.11464691162109 27.31186485290527 16.09509658813477 27.18020629882812 16.12690734863281 27.0533447265625 C 16.18131637573242 26.83502578735352 16.37625694274902 26.68245506286621 16.60092735290527 26.68245506286621 C 16.6410961151123 26.68245506286621 16.68138694763184 26.68746566772461 16.72066688537598 26.69736480712891 L 18.31649589538574 27.09665489196777 L 18.31815719604492 27.09707641601562 L 18.32161712646484 27.09803581237793 C 18.44510650634766 27.12881469726562 18.56911659240723 27.14462471008301 18.68869590759277 27.14462471008301 C 18.97493743896484 27.14462471008301 19.24795722961426 27.05424499511719 19.50017738342285 26.87600517272949 C 19.8586368560791 26.62289619445801 20.06155586242676 26.27294540405273 20.10332679748535 25.83583641052246 L 20.10707855224609 25.79641151428223 L 15.29692649841309 24.44830513000488 C 15.18773651123047 24.41774559020996 15.07886695861816 24.40288543701172 14.96413707733154 24.40288543701172 C 14.7890567779541 24.40288543701172 14.59647655487061 24.4367561340332 14.32019710540771 24.5161247253418 L 10.12227630615234 25.72035789489746 L 10.12227630615234 30.86431121826172 L 11.14282703399658 30.38577651977539 C 11.20677661895752 30.35544586181641 11.27876663208008 30.33931541442871 11.35060691833496 30.33931541442871 Z M 21.65286636352539 27.4493350982666 C 21.45002746582031 27.4493350982666 21.26585578918457 27.32172584533691 21.1945858001709 27.13180541992188 C 21.14859580993652 27.00944519042969 21.15298652648926 26.87646484375 21.20696640014648 26.75741577148438 C 21.26097679138184 26.63828468322754 21.35820579528809 26.54735565185547 21.48073577880859 26.50137519836426 L 27.59363746643066 24.20275497436523 C 27.89606666564941 24.08903503417969 28.18005752563477 24.03375625610352 28.46185684204102 24.03375625610352 C 28.86254692077637 24.03375625610352 29.25055694580078 24.14704513549805 29.64806747436523 24.38008499145508 C 29.76091575622559 24.44613647460938 29.84127616882324 24.55230522155762 29.87428665161133 24.67900466918945 C 29.90726661682129 24.80561637878418 29.88893699645996 24.9373950958252 29.82268714904785 25.05004501342773 C 29.73537635803223 25.19922637939453 29.57341575622559 25.29200553894043 29.40011596679688 25.29201507568359 C 29.31337738037109 25.29202651977539 29.22784614562988 25.26868629455566 29.15278625488281 25.22453498840332 C 28.90814590454102 25.08110618591309 28.6877269744873 25.0142765045166 28.45922660827637 25.0142765045166 C 28.29664611816406 25.0142765045166 28.12626647949219 25.04862594604492 27.9383659362793 25.11928558349609 L 21.8250675201416 27.41793632507324 C 21.76995658874512 27.43875503540039 21.71197700500488 27.4493350982666 21.65286636352539 27.4493350982666 Z M 23.71085739135742 24.24769592285156 L 20.87320709228516 24.24769592285156 C 20.64866638183594 24.24769592285156 20.4534969329834 24.09573554992676 20.39858627319336 23.87816619873047 L 19.99455833435059 22.28363227844238 C 19.34499359130859 22.10190200805664 18.71710777282715 21.84156227111816 18.12644004821777 21.50904083251953 L 16.71240615844727 22.35127639770508 C 16.63652610778809 22.39631462097168 16.54998016357422 22.42008590698242 16.46200180053711 22.42008590698242 C 16.46198081970215 22.42008590698242 16.46196746826172 22.42008590698242 16.46194648742676 22.42008590698242 C 16.33098602294922 22.42007637023926 16.20795631408691 22.36917495727539 16.11552619934082 22.2767448425293 L 14.10887622833252 20.27009582519531 C 13.95013618469238 20.11177635192871 13.91944694519043 19.86642646789551 14.03434658050537 19.67353630065918 L 14.87624740600586 18.26017379760742 C 14.54380035400391 17.66961669921875 14.28332710266113 17.04147148132324 14.10134220123291 16.39139366149902 L 12.50735664367676 15.98733520507812 C 12.29043674468994 15.93206596374512 12.13843631744385 15.73706531524658 12.13759708404541 15.5131254196167 L 12.13759708404541 12.6750955581665 C 12.13759708404541 12.45056533813477 12.28954696655273 12.25539588928223 12.50711631774902 12.20047569274902 L 14.10100841522217 11.7964563369751 C 14.28316211700439 11.14609146118164 14.54363250732422 10.51794719696045 14.87590980529785 9.927675247192383 L 14.03399658203125 8.513965606689453 C 13.91942691802979 8.320915222167969 13.95010662078857 8.075515747070312 14.10854625701904 7.917085647583008 L 16.11519622802734 5.910435676574707 C 16.20778656005859 5.817845344543457 16.33079719543457 5.766855716705322 16.46157646179199 5.766855716705322 C 16.54961585998535 5.766855716705322 16.63624572753906 5.790725708007812 16.71208572387695 5.8359055519104 L 18.1260929107666 6.67812967300415 C 18.7152042388916 6.346350193023682 19.34308815002441 6.08600902557373 19.99421310424805 5.90357494354248 L 20.39826583862305 4.309255599975586 C 20.45316696166992 4.091775417327881 20.64834594726562 3.939825534820557 20.87287712097168 3.939825534820557 L 23.71085739135742 3.939825534820557 C 23.93538665771484 3.939825534820557 24.13056755065918 4.091775417327881 24.18548583984375 4.309345722198486 L 24.58952140808105 5.903575897216797 C 25.24007034301758 6.085867404937744 25.86796569824219 6.346197605133057 26.45762634277344 6.67813777923584 L 27.87165641784668 5.8359055519104 C 27.94746589660645 5.790815353393555 28.0340461730957 5.766995429992676 28.12209701538086 5.766995429992676 C 28.25303649902344 5.766995429992676 28.37598609924316 5.817975521087646 28.46829605102539 5.910525798797607 L 30.47485733032227 7.917085647583008 C 30.6335563659668 8.075775146484375 30.66420745849609 8.321225166320801 30.54939651489258 8.513965606689453 L 29.70749473571777 9.927674293518066 C 30.03993225097656 10.51821422576904 30.3003978729248 11.14636039733887 30.48239898681641 11.79645729064941 L 32.07637786865234 12.20050525665283 C 32.29385757446289 12.25539588928223 32.44580841064453 12.45056533813477 32.44580841064453 12.6750955581665 L 32.44580841064453 15.51274585723877 C 32.44580841064453 15.73727512359619 32.29385757446289 15.93245601654053 32.07628631591797 15.98737525939941 L 30.48207473754883 16.39140319824219 C 30.30036163330078 17.04093170166016 30.0400218963623 17.6688175201416 29.70748138427734 18.25951194763184 L 30.54972648620605 19.67354583740234 C 30.66436576843262 19.86629486083984 30.63369750976562 20.11158561706543 30.47518730163574 20.27009582519531 L 28.46853637695312 22.2767448425293 C 28.37631607055664 22.36921501159668 28.25336647033691 22.42019462585449 28.12241744995117 22.42019462585449 C 28.03436660766602 22.42019462585449 27.94778633117676 22.39637565612793 27.87203598022461 22.35132598876953 L 26.45828628540039 21.50937271118164 C 25.86774635314941 21.84181213378906 25.23960113525391 22.10228538513184 24.5894947052002 22.28428840637207 L 24.18544578552246 23.87826538085938 C 24.13056755065918 24.09573554992676 23.93539619445801 24.24769592285156 23.71085739135742 24.24769592285156 Z M 21.25403022766113 23.26836585998535 L 23.3297176361084 23.26836585998535 L 23.71125602722168 21.76345634460449 C 23.75624656677246 21.58687591552734 23.89393615722656 21.45065498352051 24.07063674926758 21.40784645080566 C 24.82319641113281 21.22546577453613 25.54132652282715 20.92765617370605 26.20509719848633 20.52267646789551 C 26.28206634521484 20.47586631774902 26.37023735046387 20.4511661529541 26.46019744873047 20.4511661529541 C 26.5484561920166 20.4511661529541 26.63510704040527 20.47502517700195 26.71075630187988 20.52017593383789 L 28.04547500610352 21.31497764587402 L 29.51308059692383 19.84736251831055 L 28.7179069519043 18.51222610473633 C 28.62463760375977 18.35592651367188 28.62560653686523 18.16228485107422 28.72048759460449 18.00693511962891 C 29.12535667419434 17.34322547912598 29.42305755615234 16.62520599365234 29.60529708862305 15.87286567687988 C 29.64821624755859 15.69571590423584 29.78451728820801 15.55799579620361 29.96100616455078 15.51344585418701 L 31.46647644042969 15.13192176818848 L 31.46647644042969 13.05623435974121 L 29.96156692504883 12.67469596862793 C 29.78499603271484 12.62970542907715 29.64877700805664 12.49200534820557 29.60596656799316 12.31531524658203 C 29.42344665527344 11.56253528594971 29.1256275177002 10.84439563751221 28.72078704833984 10.1808557510376 C 28.62603759765625 10.02504539489746 28.62510681152344 9.83133602142334 28.71828651428223 9.675195693969727 L 29.51308822631836 8.340486526489258 L 28.04548263549805 6.872871875762939 L 26.71034622192383 7.668045520782471 C 26.63438606262207 7.713245391845703 26.54765701293945 7.737135410308838 26.45949745178223 7.737135410308838 C 26.36956596374512 7.737135410308838 26.28146743774414 7.712345600128174 26.20471572875977 7.665465354919434 C 25.54045677185059 7.260395526885986 24.82243728637695 6.962685585021973 24.07065582275391 6.780655384063721 C 23.89349746704102 6.737735748291016 23.75577735900879 6.601435661315918 23.71122741699219 6.424955368041992 L 23.32970237731934 4.919485569000244 L 21.25403022766113 4.919485569000244 L 20.87248611450195 6.425045490264893 C 20.82748603820801 6.601625442504883 20.68979644775391 6.737845420837402 20.51309585571289 6.780655384063721 C 19.76041603088379 6.963235378265381 19.04237747192383 7.260945796966553 18.37895584106445 7.665505409240723 C 18.30226707458496 7.712345600128174 18.2141170501709 7.737135410308838 18.12411689758301 7.737135410308838 C 18.03582572937012 7.737135410308838 17.94910621643066 7.713225364685059 17.87331581115723 7.667995452880859 L 16.5385799407959 6.872870922088623 L 15.07065296173096 8.340490341186523 L 15.86548709869385 9.674945831298828 C 15.95883655548096 9.831356048583984 15.95786666870117 10.02512550354004 15.86291694641113 10.18057537078857 C 15.45818710327148 10.84372520446777 15.16036701202393 11.56186580657959 14.97775650024414 12.31499576568604 C 14.93496704101562 12.49167537689209 14.79874706268311 12.62937545776367 14.62227630615234 12.67433547973633 L 13.1172571182251 13.05590438842773 L 13.1172571182251 15.13160705566406 L 14.62216663360596 15.51314544677734 C 14.79873657226562 15.55813598632812 14.93495655059814 15.69583511352539 14.97776699066162 15.87252521514893 C 15.16028690338135 16.62530517578125 15.45810699462891 17.34344482421875 15.86294651031494 18.00698471069336 C 15.95769691467285 18.16279602050781 15.95862674713135 18.35650634765625 15.86544704437256 18.51264572143555 L 15.07065010070801 19.84735679626465 L 16.53857421875 21.31497383117676 L 17.87372589111328 20.51979637145996 C 17.94943618774414 20.4746150970459 18.03616714477539 20.45070648193359 18.12444686889648 20.45070648193359 C 18.21445655822754 20.45070648193359 18.3026065826416 20.47549629211426 18.37935638427734 20.52237510681152 C 19.04263687133789 20.92718505859375 19.76054573059082 21.22488594055176 20.51308631896973 21.40718650817871 C 20.68979644775391 21.45000648498535 20.8274974822998 21.58622550964355 20.87244606018066 21.7626953125 L 21.25403022766113 23.26836585998535 Z M 4.929646492004395 23.05136489868164 C 4.822456836700439 23.05136489868164 4.720616817474365 23.01731491088867 4.63512659072876 22.95288467407227 C 4.481326580047607 22.83712577819824 4.409476757049561 22.64097595214844 4.452126502990723 22.45321464538574 L 5.008736610412598 20.00552558898926 L 3.05467677116394 18.17775535583496 C 2.913886547088623 18.04617500305176 2.863406658172607 17.8433952331543 2.926096677780151 17.66119575500488 C 2.988756656646729 17.47905540466309 3.153136730194092 17.35002517700195 3.344876766204834 17.33248519897461 L 5.84507942199707 17.1053409576416 L 6.979396820068359 14.68202590942383 C 7.059496879577637 14.51073551177979 7.233746528625488 14.4000358581543 7.423306465148926 14.4000358581543 L 7.430826663970947 14.40009593963623 C 7.62351655960083 14.40302562713623 7.797036647796631 14.51946544647217 7.872896671295166 14.69674587249756 L 8.861266136169434 17.00390434265137 L 11.51659679412842 17.33382606506348 C 11.70775699615479 17.35767555236816 11.86773681640625 17.49200630187988 11.92419624328613 17.67606544494629 C 11.98074626922607 17.86035537719727 11.92349624633789 18.06132507324219 11.7783670425415 18.18805503845215 L 9.889342308044434 19.84115600585938 L 10.39613628387451 22.46842575073242 C 10.43252658843994 22.6574764251709 10.35426712036133 22.85113525390625 10.19678688049316 22.96184539794922 C 10.11379146575928 23.01996421813965 10.01655578613281 23.05063629150391 9.91546630859375 23.05063629150391 C 9.915447235107422 23.05063629150391 9.915434837341309 23.05063629150391 9.915416717529297 23.05063629150391 C 9.827206611633301 23.05063629150391 9.74052619934082 23.02675628662109 9.664746284484863 22.98159599304199 L 7.508407115936279 21.69632720947266 L 5.166336536407471 22.99022483825684 C 5.09412670135498 23.03020477294922 5.012256622314453 23.05136489868164 4.929646492004395 23.05136489868164 Z M 4.521626472473145 18.20845031738281 L 5.883276462554932 19.48167610168457 C 6.00982666015625 19.60029602050781 6.064536571502686 19.77889633178711 6.026156425476074 19.94786643981934 L 5.649619579315186 21.60428428649902 L 7.280946731567383 20.70317649841309 C 7.353336811065674 20.66320610046387 7.435256481170654 20.64207649230957 7.517856597900391 20.64207649230957 C 7.606096744537354 20.64207649230957 7.692776679992676 20.66596603393555 7.768536567687988 20.71116638183594 L 9.227483749389648 21.5811710357666 L 8.87442684173584 19.75099563598633 C 8.841486930847168 19.58087539672852 8.902156829833984 19.40413475036621 9.032746315002441 19.28981590270996 L 10.3111400604248 18.17111968994141 L 8.461297035217285 17.94130516052246 C 8.289506912231445 17.92003631591797 8.140216827392578 17.80771636962891 8.071736335754395 17.64816474914551 L 7.402911186218262 16.08659172058105 L 6.612536430358887 17.77479553222656 C 6.539166450500488 17.93154525756836 6.386246681213379 18.03878593444824 6.213446617126465 18.05464553833008 L 4.521626472473145 18.20845031738281 Z M 22.29186630249023 19.79705619812012 C 19.14705657958984 19.79705619812012 16.58856582641602 17.23856544494629 16.58856582641602 14.0937557220459 C 16.58856582641602 10.94894599914551 19.14705657958984 8.39045524597168 22.29186630249023 8.39045524597168 C 25.43666648864746 8.39045524597168 27.99515724182129 10.94894599914551 27.99515724182129 14.0937557220459 C 27.99515724182129 17.23856544494629 25.43666648864746 19.79705619812012 22.29186630249023 19.79705619812012 Z M 22.29186630249023 9.369785308837891 C 19.68705749511719 9.369785308837891 17.56789588928223 11.48894596099854 17.56789588928223 14.0937557220459 C 17.56789588928223 16.69856643676758 19.68705749511719 18.81772613525391 22.29186630249023 18.81772613525391 C 24.89667701721191 18.81772613525391 27.01583671569824 16.69856643676758 27.01583671569824 14.0937557220459 C 27.01583671569824 11.48894596099854 24.89667701721191 9.369785308837891 22.29186630249023 9.369785308837891 Z M 21.77920722961426 16.25240516662598 C 21.65139579772949 16.25240516662598 21.53033638000488 16.20333480834961 21.43831634521484 16.1142463684082 L 19.60156631469727 14.3311653137207 C 19.40798759460449 14.14301586151123 19.40330696105957 13.83244514465332 19.59109687805176 13.6388053894043 C 19.68425750732422 13.54295539855957 19.8090763092041 13.49021530151367 19.94266700744629 13.49021530151367 C 20.07062721252441 13.49021530151367 20.1916675567627 13.53925514221191 20.28349685668945 13.6282958984375 L 21.7468433380127 15.04855918884277 L 24.26925659179688 12.10568523406982 C 24.36240577697754 11.99701595306396 24.49798583984375 11.93469524383545 24.64123725891113 11.93469524383545 C 24.75789642333984 11.93469524383545 24.87095642089844 11.97653579711914 24.95959663391113 12.05250549316406 C 25.16458702087402 12.22821521759033 25.18843650817871 12.5379056930542 25.01277732849121 12.74284553527832 L 22.15112686157227 16.08148574829102 C 22.06362724304199 16.18356513977051 21.93632698059082 16.24570465087891 21.80185699462891 16.25196647644043 C 21.79486656188965 16.25235557556152 21.78703689575195 16.25240516662598 21.77920722961426 16.25240516662598 Z M 4.929976463317871 12.49576568603516 C 4.822786808013916 12.49576568603516 4.72093677520752 12.46171569824219 4.635456562042236 12.39729595184326 C 4.481666564941406 12.28152561187744 4.409816741943359 12.08537578582764 4.452466487884521 11.89761543273926 L 5.009073734283447 9.449939727783203 L 3.05467677116394 7.622165679931641 C 2.913956642150879 7.490225791931152 2.863516569137573 7.287505626678467 2.926096677780151 7.105605602264404 C 2.988766670227051 6.923455715179443 3.153146743774414 6.794425487518311 3.344876766204834 6.776885509490967 L 5.84508228302002 6.550074100494385 L 6.979396820068359 4.126765727996826 C 7.059506416320801 3.955445528030396 7.232786655426025 3.844735622406006 7.420836448669434 3.844735622406006 L 7.431446552276611 3.844845533370972 C 7.62351655960083 3.847765684127808 7.797036647796631 3.964205503463745 7.872896671295166 4.141475677490234 L 8.861266136169434 6.448645114898682 L 11.51659679412842 6.778565406799316 C 11.70775699615479 6.80240535736084 11.86773681640625 6.936745643615723 11.92420673370361 7.120805740356445 C 11.98075675964355 7.3050856590271 11.92351627349854 7.506055355072021 11.77838706970215 7.632785797119141 L 9.889351844787598 9.285896301269531 L 10.39613628387451 11.91316604614258 C 10.43252658843994 12.1022253036499 10.35427665710449 12.29588603973389 10.19677639007568 12.40657520294189 C 10.11403656005859 12.46474552154541 10.01682662963867 12.49548530578613 9.915657043457031 12.49548530578613 C 9.827426910400391 12.49548530578613 9.740666389465332 12.47157573699951 9.664756774902344 12.42633533477783 L 7.508729934692383 11.14074039459229 L 5.166666507720947 12.43462562561035 C 5.094476699829102 12.47460556030273 5.012596607208252 12.49576568603516 4.929976463317871 12.49576568603516 Z M 4.521262168884277 7.653819561004639 L 5.882936477661133 8.927085876464844 C 6.009486675262451 9.045695304870605 6.064206600189209 9.224295616149902 6.025826454162598 9.393265724182129 L 5.649286270141602 11.04965877532959 L 7.280936717987061 10.1482458114624 C 7.353336811065674 10.10827541351318 7.435256481170654 10.08714580535889 7.517856597900391 10.08714580535889 C 7.606096744537354 10.08714580535889 7.692776679992676 10.11103534698486 7.768536567687988 10.15623569488525 L 9.227483749389648 11.02624034881592 L 8.87442684173584 9.19605541229248 C 8.841486930847168 9.025945663452148 8.902146339416504 8.84920597076416 9.032746315002441 8.734885215759277 L 10.3111400604248 7.616190433502197 L 8.461297035217285 7.386375427246094 C 8.289506912231445 7.365105628967285 8.140216827392578 7.252785682678223 8.071736335754395 7.093235492706299 L 7.402911186218262 5.531661510467529 L 6.612536430358887 7.219865798950195 C 6.539166450500488 7.376615524291992 6.386246681213379 7.483855724334717 6.213446617126465 7.499715805053711 L 4.521262168884277 7.653819561004639 Z" stroke="none"/>
        <path d="M 9.63227653503418 33.31462478637695 C 9.84727668762207 33.31462478637695 10.02194690704346 33.14028549194336 10.02194690704346 32.92496490478516 L 10.02194690704346 31.88163566589355 L 11.38960647583008 31.24030494689941 L 18.36555671691895 32.99695587158203 C 18.41788864135742 33.01029586791992 18.47223091125488 33.01229858398438 18.52555656433105 33.0032958984375 L 23.33552742004395 32.19263458251953 C 23.36018753051758 32.18829727172852 23.38419723510742 32.18196487426758 23.40752601623535 32.17329406738281 L 31.6981372833252 29.06231498718262 C 32.23513793945312 28.86098480224609 32.66079711914062 28.45998573303223 32.8654670715332 27.9629955291748 C 33.05179595947266 27.5123348236084 33.0434684753418 27.02300643920898 32.84279632568359 26.58533477783203 L 32.76179504394531 26.40933609008789 C 32.33280563354492 25.47434425354004 31.1341438293457 25.03301239013672 30.09048652648926 25.42568588256836 L 22.47719573974609 28.28832626342773 L 19.95621681213379 27.62900543212891 C 19.97321701049805 27.61766624450684 19.9902172088623 27.60600471496582 20.00721740722656 27.59399604797363 C 20.57621574401855 27.1920051574707 20.9118766784668 26.61300468444824 20.97787666320801 25.91934585571289 L 21.02053642272949 25.47234535217285 C 21.03853607177734 25.28467559814453 20.91953659057617 25.11101531982422 20.73787689208984 25.06001472473145 L 15.53357696533203 23.60135650634766 C 14.99324417114258 23.45002555847168 14.51425743103027 23.54535675048828 14.07725620269775 23.67069625854492 L 10.02194690704346 24.83401489257812 L 10.02194690704346 24.25735473632812 C 10.02194690704346 24.04235649108887 9.847616195678711 23.86768531799316 9.63228702545166 23.86768531799316 L 5.576306819915771 23.86768531799316 C 5.361306667327881 23.86768531799316 5.186646461486816 24.04202651977539 5.186646461486816 24.25735473632812 L 5.186646461486816 32.92496490478516 C 5.186646461486816 33.13995742797852 5.360976696014404 33.31462478637695 5.576306819915771 33.31462478637695 L 9.63227653503418 33.31462478637695 M 5.965636730194092 24.6473560333252 L 9.242616653442383 24.6473560333252 L 9.242616653442383 25.34234619140625 C 9.242616653442383 25.34834480285645 9.242616653442383 25.3540153503418 9.242616653442383 25.36001586914062 L 9.242616653442383 31.62597465515137 C 9.242616653442383 31.63163566589355 9.242616653442383 31.63730621337891 9.242616653442383 31.6433048248291 L 9.242616653442383 32.53563690185547 L 5.965636730194092 32.53563690185547 L 5.965636730194092 24.6473560333252 M 11.35060691833496 30.43931579589844 C 11.29393672943115 30.43931579589844 11.23727703094482 30.45165634155273 11.18527698516846 30.47631645202637 L 10.02227687835693 31.02164649963379 L 10.02227687835693 25.64501571655273 L 14.29258632659912 24.42001533508301 C 14.68124675750732 24.30835723876953 14.98925113677979 24.25835800170898 15.3239164352417 24.35201644897461 L 20.21454620361328 25.72267532348633 L 20.20287704467773 25.84534645080566 C 20.15821647644043 26.31267547607422 19.94121742248535 26.6870059967041 19.55788612365723 26.95766639709473 C 19.17488479614258 27.22833633422852 18.7502269744873 27.30799674987793 18.29589653015137 27.19466590881348 C 18.29455757141113 27.1943359375 18.29355621337891 27.19399642944336 18.29222679138184 27.19366645812988 L 16.69623756408691 26.79433631896973 C 16.48723411560059 26.74166679382324 16.27590751647949 26.86900520324707 16.22390747070312 27.07766532897949 C 16.17157745361328 27.28633499145508 16.29857635498047 27.49799537658691 16.50723648071289 27.54999542236328 L 18.10355758666992 27.94932556152344 L 22.40053749084473 29.07332611083984 C 22.47853851318359 29.09365272521973 22.56086730957031 29.08931541442871 22.63619613647461 29.06098556518555 L 30.36548614501953 26.15467643737793 C 31.02314567565918 25.90732765197754 31.79647636413574 26.17233467102051 32.05413818359375 26.73399543762207 L 32.13513565063477 26.90999603271484 C 32.24413681030273 27.14900588989258 32.24780654907227 27.41766548156738 32.14546585083008 27.66633605957031 C 32.02280807495117 27.9639949798584 31.7601375579834 28.20699501037598 31.42480659484863 28.3329963684082 L 23.16919708251953 31.43097496032715 L 18.47689628601074 32.22163391113281 L 11.44560623168945 30.45098495483398 C 11.41427707672119 30.44298553466797 11.38226699829102 30.43931579589844 11.35060691833496 30.43931579589844 M 21.65286636352539 27.34933471679688 C 21.69820594787598 27.34933471679688 21.7448673248291 27.34133529663086 21.78986740112305 27.3243350982666 L 27.90316581726074 25.02568626403809 C 28.37650108337402 24.84768295288086 28.76515579223633 24.88135719299316 29.20348739624023 25.13834571838379 C 29.38881301879883 25.24735260009766 29.62781715393066 25.18501472473145 29.73648643493652 24.99935531616211 C 29.84548759460449 24.81401634216309 29.78314590454102 24.57501602172852 29.59748649597168 24.46635627746582 C 28.9521598815918 24.08802604675293 28.32649993896484 24.03402328491211 27.62883758544922 24.29635620117188 L 21.51586723327637 26.59500503540039 C 21.31420707702637 26.67067527770996 21.2125358581543 26.89533615112305 21.28820610046387 27.09666633605957 C 21.34687614440918 27.25299644470215 21.49520683288574 27.34933471679688 21.65286636352539 27.34933471679688 M 23.71085739135742 24.14769554138184 C 23.88918685913086 24.14769554138184 24.04485702514648 24.02669525146484 24.08851623535156 23.85369491577148 L 24.5068473815918 22.2033748626709 C 25.18950653076172 22.01737594604492 25.84417724609375 21.74570465087891 26.45950698852539 21.39370536804199 L 27.92315673828125 22.2653751373291 C 28.07615661621094 22.35637855529785 28.27182960510254 22.33237457275391 28.3978271484375 22.20603561401367 L 30.40447616577148 20.19938468933105 C 30.53047752380371 20.07338523864746 30.55480575561523 19.87771606445312 30.46381759643555 19.72471618652344 L 29.59181594848633 18.2607250213623 C 29.94381713867188 17.64539527893066 30.21548652648926 16.99073600769043 30.40114593505859 16.30874633789062 L 32.05180740356445 15.89041519165039 C 32.22480773925781 15.84674549102783 32.34580612182617 15.69107532501221 32.34580612182617 15.51274585723877 L 32.34580612182617 12.6750955581665 C 32.34580612182617 12.49676513671875 32.22480773925781 12.34110546112061 32.05180740356445 12.29743576049805 L 30.40148735046387 11.87910556793213 C 30.21548652648926 11.19644546508789 29.94381713867188 10.54177570343018 29.59182739257812 9.926455497741699 L 30.46348571777344 8.462795257568359 C 30.55481719970703 8.309465408325195 30.53047752380371 8.11412525177002 30.40414619445801 7.987795352935791 L 28.39749717712402 5.98114538192749 C 28.27149391174316 5.854814052581787 28.07582855224609 5.830816745758057 27.92282676696777 5.921815395355225 L 26.45883750915527 6.793805599212646 C 25.8435173034668 6.441805362701416 25.18884658813477 6.170475482940674 24.50685691833496 5.984475612640381 L 24.08852577209473 4.333825588226318 C 24.04485702514648 4.160825729370117 23.88918685913086 4.039825439453125 23.71085739135742 4.039825439453125 L 20.87287712097168 4.039825439453125 C 20.69454574584961 4.039825439453125 20.53887748718262 4.160825729370117 20.49520683288574 4.333825588226318 L 20.07687759399414 5.984475612640381 C 19.3948860168457 6.170475482940674 18.73988723754883 6.441805362701416 18.12489700317383 6.793805599212646 L 16.6609058380127 5.921815395355225 C 16.50756645202637 5.830474853515625 16.31223678588867 5.854815483093262 16.1859073638916 5.98114538192749 L 14.17925643920898 7.987795352935791 C 14.05325698852539 8.113795280456543 14.02891635894775 8.309465408325195 14.11991691589355 8.462795257568359 L 14.99157619476318 9.926455497741699 C 14.63958644866943 10.54177570343018 14.36791706085205 11.19677543640137 14.18191623687744 11.87910556793213 L 12.53159618377686 12.29743576049805 C 12.35859680175781 12.34110546112061 12.23759651184082 12.49676513671875 12.23759651184082 12.6750955581665 L 12.23759651184082 15.51274585723877 C 12.23826694488525 15.69107532501221 12.35926628112793 15.84640598297119 12.53192710876465 15.89040565490723 L 14.1822566986084 16.30874633789062 C 14.36824703216553 16.99140548706055 14.63991641998291 17.64606475830078 14.99191665649414 18.26139640808105 L 14.1202564239502 19.72471618652344 C 14.02891635894775 19.87805557250977 14.05325698852539 20.07338523864746 14.17958641052246 20.19938468933105 L 16.18623733520508 22.20603561401367 C 16.31223678588867 22.33203315734863 16.50790596008301 22.35636138916016 16.66123580932617 22.26536560058594 L 18.1252269744873 21.39337539672852 C 18.74055671691895 21.74537467956543 19.39521598815918 22.01703643798828 20.07721710205078 22.20270538330078 L 20.49554634094238 23.85369491577148 C 20.53920745849609 24.02669525146484 20.69487571716309 24.14769554138184 20.87320709228516 24.14769554138184 L 23.71085739135742 24.14769554138184 M 18.12445068359375 20.55070877075195 C 18.05539703369141 20.55070877075195 17.98635101318359 20.56904029846191 17.92489624023438 20.60571479797363 L 16.52289581298828 21.44070625305176 L 14.94491672515869 19.86305618286133 L 15.77957630157471 18.46139526367188 C 15.85357666015625 18.33739471435547 15.85257625579834 18.18239593505859 15.7775764465332 18.0590648651123 C 15.36757659912109 17.38706588745117 15.06557655334473 16.6590747833252 14.88057708740234 15.89607524871826 C 14.84657669067383 15.75574588775635 14.73757648468018 15.64574527740479 14.5975866317749 15.61007595062256 L 13.01725673675537 15.20941543579102 L 13.01725673675537 12.97809600830078 L 14.5975866317749 12.57743549346924 C 14.73758697509766 12.5417652130127 14.84658622741699 12.43176555633545 14.88057708740234 12.29143524169922 C 15.06557655334473 11.52843570709229 15.36724662780762 10.8007755279541 15.7775764465332 10.12844562530518 C 15.85290622711182 10.0051155090332 15.85357666015625 9.850115776062012 15.77957630157471 9.726115226745605 L 14.94491672515869 8.324795722961426 L 16.52290725708008 6.747135639190674 L 17.9245662689209 7.582125663757324 C 18.04855728149414 7.656124591827393 18.20355415344238 7.655466079711914 18.32689666748047 7.58012580871582 C 18.99921607971191 7.170135498046875 19.72688674926758 6.868465423583984 20.48954582214355 6.683465480804443 C 20.6298770904541 6.649465560913086 20.73987579345703 6.540475368499756 20.77554702758789 6.40047550201416 L 21.17620658874512 4.819485664367676 L 23.40752601623535 4.819485664367676 L 23.80818748474121 6.40047550201416 C 23.84352684020996 6.540475368499756 23.953857421875 6.649465560913086 24.09418678283691 6.683465480804443 C 24.85685729980469 6.868135452270508 25.58451652526855 7.170135498046875 26.2568473815918 7.58012580871582 C 26.38017463684082 7.655465602874756 26.53483772277832 7.656125068664551 26.65917587280273 7.582125663757324 L 28.06116676330566 6.747135639190674 L 29.63881683349609 8.324795722961426 L 28.80415725708008 9.726445198059082 C 28.73015594482422 9.850445747375488 28.73115730285645 10.00544548034668 28.80615615844727 10.12877559661865 C 29.21615600585938 10.8007755279541 29.51815605163574 11.52877521514893 29.70315742492676 12.2917652130127 C 29.73715591430664 12.43209552764893 29.84615707397461 12.54209518432617 29.98614692687988 12.57776546478271 L 31.56647682189941 12.97842597961426 L 31.56647682189941 15.20974540710449 L 29.98548698425293 15.61040592193604 C 29.84548759460449 15.64574527740479 29.73648643493652 15.75607585906982 29.70248603820801 15.89640522003174 C 29.51782608032227 16.65873527526855 29.21615600585938 17.38639640808105 28.80582618713379 18.0590648651123 C 28.73049736022949 18.18239593505859 28.72982597351074 18.33705520629883 28.8038272857666 18.46105575561523 L 29.63881683349609 19.86304473876953 L 28.06116676330566 21.44070625305176 L 26.65950584411621 20.60604476928711 C 26.53550910949707 20.53204536437988 26.38050651550293 20.53304481506348 26.25717735290527 20.60804557800293 C 25.58517646789551 21.01804542541504 24.85751724243164 21.32004547119141 24.09418678283691 21.50503540039062 C 23.953857421875 21.53903579711914 23.84385681152344 21.64803504943848 23.80818748474121 21.78803634643555 L 23.40752601623535 23.36836624145508 L 21.17620658874512 23.36836624145508 L 20.77553749084473 21.78737640380859 C 20.73987579345703 21.64737510681152 20.6298770904541 21.53837585449219 20.48954582214355 21.50437545776367 C 19.72721672058105 21.31970596313477 18.99955749511719 21.01804542541504 18.32722663879395 20.60771560668945 C 18.2650203704834 20.5697135925293 18.19473075866699 20.55070877075195 18.12445068359375 20.55070877075195 M 4.929646492004395 22.95136642456055 C 4.994316577911377 22.95136642456055 5.058976650238037 22.93536567687988 5.117976665496826 22.90269470214844 L 7.510296821594238 21.58103561401367 L 9.715946197509766 22.89569473266602 C 9.847946166992188 22.974365234375 10.01361560821533 22.96803665161133 10.1392765045166 22.88003540039062 C 10.26494693756104 22.79169464111328 10.32694625854492 22.63803482055664 10.29794692993164 22.48736572265625 L 9.780276298522949 19.80371475219727 L 11.71259689331055 18.11272621154785 C 11.82826709747314 18.01172637939453 11.87359619140625 17.85206604003906 11.82859706878662 17.70539474487305 C 11.78360652923584 17.55873489379883 11.65659618377686 17.45206642150879 11.5042667388916 17.43306541442871 L 8.791956901550293 17.09606552124023 L 7.780956745147705 14.73608589172363 C 7.720626831054688 14.59508514404297 7.582626819610596 14.50241565704346 7.429296493530273 14.50008583068848 C 7.275993347167969 14.49771118164062 7.134966373443604 14.58541488647461 7.069966793060303 14.72441577911377 L 5.911306858062744 17.19973564147949 L 3.353986740112305 17.43206596374512 C 3.200986623764038 17.44606590270996 3.070656538009644 17.54839515686035 3.020656585693359 17.6937255859375 C 2.970656633377075 17.83905601501465 3.010996580123901 18.00005531311035 3.122986555099487 18.1047248840332 L 5.118976593017578 19.97171592712402 L 4.549646854400635 22.47536468505859 C 4.515646457672119 22.62503623962402 4.572646617889404 22.78069496154785 4.695316791534424 22.87302589416504 C 4.764316558837891 22.92502593994141 4.846646785736084 22.95136642456055 4.929646492004395 22.95136642456055 M 7.406966686248779 15.84207534790039 L 8.163626670837402 17.60872650146484 C 8.218286514282227 17.73606491088867 8.336286544799805 17.82506561279297 8.473627090454102 17.84206581115723 L 10.54494667053223 18.09939575195312 L 9.098616600036621 19.36505508422852 C 8.99428653717041 19.45638465881348 8.946286201477051 19.59605598449707 8.972616195678711 19.7320556640625 L 9.367946624755859 21.7813663482666 L 7.717296600341797 20.79704475402832 C 7.598296642303467 20.72604370117188 7.450626850128174 20.72371292114258 7.329296588897705 20.79070472717285 L 5.502646446228027 21.79970550537109 L 5.92863655090332 19.92571640014648 C 5.959306716918945 19.79071617126465 5.915976524353027 19.64938545227051 5.814976692199707 19.55471611022949 L 4.290316581726074 18.12906646728516 L 6.204306602478027 17.95506477355957 C 6.342306613922119 17.94239616394043 6.463306427001953 17.85772514343262 6.521966457366943 17.73239517211914 L 7.406966686248779 15.84207534790039 M 22.29186630249023 19.69705581665039 C 25.38151741027832 19.69705581665039 27.89515686035156 17.18340492248535 27.89515686035156 14.0937557220459 C 27.89515686035156 11.00410556793213 25.38151741027832 8.490455627441406 22.29186630249023 8.490455627441406 C 19.20221710205078 8.490455627441406 16.68856620788574 11.00410556793213 16.68856620788574 14.0937557220459 C 16.68856620788574 17.18340492248535 19.20221710205078 19.69705581665039 22.29186630249023 19.69705581665039 M 22.29186630249023 9.26978588104248 C 24.95184707641602 9.26978588104248 27.11583709716797 11.43377590179443 27.11583709716797 14.0937557220459 C 27.11583709716797 16.75373649597168 24.95184707641602 18.91772651672363 22.29186630249023 18.91772651672363 C 19.63188743591309 18.91772651672363 17.46789741516113 16.75373649597168 17.46789741516113 14.0937557220459 C 17.46789741516113 11.43377590179443 19.63188743591309 9.26978588104248 22.29186630249023 9.26978588104248 M 21.77920722961426 16.15240478515625 C 21.78520584106445 16.15240478515625 21.79120635986328 16.15240478515625 21.79720687866211 16.15207481384277 C 21.90453720092773 16.14707565307617 22.00519752502441 16.09807586669922 22.07519721984863 16.01640510559082 L 24.93684577941895 12.67776584625244 C 25.07684707641602 12.51443576812744 25.05784606933594 12.26843547821045 24.89451599121094 12.1284351348877 C 24.73117828369141 11.98843669891357 24.48518753051758 12.0074348449707 24.34518623352051 12.17076587677002 L 21.75353622436523 15.19441604614258 L 20.21387672424316 13.70008563995361 C 20.05954360961914 13.55042362213135 19.81287384033203 13.55409622192383 19.66288757324219 13.70842552185059 C 19.51321601867676 13.86275577545166 19.51688575744629 14.10941600799561 19.67121696472168 14.25941562652588 L 21.50787734985352 16.04240608215332 C 21.58086585998535 16.11307525634766 21.67820739746094 16.15240478515625 21.77920722961426 16.15240478515625 M 4.929976463317871 12.39576530456543 C 4.994646549224854 12.39576530456543 5.059316635131836 12.37976551055908 5.118306636810303 12.34709548950195 L 7.510626792907715 11.02544593811035 L 9.715946197509766 12.34043598175049 C 9.847945213317871 12.41909408569336 10.01361560821533 12.41309547424316 10.1392765045166 12.3247652053833 C 10.26494693756104 12.23643589019775 10.32694625854492 12.08276557922363 10.29794692993164 11.93210601806641 L 9.78028678894043 9.248456001281738 L 11.71260643005371 7.557465553283691 C 11.82826709747314 7.456465721130371 11.87360668182373 7.29679536819458 11.82860660552979 7.150135517120361 C 11.78360652923584 7.00346565246582 11.65660667419434 6.896805763244629 11.5042667388916 6.877805709838867 L 8.791956901550293 6.540805339813232 L 7.780956745147705 4.180815696716309 C 7.720626831054688 4.039825439453125 7.582626819610596 3.947155475616455 7.429296493530273 3.944825649261475 C 7.2743239402771 3.941487550735474 7.134966373443604 4.030155658721924 7.069966793060303 4.169155597686768 L 5.911306858062744 6.64447546005249 L 3.353986740112305 6.876465797424316 C 3.200986623764038 6.89046573638916 3.070656538009644 6.992805480957031 3.020656585693359 7.138135433197021 C 2.970656633377075 7.283465385437012 3.010996580123901 7.444135665893555 3.122986555099487 7.549125671386719 L 5.119316577911377 9.416115760803223 L 4.549986839294434 11.91976547241211 C 4.515986442565918 12.06943511962891 4.572976589202881 12.22509574890137 4.6956467628479 12.3174352645874 C 4.764646530151367 12.36943531036377 4.846976757049561 12.39576530456543 4.929976463317871 12.39576530456543 M 7.406966686248779 5.287145614624023 L 8.163626670837402 7.053795337677002 C 8.218286514282227 7.181135654449463 8.336286544799805 7.270135402679443 8.473627090454102 7.287135601043701 L 10.54494667053223 7.5444655418396 L 9.098616600036621 8.810125350952148 C 8.99428653717041 8.901455879211426 8.946286201477051 9.041125297546387 8.972616195678711 9.177115440368652 L 9.367946624755859 11.22643566131592 L 7.717296600341797 10.24211597442627 C 7.598296642303467 10.17111492156982 7.450626850128174 10.16878318786621 7.329296588897705 10.2357759475708 L 5.502306461334229 11.2451057434082 L 5.928306579589844 9.371115684509277 C 5.958976745605469 9.236115455627441 5.915636539459229 9.094785690307617 5.814636707305908 9.000125885009766 L 4.289986610412598 7.574465751647949 L 6.204306602478027 7.400135517120361 C 6.342306613922119 7.387465476989746 6.463306427001953 7.30279541015625 6.521966457366943 7.177465438842773 L 7.406966686248779 5.287145614624023 M 9.63227653503418 33.51462554931641 L 5.576306819915771 33.51462554931641 C 5.251166820526123 33.51462554931641 4.98664665222168 33.25010681152344 4.98664665222168 32.92496490478516 L 4.98664665222168 24.25735473632812 C 4.98664665222168 23.93220520019531 5.251166820526123 23.66768646240234 5.576306819915771 23.66768646240234 L 9.63228702545166 23.66768646240234 C 9.957427024841309 23.66768646240234 10.22194671630859 23.93220520019531 10.22194671630859 24.25735473632812 L 10.22194671630859 24.56857299804688 L 14.02210712432861 23.47844505310059 C 14.28890705108643 23.40192604064941 14.60954666137695 23.32369613647461 14.96490669250488 23.32369613647461 C 15.17947673797607 23.32369613647461 15.3831262588501 23.35152626037598 15.58751678466797 23.40876579284668 L 20.79185676574707 24.86743545532227 C 21.06702613830566 24.9446849822998 21.24689674377441 25.20711517333984 21.21962738037109 25.49143600463867 L 21.17697715759277 25.93834495544434 C 21.11657524108887 26.57312393188477 20.84823226928711 27.11960601806641 20.39544486999512 27.53715515136719 L 22.46630477905273 28.07875442504883 L 30.02009582519531 25.23848533630371 C 30.29562759399414 25.13480567932129 30.58540725708008 25.08223533630371 30.8813362121582 25.08223533630371 C 31.78745651245117 25.08223533630371 32.59692764282227 25.57041549682617 32.94357681274414 26.32593536376953 L 33.02447509765625 26.5017147064209 C 33.24885559082031 26.99109649658203 33.25797653198242 27.53709602355957 33.05029678344727 28.03941535949707 C 32.82453536987305 28.58761596679688 32.35724639892578 29.02879524230957 31.76834678649902 29.24958610534668 L 23.47778701782227 32.36054611206055 C 23.44324684143066 32.37338638305664 23.40724754333496 32.38308715820312 23.37019729614258 32.38960647583008 L 18.55879592895508 33.20051574707031 C 18.47808456420898 33.21413803100586 18.39475631713867 33.21080780029297 18.31612586975098 33.19074630737305 L 11.40993022918701 31.4516716003418 L 10.22194671630859 32.00874710083008 L 10.22194671630859 32.92496490478516 C 10.22194671630859 33.25010681152344 9.957427024841309 33.51462554931641 9.63227653503418 33.51462554931641 Z M 6.165636539459229 32.33563613891602 L 9.042616844177246 32.33563613891602 L 9.042616844177246 24.84735488891602 L 6.165636539459229 24.84735488891602 L 6.165636539459229 32.33563613891602 Z M 11.35060691833496 30.23931503295898 C 11.39999675750732 30.23931503295898 11.44860649108887 30.24533462524414 11.49508666992188 30.25720596313477 L 18.48503303527832 32.0174446105957 L 23.1169605255127 31.23695755004883 L 31.35453605651855 28.1457462310791 C 31.63803672790527 28.03922462463379 31.85894584655762 27.83669471740723 31.96054649353027 27.59013557434082 C 32.04158782958984 27.39323616027832 32.03897476196289 27.1811351776123 31.95316696166992 26.99298477172852 L 31.87245750427246 26.8176155090332 C 31.71990585327148 26.48508644104004 31.32145690917969 26.26182556152344 30.88084602355957 26.26182556152344 C 30.72682571411133 26.26182556152344 30.57712745666504 26.28875541687012 30.43588638305664 26.34187507629395 L 22.70658683776855 29.2481861114502 C 22.59301567077637 29.29089546203613 22.46758270263672 29.29746055603027 22.35011672973633 29.26686477661133 L 18.05294609069824 28.14281463623047 L 16.45869636535645 27.74401473999023 C 16.30607604980469 27.70597648620605 16.17727661132812 27.61060523986816 16.09621620178223 27.47550582885742 C 16.01514625549316 27.34038543701172 15.99159622192383 27.18181610107422 16.02991676330566 27.02901649475098 C 16.09540748596191 26.76620483398438 16.33024597167969 26.58245468139648 16.60092735290527 26.58245468139648 C 16.64935684204102 26.58245468139648 16.69786643981934 26.5884952545166 16.7451171875 26.60039520263672 L 18.34658622741699 27.00117874145508 C 18.74306488037109 27.09931564331055 19.10946083068848 27.02966117858887 19.44245719909668 26.79433631896973 C 19.76406288146973 26.56725883483887 19.95111465454102 26.2564697265625 19.99899864196777 25.86997222900391 L 15.26994705200195 24.54459571838379 C 15.16967678070068 24.51653480529785 15.0696268081665 24.50288581848145 14.96413707733154 24.50288581848145 C 14.79893684387207 24.50288581848145 14.61461639404297 24.53558540344238 14.34780693054199 24.61223602294922 L 10.22227668762207 25.79571342468262 L 10.22227668762207 30.70697212219238 L 11.10036659240723 30.29523468017578 C 11.17723655700684 30.25877571105957 11.26403617858887 30.23931503295898 11.35060691833496 30.23931503295898 Z M 21.65286636352539 27.54933547973633 C 21.40859603881836 27.54933547973633 21.18679618835449 27.39566612243652 21.10095596313477 27.16693496704102 C 21.04558753967285 27.01962471008301 21.05087661743164 26.85949516296387 21.11588668823242 26.71612548828125 C 21.18094635009766 26.57263565063477 21.29804611206055 26.46312522888184 21.44560623168945 26.40775489807129 L 27.55844688415527 24.10915565490723 C 27.87234687805176 23.99112510681152 28.16785621643066 23.93375587463379 28.46185684204102 23.93375587463379 C 28.88080596923828 23.93375587463379 29.28536605834961 24.05153465270996 29.69863700866699 24.29381561279297 C 29.83451652526855 24.37334632873535 29.93130683898926 24.5012149810791 29.97105598449707 24.65379524230957 C 30.01077651977539 24.80629539489746 29.98869705200195 24.96502494812012 29.90888595581055 25.10074615478516 C 29.8038158416748 25.2802562713623 29.60879707336426 25.39199638366699 29.40011596679688 25.39201545715332 C 29.29557609558105 25.39203643798828 29.1925163269043 25.36392593383789 29.10208702087402 25.31073570251465 C 28.87355613708496 25.1767463684082 28.6692066192627 25.1142749786377 28.45922660827637 25.1142749786377 C 28.30886650085449 25.1142749786377 28.1500072479248 25.14653587341309 27.97356605529785 25.2128849029541 L 21.86025619506836 27.51153564453125 C 21.79396629333496 27.53658485412598 21.72409629821777 27.54933547973633 21.65286636352539 27.54933547973633 Z M 23.71085739135742 24.34769630432129 L 20.87320709228516 24.34769630432129 C 20.60279655456543 24.34769630432129 20.36775588989258 24.16467475891113 20.30162620544434 23.90263557434082 L 19.91179847717285 22.36411285400391 C 19.29291915893555 22.1863842010498 18.69386291503906 21.93798828125 18.12805557250977 21.62448310852051 L 16.76358604431152 22.43719482421875 C 16.6721363067627 22.49147605895996 16.56794738769531 22.52008628845215 16.46201705932617 22.52008628845215 C 16.30429649353027 22.52008628845215 16.15613746643066 22.45877647399902 16.0448169708252 22.34745597839355 L 14.03816699981689 20.34080505371094 C 13.84703636169434 20.15017509460449 13.81005668640137 19.85466575622559 13.94842624664307 19.62236595153809 L 14.76080799102783 18.2585620880127 C 14.447340965271 17.69280624389648 14.19884395599365 17.09355163574219 14.02087116241455 16.47416305541992 L 12.48278617858887 16.08427619934082 C 12.22157669067383 16.0177059173584 12.03860664367676 15.78302574157715 12.03759670257568 15.51349544525146 L 12.03759670257568 12.6750955581665 C 12.03759670257568 12.40470600128174 12.22060680389404 12.16966533660889 12.48264694213867 12.103515625 L 14.02054882049561 11.71368312835693 C 14.19867515563965 11.09400272369385 14.44713973999023 10.49480819702148 14.76047611236572 9.929277420043945 L 13.94807624816895 8.565125465393066 C 13.81008625030518 8.332615852355957 13.84705638885498 8.037155151367188 14.03783702850342 7.846375465393066 L 16.04448699951172 5.839725494384766 C 16.15595626831055 5.728245735168457 16.30408668518066 5.666855335235596 16.46157646179199 5.666855335235596 C 16.56763648986816 5.666855335235596 16.67196655273438 5.695605754852295 16.76326751708984 5.749995708465576 L 18.1277027130127 6.562684535980225 C 18.6921558380127 6.249826908111572 19.2911434173584 6.001474380493164 19.91144752502441 5.82312536239624 L 20.30133628845215 4.284695625305176 C 20.3674373626709 4.022835731506348 20.60247611999512 3.839825630187988 20.87287712097168 3.839825630187988 L 23.71085739135742 3.839825630187988 C 23.98125648498535 3.839825630187988 24.2162971496582 4.022835731506348 24.28244590759277 4.284875392913818 L 24.67228698730469 5.823127746582031 C 25.29207801818848 6.001350402832031 25.89107131958008 6.249707221984863 26.45600509643555 6.562699794769287 L 27.82047653198242 5.749985694885254 C 27.91181755065918 5.69566535949707 28.01607704162598 5.666995525360107 28.12209701538086 5.666995525360107 C 28.2797966003418 5.666995525360107 28.42789649963379 5.728405475616455 28.53910636901855 5.839915752410889 L 30.54556655883789 7.846375465393066 C 30.73666572570801 8.037466049194336 30.77356719970703 8.333035469055176 30.63531684875488 8.565145492553711 L 29.82292747497559 9.929276466369629 C 30.13638496398926 10.49501609802246 30.38488388061523 11.0942907333374 30.5628719329834 11.71368789672852 L 32.10094833374023 12.10356521606445 C 32.36279678344727 12.16966533660889 32.54580688476562 12.40470600128174 32.54580688476562 12.6750955581665 L 32.54580688476562 15.51274585723877 C 32.54580688476562 15.78314590454102 32.36279678344727 16.01818466186523 32.10075759887695 16.08433532714844 L 30.56255340576172 16.47416114807129 C 30.38482856750488 17.09305953979492 30.1364688873291 17.69202995300293 29.82292366027832 18.25789642333984 L 30.63564682006836 19.62236595153809 C 30.77371597290039 19.85453605651855 30.73678588867188 20.14992523193359 30.54589653015137 20.34080505371094 L 28.53924751281738 22.34745597839355 C 28.4282169342041 22.45878601074219 28.28011703491211 22.52019500732422 28.12241744995117 22.52019500732422 C 28.01639747619629 22.52019500732422 27.91213607788086 22.49152565002441 27.82092666625977 22.43727493286133 L 26.45668029785156 21.62480926513672 C 25.89093971252441 21.93826866149902 25.29166984558105 22.1867733001709 24.67226409912109 22.36476135253906 L 24.28238677978516 23.90283584594727 C 24.21630668640137 24.16467475891113 23.98126602172852 24.34769630432129 23.71085739135742 24.34769630432129 Z M 21.33184242248535 23.16836547851562 L 23.25190162658691 23.16836547851562 L 23.61431694030762 21.7388858795166 C 23.66850662231445 21.52621650695801 23.83431625366211 21.36221504211426 24.04709625244141 21.31065559387207 C 24.7895565032959 21.1307258605957 25.49809646606445 20.83688545227051 26.15300750732422 20.43731498718262 C 26.33685874938965 20.32552528381348 26.57806015014648 20.32451820373535 26.76200675964355 20.43430519104004 L 28.02978706359863 21.18924331665039 L 29.38735008239746 19.83167266845703 L 28.63199615478516 18.56339645385742 C 28.51967620849609 18.37519645690918 28.52084732055664 18.14193534851074 28.63514709472656 17.95481491088867 C 29.03458595275879 17.30000495910645 29.32830619812012 16.59157562255859 29.50810623168945 15.84932518005371 C 29.5597972869873 15.63599586486816 29.72395706176758 15.4701452255249 29.93653678894043 15.41648578643799 L 31.36647605895996 15.05410957336426 L 31.36647605895996 13.1340503692627 L 29.93699645996094 12.77163600921631 C 29.72432708740234 12.71744537353516 29.56033706665039 12.5516357421875 29.50877571105957 12.3388557434082 C 29.32870674133301 11.59617519378662 29.03485679626465 10.8876256942749 28.63542747497559 10.23294544219971 C 28.52128601074219 10.04525566101074 28.52019691467285 9.812005996704102 28.63241577148438 9.623955726623535 L 29.38735580444336 8.356174468994141 L 28.02979278564453 6.998602390289307 L 26.76151657104492 7.753955364227295 C 26.57672119140625 7.863933563232422 26.33566665649414 7.862630367279053 26.15258598327637 7.750805377960205 C 25.49724578857422 7.351175785064697 24.78882598876953 7.057445526123047 24.04711723327637 6.877845764160156 C 23.83377647399902 6.826155662536621 23.66792678833008 6.661995410919189 23.61426734924316 6.44942569732666 L 23.25189018249512 5.019485473632812 L 21.33184242248535 5.019485473632812 L 20.96941757202148 6.449605464935303 C 20.91522598266602 6.662295341491699 20.74942588806152 6.826285362243652 20.53663635253906 6.877845764160156 C 19.7940559387207 7.057975769042969 19.08560752868652 7.351705551147461 18.43102645874023 7.750875473022461 C 18.24815940856934 7.862614154815674 18.00641059875488 7.863870620727539 17.82206726074219 7.753865718841553 L 16.55425834655762 6.998610496520996 L 15.19640350341797 8.356182098388672 L 15.95140647888184 9.62376594543457 C 16.06378746032715 9.812085151672363 16.0626163482666 10.04546546936035 15.94825649261475 10.23269557952881 C 15.54894638061523 10.88697528839111 15.25510692596436 11.5955057144165 15.07494640350342 12.33856582641602 C 15.02341651916504 12.55130577087402 14.85941696166992 12.71711540222168 14.6469669342041 12.7712459564209 L 13.21725654602051 13.13372039794922 L 13.21725654602051 15.05379009246826 L 14.64673709869385 15.41620540618896 C 14.85940647125244 15.47039604187012 15.02339649200439 15.63620567321777 15.0749568939209 15.84898567199707 C 15.25502681732178 16.59166526794434 15.54886627197266 17.30020523071289 15.94830703735352 17.95489501953125 C 16.06244659423828 18.14258575439453 16.06353759765625 18.37583541870117 15.95131683349609 18.56388473510742 L 15.19639015197754 19.83165550231934 L 16.55426216125488 21.18924522399902 L 17.82255744934082 20.43388557434082 C 18.00665473937988 20.32403182983398 18.24833679199219 20.32516860961914 18.43148612976074 20.43703651428223 C 19.08587646484375 20.83642578125 19.79417610168457 21.13014602661133 20.53663635253906 21.30999565124512 C 20.74942588806152 21.3615550994873 20.91523742675781 21.52555465698242 20.96934700012207 21.73800468444824 L 21.33184242248535 23.16836547851562 Z M 4.929646492004395 23.15136528015137 C 4.800566673278809 23.15136528015137 4.677916526794434 23.1103458404541 4.574946880340576 23.03274536132812 C 4.389776706695557 22.89337539672852 4.30324649810791 22.65716552734375 4.354616641998291 22.43106651306152 L 4.898495197296143 20.03933334350586 L 2.986366748809814 18.25078582763672 C 2.816826581954956 18.09233474731445 2.756036758422852 17.84811592102051 2.831536769866943 17.6286563873291 C 2.906986713409424 17.40936470031738 3.104906558990479 17.25402641296387 3.335766553878784 17.23289489746094 L 5.778847694396973 17.01094436645508 L 6.888826847076416 14.63962554931641 C 6.985276699066162 14.43336582183838 7.195086479187012 14.30003547668457 7.423306465148926 14.30003547668457 L 7.43230676651001 14.30010604858398 C 7.664456844329834 14.303635597229 7.873466491699219 14.44388580322266 7.964836597442627 14.65740585327148 L 8.930580139160156 16.9117546081543 L 11.52892684936523 17.23459625244141 C 11.7591667175293 17.2633056640625 11.95180702209473 17.42508506774902 12.01980686187744 17.6467456817627 C 12.0878963470459 17.86869621276855 12.01894664764404 18.1107349395752 11.84414672851562 18.26337623596191 L 9.998408317565918 19.87859725952148 L 10.4943265914917 22.44948577880859 C 10.53814697265625 22.67715644836426 10.44392681121826 22.91035652160645 10.25429630279541 23.04365539550781 C 10.15426635742188 23.11371612548828 10.03719711303711 23.150634765625 9.91546630859375 23.150634765625 C 9.809206962585449 23.150634765625 9.704806327819824 23.12188529968262 9.613546371459961 23.06749534606934 L 7.50651216506958 21.81161499023438 L 5.214686870574951 23.07775497436523 C 5.127786636352539 23.12587547302246 5.029156684875488 23.15136528015137 4.929646492004395 23.15136528015137 Z M 4.752946853637695 18.28783416748047 L 5.951576709747314 19.40862464904785 C 6.104016780853271 19.55151557922363 6.169886589050293 19.76656532287598 6.123666763305664 19.97002601623535 L 5.796592712402344 21.40885162353516 L 7.232596874237061 20.61563491821289 C 7.412917137145996 20.51608467102051 7.643096923828125 20.51988792419434 7.819756507873535 20.62528610229492 L 9.087021827697754 21.38098335266113 L 8.776236534118652 19.76993560791016 C 8.736577033996582 19.56509590148926 8.809617042541504 19.35223579406738 8.966886520385742 19.21456527709961 L 10.07732772827148 18.24283409118652 L 8.448966979980469 18.04053497314453 C 8.242086410522461 18.01493644714355 8.062296867370605 17.87969589233398 7.979846477508545 17.6876163482666 L 7.39884614944458 16.33110618591309 L 6.703096866607666 17.81719589233398 C 6.614736557006836 18.0059757232666 6.430616855621338 18.1351261138916 6.222596645355225 18.15422630310059 L 4.752946853637695 18.28783416748047 Z M 22.29186630249023 19.89705467224121 C 19.09191703796387 19.89705467224121 16.48856735229492 17.29370498657227 16.48856735229492 14.0937557220459 C 16.48856735229492 10.89380550384521 19.09191703796387 8.29045581817627 22.29186630249023 8.29045581817627 C 25.49180603027344 8.29045581817627 28.09515571594238 10.89380550384521 28.09515571594238 14.0937557220459 C 28.09515571594238 17.29370498657227 25.49180603027344 19.89705467224121 22.29186630249023 19.89705467224121 Z M 22.29186630249023 9.469785690307617 C 19.74219703674316 9.469785690307617 17.66789627075195 11.54408550262451 17.66789627075195 14.0937557220459 C 17.66789627075195 16.64342498779297 19.74219703674316 18.71772575378418 22.29186630249023 18.71772575378418 C 24.84153747558594 18.71772575378418 26.91583633422852 16.64342498779297 26.91583633422852 14.0937557220459 C 26.91583633422852 11.54408550262451 24.84153747558594 9.469785690307617 22.29186630249023 9.469785690307617 Z M 21.77920722961426 16.3524055480957 C 21.62529754638672 16.3524055480957 21.47952651977539 16.2933464050293 21.3687572479248 16.18609619140625 L 19.53190612792969 14.40291595458984 C 19.29878616333008 14.17633533477783 19.29317665100098 13.80236530303955 19.51931571960449 13.56918525695801 C 19.63153648376465 13.45372581481934 19.78183746337891 13.39021587371826 19.94266700744629 13.39021587371826 C 20.09675598144531 13.39021587371826 20.24252700805664 13.44927597045898 20.35310745239258 13.55650520324707 L 21.74014854431152 14.90271282196045 L 24.19333648681641 12.04060554504395 C 24.30550575256348 11.90974521636963 24.4687557220459 11.83469581604004 24.64123725891113 11.83469581604004 C 24.78173637390137 11.83469581604004 24.91790580749512 11.885085105896 25.02466583251953 11.97657585144043 C 25.27152633666992 12.18817520141602 25.30024719238281 12.56111526489258 25.08869743347168 12.8079252243042 L 22.22704696655273 16.14656639099121 C 22.1216869354248 16.26948547363281 21.96840667724609 16.34431648254395 21.80651664733887 16.35185623168945 C 21.79852676391602 16.3523063659668 21.78886604309082 16.3524055480957 21.77920722961426 16.3524055480957 Z M 4.929976463317871 12.59576511383057 C 4.800886631011963 12.59576511383057 4.678236484527588 12.55475521087646 4.575276851654053 12.4771556854248 C 4.390106678009033 12.33777523040771 4.303596496582031 12.10156536102295 4.35495662689209 11.87546539306641 L 4.898832321166992 9.483745574951172 L 2.986376762390137 7.69519567489624 C 2.816866636276245 7.536285400390625 2.756166696548462 7.292155742645264 2.831536769866943 7.073065757751465 C 2.906986713409424 6.853775501251221 3.104906558990479 6.698425769805908 3.335766553878784 6.677295684814453 L 5.778853893280029 6.455671787261963 L 6.888826847076416 4.084365367889404 C 6.985296726226807 3.87807559967041 7.194136619567871 3.744735479354858 7.420836448669434 3.744735479354858 L 7.433546543121338 3.74487566947937 C 7.664446830749512 3.748375654220581 7.873466491699219 3.888615608215332 7.964826583862305 4.10213565826416 L 8.93057918548584 6.356495380401611 L 11.52892684936523 6.679335594177246 C 11.75915622711182 6.708045482635498 11.95180702209473 6.869815349578857 12.01980686187744 7.091475486755371 C 12.08790683746338 7.31341552734375 12.01896667480469 7.555465698242188 11.84415626525879 7.708115577697754 L 9.998417854309082 9.323337554931641 L 10.4943265914917 11.89422512054443 C 10.53815650939941 12.12190532684326 10.44392681121826 12.35509586334229 10.25428676605225 12.48839569091797 C 10.15460681915283 12.55845546722412 10.03750705718994 12.59548568725586 9.915657043457031 12.59548568725586 C 9.809396743774414 12.59548568725586 9.704926490783691 12.56669521331787 9.613546371459961 12.51223564147949 L 7.506823062896729 11.25603485107422 L 5.215016841888428 12.52215576171875 C 5.12813663482666 12.57027530670166 5.029506683349609 12.59576511383057 4.929976463317871 12.59576511383057 Z M 4.752537250518799 7.733173370361328 L 5.951236724853516 8.854045867919922 C 6.103676795959473 8.996915817260742 6.169556617736816 9.211965560913086 6.123336791992188 9.415425300598145 L 5.796262264251709 10.85422039031982 L 7.232586860656738 10.060715675354 C 7.412928104400635 9.961142539978027 7.643096923828125 9.964961051940918 7.819756507873535 10.07035541534424 L 9.08702278137207 10.82605361938477 L 8.776236534118652 9.214995384216309 C 8.736577033996582 9.010165214538574 8.809617042541504 8.797305107116699 8.966886520385742 8.659635543823242 L 10.07732772827148 7.687904834747314 L 8.448966979980469 7.485605716705322 C 8.242086410522461 7.460005760192871 8.062296867370605 7.324765682220459 7.979846477508545 7.132685661315918 L 7.39884614944458 5.776175975799561 L 6.703096866607666 7.262265682220459 C 6.614736557006836 7.451045513153076 6.430616855621338 7.580195426940918 6.222596645355225 7.599295616149902 L 4.752537250518799 7.733173370361328 Z" stroke="none" fill="#fff"/>
      </g>
    </g>
  </g>
</svg>
