<svg xmlns="http://www.w3.org/2000/svg" width="95" height="85" viewBox="0 0 95 85">
  <g id="Group_220094" data-name="Group 220094" transform="translate(-315 -752)">
    <rect id="Rectangle_85186" data-name="Rectangle 85186" width="95" height="85" rx="8" transform="translate(315 752)" fill="#effff0"/>
    <g id="noun-complete-delivery-3927748" transform="translate(330 766)">
      <g id="Group_220092" data-name="Group 220092" transform="translate(0 0)">
        <path id="Path_297199" data-name="Path 297199" d="M15.808,16.138a15.809,15.809,0,0,0-9.036,28.78V57.908q0,.018,0,.035v9.04a1.144,1.144,0,0,0,.719,1.041h0a1.132,1.132,0,0,0,.124.04h0a1.133,1.133,0,0,0,.128.026h0a1.134,1.134,0,0,0,.128.009h5.789a5.644,5.644,0,0,0,11.061,0H49.812a5.641,5.641,0,0,0,11.057,0h3.516A1.13,1.13,0,0,0,65.5,66.984V53.425a1.13,1.13,0,0,0-1.116-1.134h-3.6L58.716,41.9a1.173,1.173,0,0,0-.777-.852,1.043,1.043,0,0,0-.265-.044L57.6,41H45.175V35.349a1.13,1.13,0,0,0-1.134-1.134H31.44A15.725,15.725,0,0,0,15.808,16.138Zm0,2.268A13.561,13.561,0,0,1,27.253,39.218c-.023.036-.043.074-.066.11a13.555,13.555,0,0,1-1.271,1.65c-.051.057-.1.116-.154.172a13.591,13.591,0,0,1-1.482,1.385c-.063.05-.13.1-.194.146a13.556,13.556,0,0,1-1.58,1.055c-.067.038-.131.082-.2.119a13.588,13.588,0,0,1-1.685.759c-.185.07-.371.141-.56.2a13.427,13.427,0,0,1-1.672.437c-.236.045-.475.077-.715.11a13.638,13.638,0,0,1-1.359.115c-.17.006-.336.026-.507.026-.266,0-.524-.025-.785-.04s-.516-.028-.772-.057-.534-.073-.8-.119q-.485-.086-.962-.207c-.222-.056-.448-.106-.666-.172a13.533,13.533,0,0,1-1.416-.525c-.2-.085-.383-.18-.574-.274q-.508-.25-1-.543a13.544,13.544,0,0,1,6.971-25.162ZM23.7,27.442a1.13,1.13,0,0,0-.768.335l-8.3,8.3L8.638,31.1a1.131,1.131,0,1,0-1.452,1.734l6.79,5.656a1.13,1.13,0,0,0,1.518-.084l9.036-9.04a1.129,1.129,0,0,0-.834-1.919Zm7.254,9.04H42.925V56.809H9.039V46.229a15.265,15.265,0,0,0,9.173,1.341c.081-.013.162-.025.243-.04A15.83,15.83,0,0,0,30.95,36.483Zm14.225,6.768h2.25V53.425a1.131,1.131,0,0,0,1.134,1.134H59.867a1.134,1.134,0,0,0,.176-.018h3.208V65.85H60.869a5.641,5.641,0,0,0-11.057,0H45.175v-22.6Zm4.518,0h6.971l1.818,9.04H49.693ZM9.039,59.077H42.907V65.85H24.733a5.644,5.644,0,0,0-11.061,0H9.039Zm10.157,4.5a3.361,3.361,0,0,1,1.9.578,3.4,3.4,0,0,1,1.487,2.824A3.386,3.386,0,0,1,15.808,67c0-.006,0-.012,0-.018a3.486,3.486,0,0,1,.071-.688A3.374,3.374,0,0,1,19.2,63.582Zm36.153,0a3.393,3.393,0,1,1-3.4,3.406s0,0,0,0a3.452,3.452,0,0,1,.066-.688,3.4,3.4,0,0,1,3.336-2.713Z" transform="translate(0.001 -16.138)" fill="#01ac14"/>
      </g>
    </g>
  </g>
</svg>
