<svg id="Group_220392" data-name="Group 220392" xmlns="http://www.w3.org/2000/svg" width="16" height="16" viewBox="0 0 16 16">
  <path id="Path_297784" data-name="Path 297784" d="M0,0H16V16H0Z" fill="none"/>
  <path id="Path_297785" data-name="Path 297785" d="M14.333,15.333H3.667A.667.667,0,0,1,3,14.667v-12A.667.667,0,0,1,3.667,2H14.333A.667.667,0,0,1,15,2.667v12A.667.667,0,0,1,14.333,15.333ZM13.667,14V3.333H4.333V14ZM6.333,5.333h5.333V6.667H6.333ZM6.333,8h5.333V9.333H6.333Zm0,2.667h5.333V12H6.333Z" transform="translate(-1 -0.667)" fill="#fff"/>
</svg>
