<svg id="Group_220088" data-name="Group 220088" xmlns="http://www.w3.org/2000/svg" xmlns:xlink="http://www.w3.org/1999/xlink" width="172" height="143.244" viewBox="0 0 172 143.244">
  <defs>
    <clipPath id="clip-path">
      <rect id="Rectangle_85184" data-name="Rectangle 85184" width="172" height="143.244" fill="none"/>
    </clipPath>
    <clipPath id="clip-path-4">
      <rect id="Rectangle_85182" data-name="Rectangle 85182" width="9.223" height="9.425" fill="none"/>
    </clipPath>
  </defs>
  <g id="Group_220087" data-name="Group 220087" transform="translate(0)" clip-path="url(#clip-path)">
    <g id="Group_220081" data-name="Group 220081">
      <g id="Group_220080" data-name="Group 220080" clip-path="url(#clip-path)">
        <path id="Path_297084" data-name="Path 297084" d="M41.076,110.707c29.639,39.6,82.807,49.471,114.358,29.951s34.2-67.994,12.355-81.971-56.937,9.687-78.647-26.84-110.131-4.06-48.065,78.86" transform="translate(-19.348 -8.802)" fill="#e1f1f1"/>
        <path id="Path_297085" data-name="Path 297085" d="M37.315,165.616s-11.16,4.159-16.919,7.95c-9.491,6.248-10.012,19.748-17.56,16.981s1.709-19.594,7.592-23.624c15.317-10.49,26.887-1.308,26.887-1.308" transform="translate(134.685 -83.93)" fill="#eab868"/>
        <path id="Path_297086" data-name="Path 297086" d="M61.99,170.931q1.04-.712,2.056-1.305c-5.3,9.805-3.867,21.448-8.746,25.181a6.286,6.286,0,0,1-.9-.252c-7.548-2.767,1.71-19.594,7.593-23.624" transform="translate(83.122 -87.937)" fill="#d3963d"/>
        <path id="Path_297087" data-name="Path 297087" d="M18.795,200.378c.022.007.043.013.066.019a.621.621,0,0,0,.743-.468,65.329,65.329,0,0,1,5.872-15.073c5.465-9.913,12.3-15.044,20.326-15.25a.621.621,0,1,0-.032-1.241c-8.382.215-15.78,5.719-21.4,15.916a66.68,66.68,0,0,0-5.982,15.374.621.621,0,0,0,.4.724" transform="translate(116.744 -87.283)" fill="#ffe1b6"/>
        <path id="Path_297088" data-name="Path 297088" d="M14.841,165.834l5.84,2.445q-.579.251-1.178.516l-5.962-2.5,2.318-4.377q.522.017,1.023.057Z" transform="translate(144.798 -83.944)" fill="#ffe1b6"/>
        <path id="Path_297089" data-name="Path 297089" d="M29.193,170.909l3.2-7.334q.583-.173,1.153-.313l-3.1,7.094,6.462,2.225c-.373.2-.739.406-1.092.609Z" transform="translate(121.029 -84.638)" fill="#ffe1b6"/>
        <path id="Path_297090" data-name="Path 297090" d="M52.586,193.59l-2.249-7.743q.329-.525.67-1.033l2.306,7.942,5.769.856q-.267.434-.522.864Z" transform="translate(88.677 -95.811)" fill="#ffe1b6"/>
        <path id="Path_297091" data-name="Path 297091" d="M43.578,171.905c.057-.041.114-.083.17-.121q.386-.264.77-.512l-.124,8.871,5.315,1.83q-.329.378-.641.764L43.453,180.8Z" transform="translate(101.365 -88.79)" fill="#ffe1b6"/>
        <path id="Path_297092" data-name="Path 297092" d="M56.487,201.954q.194-.663.436-1.342l3,6.966,6.034-.8c-.229.36-.457.705-.688,1.031l-5.923.787Z" transform="translate(78.841 -104.001)" fill="#ffe1b6"/>
        <path id="Path_297093" data-name="Path 297093" d="M97.126,135.844s-5.433,10.6-7.127,17.283c-2.791,11.014,5.93,21.332-1.509,24.381s-11.956-15.618-10.33-22.561c4.231-18.076,18.967-19.1,18.967-19.1" transform="translate(37.393 -70.424)" fill="#eab868"/>
        <path id="Path_297094" data-name="Path 297094" d="M96.944,189.848c.021-.009.041-.019.061-.03a.621.621,0,0,0,.233-.847,65.347,65.347,0,0,1-5.832-15.087c-2.652-11.005-1.065-19.406,4.719-24.969a.621.621,0,0,0-.861-.9c-6.043,5.813-7.792,14.866-5.059,26.182a66.663,66.663,0,0,0,5.954,15.384.621.621,0,0,0,.785.263" transform="translate(31.844 -76.646)" fill="#ffe1b6"/>
        <path id="Path_297095" data-name="Path 297095" d="M86,148.926l5.961-2.134q-.259.576-.522,1.176l-6.085,2.179-1.241-4.795q.4-.34.794-.648Z" transform="translate(39.53 -75.017)" fill="#ffe1b6"/>
        <path id="Path_297096" data-name="Path 297096" d="M93.2,164.139l-2.584-7.573c.209-.347.422-.684.641-1.008l2.5,7.326,6.271-2.716c-.139.4-.272.8-.4,1.186Z" transform="translate(28.335 -80.644)" fill="#ffe1b6"/>
        <path id="Path_297097" data-name="Path 297097" d="M99.091,197.74l-6.883-4.2q-.111-.61-.2-1.215l7.06,4.307,4.836-3.259q.1.5.2.99Z" transform="translate(23.592 -99.705)" fill="#ffe1b6"/>
        <path id="Path_297098" data-name="Path 297098" d="M93.716,174.748c.014-.068.028-.138.044-.2.071-.3.146-.6.223-.9l5.892,6.633,5.159-2.234q.011.5.042,1l-5.449,2.36Z" transform="translate(21.792 -90.021)" fill="#ffe1b6"/>
        <path id="Path_297099" data-name="Path 297099" d="M90.183,209.1q-.3-.62-.583-1.285l6.913,3.12,3.914-4.663c.074.42.138.829.187,1.226l-3.841,4.576Z" transform="translate(28.236 -106.937)" fill="#ffe1b6"/>
        <path id="Path_297100" data-name="Path 297100" d="M52.459,121.291s-12.61,10.372-18.384,17.858C24.562,151.484,29.911,169.217,18.892,169s-6.53-26.162-.7-34.011c15.172-20.434,34.269-13.7,34.269-13.7" transform="translate(113.692 -62.328)" fill="#eab868"/>
        <path id="Path_297101" data-name="Path 297101" d="M37.027,183.082c.031,0,.063,0,.093,0a.852.852,0,0,0,.754-.939,89.571,89.571,0,0,1,.884-22.159c2.66-15.289,9.235-24.993,19.542-28.84a.851.851,0,1,0-.6-1.6C46.936,133.564,39.8,144,37.074,159.725a91.44,91.44,0,0,0-.892,22.6.852.852,0,0,0,.845.758" transform="translate(95.878 -67.13)" fill="#ffe1b6"/>
        <path id="Path_297102" data-name="Path 297102" d="M84.591,231.908l-2.87,24.132c-.224,1.885-1.384,3.266-2.743,3.266H66.234c-1.359,0-2.519-1.381-2.743-3.266l-2.871-24.132c-.2-1.672.718-3.194,1.923-3.194H82.669c1.205,0,2.122,1.522,1.923,3.194" transform="translate(58.201 -118.569)" fill="#c54453"/>
        <path id="Path_297103" data-name="Path 297103" d="M60.737,230.737c.222-1.15.968-2.023,1.881-2.023H82.743c.913,0,1.659.874,1.881,2.023Z" transform="translate(58.126 -118.569)" fill="#aa3949"/>
        <path id="Path_297104" data-name="Path 297104" d="M84.862,287.943a2.826,2.826,0,0,1-2.45,2.068H69.667a2.826,2.826,0,0,1-2.45-2.068Z" transform="translate(54.767 -149.275)" fill="#aa3949"/>
        <path id="Path_297105" data-name="Path 297105" d="M97.756,228.714h5.117v11.739a3.308,3.308,0,0,1-3.308,3.308H97.243l-1.41-11.852c-.2-1.672.718-3.194,1.923-3.194" transform="translate(22.988 -118.569)" fill="#aa3949"/>
        <path id="Path_297106" data-name="Path 297106" d="M28.721,128.085l8.662.563q-.639.584-1.3,1.2l-8.842-.575,1.051-6.708q.685-.211,1.353-.383Z" transform="translate(121.498 -63.339)" fill="#ffe1b6"/>
        <path id="Path_297107" data-name="Path 297107" d="M44.19,142.2l.876-10.935q.678-.484,1.355-.92l-.847,10.578h9.369c-.392.429-.776.856-1.143,1.277Z" transform="translate(95.777 -67.574)" fill="#ffe1b6"/>
        <path id="Path_297108" data-name="Path 297108" d="M68.832,182.755l-6.371-9.034q.192-.829.407-1.638L69.4,181.35l7.86-1.465q-.152.682-.291,1.353Z" transform="translate(64.657 -89.211)" fill="#ffe1b6"/>
        <path id="Path_297109" data-name="Path 297109" d="M57.818,150.026c.055-.078.111-.158.167-.233.255-.344.512-.679.77-1.007l3.8,11.555h7.707q-.259.636-.49,1.277H61.628Z" transform="translate(73.897 -77.133)" fill="#ffe1b6"/>
        <path id="Path_297110" data-name="Path 297110" d="M65.859,198.13q-.046-.946-.033-1.935l7,7.691,7.465-3.733c-.136.569-.278,1.118-.432,1.644l-7.326,3.664Z" transform="translate(60.015 -101.711)" fill="#ffe1b6"/>
        <path id="Path_297111" data-name="Path 297111" d="M234.932,82.326a.825.825,0,0,1,.986.463c.723,1.667,1.02,2.839.463,2.9-.7.079-1.259-1.126-1.864-2.3-.238-.463-.131-.9.369-1.048Z" transform="translate(-177.551 -42.662)" fill="#f0c9a5"/>
        <path id="Path_297112" data-name="Path 297112" d="M269.175,46.934s1.465,3.129,3.677,2.627,3.041-3.611,1.991-5.056-4.4-1.292-4.4-1.292Z" transform="translate(-232.925 -22.4)" fill="#d69d6f"/>
        <path id="Path_297113" data-name="Path 297113" d="M48.169,294.745H181.41a1.254,1.254,0,0,0,0-2.508H48.169a1.254,1.254,0,1,0,0,2.508" transform="translate(-33.257 -151.501)" fill="#90b9ba"/>
        <path id="Path_297114" data-name="Path 297114" d="M300.327,273.938c-2.12,1.058-4.551.421-6.538-1.061h-.1a3.777,3.777,0,0,1-.512,1.959c-1.673,1.951-1.281,3.252-2.007,4.914s-.58,2.8.765,2.562,7.076.155,8.412.2.342-3.936.393-5.61a12.424,12.424,0,0,0-.41-2.963" transform="translate(-269.059 -141.464)" fill="#6d74ca"/>
        <path id="Path_297115" data-name="Path 297115" d="M257.357,278.857c-.76-1.645-2.122-1.49-4.7-2.753-.516-.253-.961-1.3-1.343-2.8a5.85,5.85,0,0,1-6.649-.426H244.6a22.128,22.128,0,0,1,.5,3.781c.087,1.673-.822,5.675.511,5.6s9.471-.016,10.821.19,1.691-1.948.929-3.592" transform="translate(-203.548 -141.464)" fill="#6d74ca"/>
        <path id="Path_297116" data-name="Path 297116" d="M291.425,276.126a6.61,6.61,0,0,1,.881-1.291,3.777,3.777,0,0,0,.512-1.959h.1c1.987,1.483,4.418,2.119,6.538,1.062a17.84,17.84,0,0,1,.386,2.187Z" transform="translate(-268.19 -141.464)" fill="#505ab4"/>
        <path id="Path_297117" data-name="Path 297117" d="M255.551,276.126a21.365,21.365,0,0,0-.463-3.249h.067a5.85,5.85,0,0,0,6.648.427c.382,1.5.827,2.548,1.343,2.8l.048.023Z" transform="translate(-214.041 -141.464)" fill="#505ab4"/>
        <path id="Path_297118" data-name="Path 297118" d="M281.319,154.7s.218,23.894.729,31.692.495,26.285.495,26.285-4.8,1.755-7.385.812c0,0-4.908-16.771-4.478-24.073s-1.1-20.607-1.1-20.607-.854,15.309-1.157,18.561-1.939,25.472-1.939,25.472-7.788,1.418-8.982-.628c0,0-.255-19.138-.265-25.813s.8-31.7.8-31.7Z" transform="translate(-234.421 -80.202)" fill="#4b341f"/>
        <path id="Path_297119" data-name="Path 297119" d="M272.752,203.786c-1.138-5.015-2.194-10.81-1.984-14.364.431-7.3-1.1-20.607-1.1-20.607s-.854,15.309-1.158,18.562c-.173,1.853-.778,9.86-1.267,16.41h-9.76c-.072-6-.154-13.643-.16-17.379-.01-6.676.8-31.7.8-31.7h23.284s.218,23.9.729,31.693c.276,4.211.4,11.538.452,17.389Z" transform="translate(-234.509 -80.201)" fill="#3a2616"/>
        <path id="Path_297120" data-name="Path 297120" d="M259.7,158.152c.066-2.12.109-3.447.109-3.447h23.285s.012,1.323.037,3.447Z" transform="translate(-236.19 -80.202)" fill="#3a2413"/>
        <path id="Path_297121" data-name="Path 297121" d="M286.014,75.258l-28.729.571s-.766-1.137.624-4.652,5.588-3.564,7.742-5.943c.776-.857,1.075-1.037,1.26-2.083a10.96,10.96,0,0,0-.016-3.572l5.92-1.559a14.727,14.727,0,0,0,.955,5.209c.457,1.085,1.219,1.18,2.22,1.789,1.486.9,6.39,2.592,8.528,4.016s1.5,6.224,1.5,6.224" transform="translate(-237.905 -30.079)" fill="#f0c9a5"/>
        <path id="Path_297122" data-name="Path 297122" d="M285.786,75.258l-28.729.571s-.766-1.137.624-4.652,5.588-3.564,7.742-5.943c.776-.857,1.075-1.037,1.26-2.083a10.959,10.959,0,0,0-.016-3.572l5.92-1.559a14.726,14.726,0,0,0,.955,5.209c.458,1.085,1.219,1.18,2.22,1.789,1.486.9,6.676,3.213,8.815,4.637s1.21,5.6,1.21,5.6" transform="translate(-237.677 -30.079)" fill="#f0c9a5"/>
        <path id="Path_297123" data-name="Path 297123" d="M289.379,30.245c-1.277-4.5-7.541-5.152-7.541-5.152a9.926,9.926,0,0,0-8.759,2.748c-1.074,1.1-2.354,1.833-2.211,6.65-.576,4.494,2.979,6.579,7.254,8.75,4.977,2.526,8.67-.755,8.393-.808-.6-.114,5.167-4.081,2.865-12.189" transform="translate(-248.34 -12.929)" fill="#4b341f"/>
        <path id="Path_297124" data-name="Path 297124" d="M289.56,63.229c-.558.3.352-.029-.294.1-1.5.312-4.919.552-6.564-.177a10.962,10.962,0,0,0-.016-3.572l5.92-1.559a14.718,14.718,0,0,0,.955,5.21" transform="translate(-253.696 -30.078)" fill="#d69d6f"/>
        <path id="Path_297125" data-name="Path 297125" d="M304.536,45.308s-1.761-2.973-3.914-2.259-2.678,3.888-1.493,5.224,4.5.861,4.5.861Z" transform="translate(-276.293 -22.26)" fill="#f0c9a5"/>
        <path id="Path_297126" data-name="Path 297126" d="M288.7,29.46s1.664,9.853.485,12.634-2.886,4.05-5.043,4.382c-2.818.435-6.829-1.488-8.394-4.267s-1.82-12.016-1.82-12.016,5.383-2.9,7.623-3S288.7,29.46,288.7,29.46" transform="translate(-249.529 -14.095)" fill="#f0c9a5"/>
        <path id="Path_297127" data-name="Path 297127" d="M296.56,54.644a1.107,1.107,0,1,1-.882-1.294,1.108,1.108,0,0,1,.882,1.294" transform="translate(-266.341 -27.647)" fill="#dc8070"/>
        <path id="Path_297128" data-name="Path 297128" d="M279.007,55.331a1.107,1.107,0,1,1-.883-1.294,1.108,1.108,0,0,1,.883,1.294" transform="translate(-240.334 -28.003)" fill="#dc8070"/>
        <path id="Path_297129" data-name="Path 297129" d="M269.175,25.942s3.116,3.535,6.38,4.464a44.625,44.625,0,0,0,8.332,1.2,1.91,1.91,0,0,0,1.974-2.407c-.614-2.178-2.443-5.236-7.752-6.929-7.253-2.315-8.934,3.674-8.934,3.674" transform="translate(-243.563 -11.268)" fill="#4b341f"/>
        <path id="Path_297130" data-name="Path 297130" d="M302.054,30.157a10.392,10.392,0,0,1-.32,4.73c-1.631,4.438-3.2,4.76-3.419,4.909,0,0-3.649-4.715-2.615-8.159,1.08-3.592,6.354-1.48,6.354-1.48" transform="translate(-272.507 -15.314)" fill="#4b341f"/>
        <path id="Path_297131" data-name="Path 297131" d="M284.814,45.854c-.013-.31-.493-.27-.48.039.046,1.16,1.669,4.487-.232,4.721-.307.038-.27.518.04.48,2.533-.313.73-3.784.672-5.241" transform="translate(-250.206 -23.661)" fill="#d69d6f"/>
        <path id="Path_297132" data-name="Path 297132" d="M279.449,47.428c.037.387-.155.724-.426.748s-.521-.269-.557-.657.155-.724.426-.748.522.268.557.657" transform="translate(-241.556 -24.246)" fill="#4b341f"/>
        <path id="Path_297133" data-name="Path 297133" d="M292.909,47.428c.036.388-.155.723-.426.749s-.522-.27-.557-.659.155-.722.425-.747.523.268.558.657" transform="translate(-261.497 -24.246)" fill="#4b341f"/>
        <path id="Path_297134" data-name="Path 297134" d="M290,43.114a2.6,2.6,0,0,1,1.392-.023c.719.114.825-1.011.108-1.124a3.607,3.607,0,0,0-1.957.114c-.679.274-.217,1.3.457,1.033" transform="translate(-259.268 -21.715)" fill="#4b341f"/>
        <path id="Path_297135" data-name="Path 297135" d="M277.527,43.4a2.624,2.624,0,0,1,1.384.159c.7.207.949-.895.252-1.1a3.611,3.611,0,0,0-1.954-.142c-.709.183-.384,1.266.318,1.085" transform="translate(-240.884 -21.895)" fill="#4b341f"/>
        <path id="Path_297136" data-name="Path 297136" d="M307.548,49.645c-.13-.2-.474-.237-.54-.48-.052-.191.144-.407.175-.594a1.236,1.236,0,0,0-.113-.77c-.444-.876-1.627-.5-1.971.237-.163.351.392.578.553.229a.606.606,0,0,1,.652-.367c.419.058.288.595.173.84a.894.894,0,0,0,.034.785c.1.2.588.394.552.583-.073.38.521.458.593.08a.683.683,0,0,0-.109-.544" transform="translate(-282.588 -24.517)" fill="#d69d6f"/>
        <path id="Path_297137" data-name="Path 297137" d="M253.861,80.333c3.814-1,4.642,2.743,5.621,5.219s.267,2.725.755,7.256c.193,1.787,1.466,9.567,1.171,14.535h-4.984a76.035,76.035,0,0,1-2.7-10.007l-3.459-15.159a8.019,8.019,0,0,1,3.6-1.844" transform="translate(-209.974 -41.56)" fill="#f0c9a5"/>
        <path id="Path_297138" data-name="Path 297138" d="M262.633,93.741H255.18l-2.639-11.564a8.02,8.02,0,0,1,3.6-1.844c3.814-1,4.642,2.743,5.621,5.219s.267,2.725.755,7.256c.024.223.065.54.118.933" transform="translate(-212.252 -41.559)" fill="#d69d6f"/>
        <path id="Path_297139" data-name="Path 297139" d="M288.394,60.183a3.572,3.572,0,0,1-5.19-.529" transform="translate(-252.779 -30.926)" fill="none" stroke="#d69d6f" stroke-linecap="round" stroke-width="1"/>
        <path id="Path_297140" data-name="Path 297140" d="M314.166,103.72a16.16,16.16,0,0,0-4.636,2.427,3.754,3.754,0,0,1-1.024-3.49c1.22-3.825,6.245-13.976,6.245-13.976l5.742,7.177-6.442,7.77.115.091" transform="translate(-297.003 -45.974)" fill="#f0c9a5"/>
        <path id="Path_297141" data-name="Path 297141" d="M284.2,76.315c-2.151-.821-5.929-2.181-7.838-3.125-3.293,2.371-8.455,2.952-11.255.243-2.229,2.053-8.267,1.581-9.585,4.92-1.39,3.515-3.544,7.68-3.544,7.68l8.536,4.265,1.08-1.577-.023,3.764-1.106,20.776,24.739-.61L283.4,88.159l4.952-.2s.287-9.95-4.148-11.642" transform="translate(-237.707 -37.944)" fill="#903bde"/>
        <path id="Path_297142" data-name="Path 297142" d="M284.817,74.17l-1.046,1.544-.993-1.464-1.706,1.657,2.7.78,3.622-1.747Z" transform="translate(-250.752 -38.451)" fill="#343d70"/>
        <path id="Path_297143" data-name="Path 297143" d="M304.576,79.857c1.117-2.827,4.163-3.05,7.346-3.766-.969.369,0,0,0,0,4.839,3.98-1.274,14.135-1.274,14.135l-1.08,1.577-8.536-4.265s2.155-4.165,3.544-7.68" transform="translate(-286.756 -39.447)" fill="#903bde"/>
        <path id="Path_297144" data-name="Path 297144" d="M301.084,90.952a4.116,4.116,0,0,1,4.117-4.117h3.1c-.285,4.259-3.112,8.961-3.112,8.961l-1.08,1.577-3.022-1.51Z" transform="translate(-281.295 -45.017)" fill="#903bde"/>
        <path id="Path_297145" data-name="Path 297145" d="M318.413,102.014l-10.07-4.972-1.2,2.077,9.994,4.72Z" transform="translate(-294.329 -50.308)" fill="#a43ffd"/>
        <path id="Path_297146" data-name="Path 297146" d="M251.505,77.778s.861.316,2.432.915c4.435,1.692,4.465,12.662,4.465,12.662h-5.164s-2.587-7.815-1.732-13.577" transform="translate(-207.439 -40.321)" fill="#903bde"/>
        <path id="Path_297147" data-name="Path 297147" d="M101.775,165.042H197.4a3.742,3.742,0,0,0,3.742-3.742V89.054a3.742,3.742,0,0,0-3.742-3.742H101.775a3.742,3.742,0,0,0-3.742,3.742V161.3a3.742,3.742,0,0,0,3.742,3.742" transform="translate(-76.356 -44.227)" fill="#fff"/>
        <path id="Path_297148" data-name="Path 297148" d="M100.286,162.217V90.72A4.1,4.1,0,0,1,101.5,87.8L202.313,165a4.1,4.1,0,0,1-3.032,1.338H104.4a4.117,4.117,0,0,1-4.117-4.117" transform="translate(-78.608 -45.519)" fill="#aec1bf"/>
        <path id="Path_297149" data-name="Path 297149" d="M106.338,164.383h91.231a3.743,3.743,0,0,0,3.743-3.742V92.582a3.743,3.743,0,0,0-3.743-3.742H106.338a3.742,3.742,0,0,0-3.742,3.742v68.059a3.742,3.742,0,0,0,3.742,3.742" transform="translate(-78.721 -46.056)" fill="#e1f1f1"/>
        <path id="Path_297150" data-name="Path 297150" d="M152.608,126.784h11.155a1.49,1.49,0,0,0,1.491-1.49V114.138a1.49,1.49,0,0,0-1.491-1.49H152.608a1.49,1.49,0,0,0-1.49,1.49v11.156a1.49,1.49,0,0,0,1.49,1.49" transform="translate(-66.03 -58.399)" fill="#aec1bf"/>
        <path id="Path_297151" data-name="Path 297151" d="M194.192,126.784h11.155a1.49,1.49,0,0,0,1.491-1.49V114.138a1.49,1.49,0,0,0-1.491-1.49H194.192a1.49,1.49,0,0,0-1.49,1.49v11.156a1.49,1.49,0,0,0,1.49,1.49" transform="translate(-127.64 -58.399)" fill="#aec1bf"/>
        <path id="Path_297152" data-name="Path 297152" d="M235.775,126.784H246.93a1.49,1.49,0,0,0,1.491-1.49V114.138a1.49,1.49,0,0,0-1.491-1.49H235.775a1.49,1.49,0,0,0-1.49,1.49v11.156a1.49,1.49,0,0,0,1.49,1.49" transform="translate(-189.248 -58.399)" fill="#aec1bf"/>
        <path id="Path_297153" data-name="Path 297153" d="M277.359,126.784h11.155a1.49,1.49,0,0,0,1.491-1.49V114.138a1.49,1.49,0,0,0-1.491-1.49H277.359a1.49,1.49,0,0,0-1.49,1.49v11.156a1.49,1.49,0,0,0,1.49,1.49" transform="translate(-250.859 -58.399)" fill="#aec1bf"/>
        <path id="Path_297154" data-name="Path 297154" d="M111.024,163.947h11.155a1.49,1.49,0,0,0,1.491-1.49V151.3a1.49,1.49,0,0,0-1.491-1.49H111.024a1.49,1.49,0,0,0-1.49,1.49v11.156a1.49,1.49,0,0,0,1.49,1.49" transform="translate(-4.42 -77.665)" fill="#aec1bf"/>
        <path id="Path_297155" data-name="Path 297155" d="M152.608,163.947h11.155a1.49,1.49,0,0,0,1.491-1.49V151.3a1.49,1.49,0,0,0-1.491-1.49H152.608a1.49,1.49,0,0,0-1.49,1.49v11.156a1.49,1.49,0,0,0,1.49,1.49" transform="translate(-66.03 -77.665)" fill="#aec1bf"/>
        <path id="Path_297156" data-name="Path 297156" d="M194.192,163.947h11.155a1.49,1.49,0,0,0,1.491-1.49V151.3a1.49,1.49,0,0,0-1.491-1.49H194.192a1.49,1.49,0,0,0-1.49,1.49v11.156a1.49,1.49,0,0,0,1.49,1.49" transform="translate(-127.64 -77.665)" fill="#aec1bf"/>
        <path id="Path_297157" data-name="Path 297157" d="M235.775,163.947H246.93a1.49,1.49,0,0,0,1.491-1.49V151.3a1.49,1.49,0,0,0-1.491-1.49H235.775a1.49,1.49,0,0,0-1.49,1.49v11.156a1.49,1.49,0,0,0,1.49,1.49" transform="translate(-189.248 -77.665)" fill="#aec1bf"/>
        <path id="Path_297158" data-name="Path 297158" d="M277.359,163.947h11.155a1.49,1.49,0,0,0,1.491-1.49V151.3a1.49,1.49,0,0,0-1.491-1.49H277.359a1.49,1.49,0,0,0-1.49,1.49v11.156a1.49,1.49,0,0,0,1.49,1.49" transform="translate(-250.859 -77.665)" fill="#aec1bf"/>
        <path id="Path_297159" data-name="Path 297159" d="M111.024,201.109h11.155a1.49,1.49,0,0,0,1.491-1.49V188.463a1.49,1.49,0,0,0-1.491-1.49H111.024a1.49,1.49,0,0,0-1.49,1.49v11.155a1.49,1.49,0,0,0,1.49,1.49" transform="translate(-4.42 -96.93)" fill="#aec1bf"/>
        <path id="Path_297160" data-name="Path 297160" d="M152.608,201.109h11.155a1.49,1.49,0,0,0,1.491-1.49V188.463a1.49,1.49,0,0,0-1.491-1.49H152.608a1.49,1.49,0,0,0-1.49,1.49v11.155a1.49,1.49,0,0,0,1.49,1.49" transform="translate(-66.03 -96.93)" fill="#aec1bf"/>
        <path id="Path_297161" data-name="Path 297161" d="M194.192,201.109h11.155a1.49,1.49,0,0,0,1.491-1.49V188.463a1.49,1.49,0,0,0-1.491-1.49H194.192a1.49,1.49,0,0,0-1.49,1.49v11.155a1.49,1.49,0,0,0,1.49,1.49" transform="translate(-127.64 -96.93)" fill="#aec1bf"/>
        <path id="Path_297162" data-name="Path 297162" d="M235.775,201.109H246.93a1.49,1.49,0,0,0,1.491-1.49V188.463a1.49,1.49,0,0,0-1.491-1.49H235.775a1.49,1.49,0,0,0-1.49,1.49v11.155a1.49,1.49,0,0,0,1.49,1.49" transform="translate(-189.248 -96.93)" fill="#aec1bf"/>
        <path id="Path_297163" data-name="Path 297163" d="M270.035,31.043a.712.712,0,0,1,.419,1.2c-1.215,1.266-3.426,3.024-6.1,2.669-4.1-.544.135-6.8.135-6.8a10.986,10.986,0,0,0,5.547,2.927" transform="translate(-225.1 -14.576)" fill="#4b341f"/>
        <path id="Path_297164" data-name="Path 297164" d="M278.071,69.669l-3.337,2.168,3.245,2.329,2.383-3.65Z" transform="translate(-240.669 -36.118)" fill="#903bde"/>
        <path id="Path_297165" data-name="Path 297165" d="M296.835,71.917l-1.786,2.249-4.393-2.8,1.511-1.7Z" transform="translate(-264.809 -36.117)" fill="#903bde"/>
        <path id="Path_297166" data-name="Path 297166" d="M174.637,33.921,177,27.908V22.985a3.494,3.494,0,0,1,3.493-3.493H210.7a3.494,3.494,0,0,1,3.493,3.493V29.1A3.494,3.494,0,0,1,210.7,32.59H181.588l-5.927,2.35a.787.787,0,0,1-1.023-1.02" transform="translate(-126.27 -10.105)" fill="#903bde"/>
        <path id="Path_297167" data-name="Path 297167" d="M185.487,29.766a2.576,2.576,0,1,0,2.576-2.576,2.576,2.576,0,0,0-2.576,2.576" transform="translate(-107.967 -14.096)" fill="#fff"/>
        <path id="Path_297168" data-name="Path 297168" d="M207.259,29.766a2.576,2.576,0,1,0,2.576-2.576,2.576,2.576,0,0,0-2.576,2.576" transform="translate(-140.224 -14.096)" fill="#fff"/>
        <path id="Path_297169" data-name="Path 297169" d="M229.032,29.766a2.576,2.576,0,1,0,2.576-2.576,2.576,2.576,0,0,0-2.576,2.576" transform="translate(-172.482 -14.096)" fill="#fff"/>
      </g>
    </g>
    <text id="CALENDAR" transform="translate(26.305 47.835)" fill="#6d74ca" font-size="3" font-family="Montserrat-Black, Montserrat" font-weight="800"><tspan x="0" y="0" letter-spacing="0.09em">C</tspan><tspan y="0" letter-spacing="0.1em">ALEN</tspan><tspan y="0" letter-spacing="0.089em">D</tspan><tspan y="0" letter-spacing="0.099em">A</tspan><tspan y="0">R</tspan></text>
    <g id="Group_220086" data-name="Group 220086">
      <g id="Group_220085" data-name="Group 220085" clip-path="url(#clip-path)">
        <path id="Path_297170" data-name="Path 297170" d="M151.143,125.319H162.3a1.49,1.49,0,0,0,1.49-1.49V112.673a1.49,1.49,0,0,0-1.49-1.49H151.143a1.49,1.49,0,0,0-1.49,1.49v11.156a1.49,1.49,0,0,0,1.49,1.49" transform="translate(-63.859 -57.639)" fill="#6d74ca"/>
        <path id="Path_297171" data-name="Path 297171" d="M192.726,125.319h11.155a1.49,1.49,0,0,0,1.491-1.49V112.673a1.49,1.49,0,0,0-1.491-1.49H192.726a1.49,1.49,0,0,0-1.49,1.49v11.156a1.49,1.49,0,0,0,1.49,1.49" transform="translate(-125.468 -57.639)" fill="#6d74ca"/>
        <path id="Path_297172" data-name="Path 297172" d="M234.31,125.319h11.155a1.49,1.49,0,0,0,1.49-1.49V112.673a1.49,1.49,0,0,0-1.49-1.49H234.31a1.49,1.49,0,0,0-1.49,1.49v11.156a1.49,1.49,0,0,0,1.49,1.49" transform="translate(-187.078 -57.639)" fill="#6d74ca"/>
        <path id="Path_297173" data-name="Path 297173" d="M275.894,125.319h11.155a1.49,1.49,0,0,0,1.49-1.49V112.673a1.49,1.49,0,0,0-1.49-1.49H275.894a1.49,1.49,0,0,0-1.49,1.49v11.156a1.49,1.49,0,0,0,1.49,1.49" transform="translate(-248.688 -57.639)" fill="#6d74ca"/>
        <path id="Path_297174" data-name="Path 297174" d="M109.559,162.482h11.155a1.49,1.49,0,0,0,1.491-1.49V149.836a1.49,1.49,0,0,0-1.491-1.49H109.559a1.49,1.49,0,0,0-1.49,1.49v11.156a1.49,1.49,0,0,0,1.49,1.49" transform="translate(-2.249 -76.905)" fill="#6d74ca"/>
        <path id="Path_297175" data-name="Path 297175" d="M151.143,162.482H162.3a1.49,1.49,0,0,0,1.49-1.49V149.836a1.49,1.49,0,0,0-1.49-1.49H151.143a1.49,1.49,0,0,0-1.49,1.49v11.156a1.49,1.49,0,0,0,1.49,1.49" transform="translate(-63.859 -76.905)" fill="#6d74ca"/>
        <path id="Path_297176" data-name="Path 297176" d="M192.726,162.482h11.155a1.49,1.49,0,0,0,1.491-1.49V149.836a1.49,1.49,0,0,0-1.491-1.49H192.726a1.49,1.49,0,0,0-1.49,1.49v11.156a1.49,1.49,0,0,0,1.49,1.49" transform="translate(-125.468 -76.905)" fill="#6d74ca"/>
        <path id="Path_297177" data-name="Path 297177" d="M234.31,162.482h11.155a1.49,1.49,0,0,0,1.49-1.49V149.836a1.49,1.49,0,0,0-1.49-1.49H234.31a1.49,1.49,0,0,0-1.49,1.49v11.156a1.49,1.49,0,0,0,1.49,1.49" transform="translate(-187.078 -76.905)" fill="#6d74ca"/>
        <path id="Path_297178" data-name="Path 297178" d="M275.894,162.482h11.155a1.49,1.49,0,0,0,1.49-1.49V149.836a1.49,1.49,0,0,0-1.49-1.49H275.894a1.49,1.49,0,0,0-1.49,1.49v11.156a1.49,1.49,0,0,0,1.49,1.49" transform="translate(-248.688 -76.905)" fill="#6d74ca"/>
        <path id="Path_297179" data-name="Path 297179" d="M278.4,157.138a5.465,5.465,0,1,0,5.465-5.465,5.465,5.465,0,0,0-5.465,5.465" transform="translate(-251.402 -78.63)" fill="#fff"/>
        <path id="Path_297180" data-name="Path 297180" d="M283.962,163.643h-.027a.531.531,0,0,1-.384-.2l-2.213-2.73a.529.529,0,1,1,.822-.667L284,162.323l4.527-4.526a.53.53,0,1,1,.749.749l-4.942,4.942a.531.531,0,0,1-.375.155" transform="translate(-252.864 -81.724)" fill="#c54453"/>
        <path id="Path_297181" data-name="Path 297181" d="M10.263,0A8.937,8.937,0,0,0,2.21,12.805L0,17.766l5.559-1.24A8.933,8.933,0,1,0,10.263,0" transform="matrix(-0.07, -0.998, 0.998, -0.07, 1.95, 21.057)" fill="#903bde"/>
        <path id="Path_297182" data-name="Path 297182" d="M328.58,19.165h-.039a.759.759,0,0,1-.549-.279l-3.162-3.9a.756.756,0,1,1,1.175-.953l2.632,3.246,6.465-6.465a.757.757,0,0,1,1.07,1.07l-7.058,7.059a.754.754,0,0,1-.535.222" transform="translate(-319.928 -3.565)" fill="#fff"/>
        <path id="Path_297183" data-name="Path 297183" d="M109.559,199.644h11.155a1.49,1.49,0,0,0,1.491-1.49V187a1.49,1.49,0,0,0-1.491-1.49H109.559a1.49,1.49,0,0,0-1.49,1.49v11.156a1.49,1.49,0,0,0,1.49,1.49" transform="translate(-2.249 -96.171)" fill="#6d74ca"/>
        <path id="Path_297184" data-name="Path 297184" d="M151.143,199.644H162.3a1.49,1.49,0,0,0,1.49-1.49V187a1.49,1.49,0,0,0-1.49-1.49H151.143a1.49,1.49,0,0,0-1.49,1.49v11.156a1.49,1.49,0,0,0,1.49,1.49" transform="translate(-63.859 -96.171)" fill="#6d74ca"/>
        <path id="Path_297185" data-name="Path 297185" d="M192.726,199.644h11.155a1.49,1.49,0,0,0,1.491-1.49V187a1.49,1.49,0,0,0-1.491-1.49H192.726a1.49,1.49,0,0,0-1.49,1.49v11.156a1.49,1.49,0,0,0,1.49,1.49" transform="translate(-125.468 -96.171)" fill="#6d74ca"/>
        <path id="Path_297186" data-name="Path 297186" d="M234.31,199.644h11.155a1.49,1.49,0,0,0,1.49-1.49V187a1.49,1.49,0,0,0-1.49-1.49H234.31a1.49,1.49,0,0,0-1.49,1.49v11.156a1.49,1.49,0,0,0,1.49,1.49" transform="translate(-187.078 -96.171)" fill="#6d74ca"/>
        <path id="Path_297187" data-name="Path 297187" d="M312.757,116.949s4.675,11.062,6.39,13.762-.805,4.084-5.018.28-8.321-12.7-7.435-14.355,4.707-3.111,6.062.312" transform="translate(-295.331 -59.548)" fill="#f0c9a5"/>
        <g id="Group_220084" data-name="Group 220084" transform="translate(21.677 71.787)" style="mix-blend-mode: multiply;isolation: isolate">
          <g id="Group_220083" data-name="Group 220083" transform="translate(0)">
            <g id="Group_220082" data-name="Group 220082" transform="translate(0)" clip-path="url(#clip-path-4)">
              <path id="Path_297188" data-name="Path 297188" d="M292.992,155.821v-5.53l1.775-1.226s1.588.92,2.295,1.388c.253.168,1.426.011,2.542.2.441.076.571,1.068.14,1.189l-.678.19a2.808,2.808,0,0,1-.608.11,13.049,13.049,0,0,0-1.351.223s5.684,5.569,5.06,6.051c-.807.622-4.123-2.994-4.354-3.275.237.292,1.249,1.855.388,2.288-.657.331-2.076-1.683-2.076-1.683s1.415,1.982.162,1.815c-.82-.108-1.818-1.677-1.818-1.677s.5,1.129-.211,1.209c-.555.062-.98-.6-1.266-1.274" transform="translate(-292.992 -149.065)" fill="#e0dddc"/>
            </g>
          </g>
        </g>
        <path id="Path_297189" data-name="Path 297189" d="M293.619,148.2l2.294-1.584s1.588.92,2.294,1.388c.253.168,1.425.012,2.542.2.441.076.571,1.067.14,1.188l-.678.19a2.834,2.834,0,0,1-.608.11,12.948,12.948,0,0,0-1.351.223s5.684,5.569,5.06,6.051c-.807.623-4.123-2.994-4.354-3.275.237.291,1.249,1.855.388,2.288-.657.33-2.076-1.683-2.076-1.683s1.415,1.982.162,1.815c-.82-.108-1.818-1.676-1.818-1.676s.5,1.129-.211,1.209c-1.013.113-1.6-2.184-1.677-2.575s-.534-2.292-.708-2.95.6-.922.6-.922" transform="translate(-272.46 -76.007)" fill="#f0c9a5"/>
        <path id="Path_297190" data-name="Path 297190" d="M108.412,231.891h78.222a.344.344,0,0,0,.343-.343v-.068a.344.344,0,0,0-.343-.343H108.412a.343.343,0,0,0-.343.343v.068a.343.343,0,0,0,.343.343" transform="translate(-67.022 -119.825)" fill="#6d74ca"/>
        <path id="Path_297191" data-name="Path 297191" d="M221.465,81.1c.491.124.592.7.532,1.206-.265,2.2-.432,3.205-1.059,2.928-.791-.35-.782-1.58-.694-3.2.034-.636.377-1.135.994-.979Z" transform="translate(-156.059 -42.006)" fill="#f0c9a5"/>
        <path id="Path_297192" data-name="Path 297192" d="M224.54,81.176a1.008,1.008,0,0,1,.755,1.1c-.265,2.2-.683,4.285-1.309,4.008-.791-.35-.843-2.576-.756-4.191a1.009,1.009,0,0,1,1.254-.927Z" transform="translate(-160.79 -42.059)" fill="#f0c9a5"/>
        <path id="Path_297193" data-name="Path 297193" d="M228.166,81.176a1.008,1.008,0,0,1,.755,1.1c-.265,2.2-.684,4.285-1.309,4.008-.791-.35-.843-2.576-.756-4.191a1.009,1.009,0,0,1,1.254-.927Z" transform="translate(-166.162 -42.059)" fill="#f0c9a5"/>
        <path id="Path_297194" data-name="Path 297194" d="M231.616,81.173a1.008,1.008,0,0,1,.755,1.1c-.265,2.2-.674,3.625-1.3,3.347-.791-.35-.634-1.965-.547-3.58.034-.636.418-1.034,1.035-.878Z" transform="translate(-171.358 -42.056)" fill="#f0c9a5"/>
      </g>
    </g>
  </g>
</svg>
