<svg width="10" height="10" viewBox="0 0 10 10" fill="none" xmlns="http://www.w3.org/2000/svg">
<path d="M5.00001 0C7.76141 0 10 2.23857 10 5C10 7.7614 7.76141 10 5.00001 10C4.08306 10 3.22377 9.7532 2.48494 9.32235L0.0020901 10L0.67807 7.51575C0.24698 6.7768 0 5.91725 0 5C0 2.23857 2.23858 0 5.00001 0ZM3.19567 2.65417C3.13097 2.65871 3.06754 2.67451 3.00979 2.70406C2.96647 2.72622 2.92625 2.75825 2.86305 2.81793C2.80338 2.87427 2.7688 2.92349 2.73236 2.97093C2.54751 3.2116 2.44816 3.50703 2.45 3.81049C2.45101 4.0558 2.51473 4.2942 2.61536 4.5168C2.81942 4.9682 3.15595 5.4454 3.60048 5.88795C3.70726 5.99425 3.81187 6.1017 3.92468 6.201C4.47641 6.6868 5.13391 7.0371 5.84486 7.2241C5.84486 7.2241 6.12486 7.2671 6.12896 7.26735C6.22171 7.27235 6.31431 7.26565 6.40716 7.2609C6.55281 7.2534 6.69501 7.214 6.82371 7.14545C6.90646 7.1014 6.94561 7.0795 7.01506 7.0357C7.01506 7.0357 7.03636 7.0213 7.07746 6.9907C7.14496 6.9404 7.18666 6.905 7.24281 6.8467C7.28421 6.8037 7.31981 6.7529 7.34731 6.69565C7.38641 6.61405 7.42576 6.4583 7.44141 6.32895C7.45336 6.23015 7.44976 6.17615 7.44846 6.1427C7.44631 6.0889 7.40186 6.03355 7.35316 6.01005L7.06241 5.87935C7.06241 5.87935 6.62766 5.69015 6.36176 5.56885C6.33406 5.5562 6.30376 5.55035 6.27331 5.5485C6.20661 5.5444 6.13186 5.5618 6.08431 5.6119C6.08181 5.6109 6.04871 5.6395 5.68696 6.07775C5.66701 6.1016 5.62026 6.15345 5.53941 6.1486C5.52721 6.14775 5.51506 6.146 5.50321 6.1429C5.47046 6.13425 5.43856 6.12285 5.40736 6.10965C5.34551 6.0834 5.32381 6.07345 5.28156 6.05525C4.99291 5.92915 4.72801 5.76045 4.49386 5.554C4.43106 5.4987 4.37266 5.43915 4.31246 5.3808C4.10236 5.17715 3.93036 4.96055 3.8024 4.7469C3.79541 4.73525 3.78465 4.7184 3.77305 4.69955C3.75212 4.6655 3.72902 4.625 3.72178 4.5972C3.7032 4.52365 3.75251 4.46455 3.75251 4.46455C3.75251 4.46455 3.87421 4.3315 3.93075 4.25915C3.98515 4.1895 4.03211 4.1214 4.06201 4.07285C4.12091 3.97817 4.13956 3.88031 4.10861 3.80481C3.96833 3.46282 3.8236 3.12268 3.67444 2.78447C3.645 2.71773 3.55743 2.66923 3.4778 2.66003C3.45083 2.65692 3.42389 2.65379 3.39681 2.65201C3.32978 2.64874 3.26261 2.64946 3.19567 2.65417Z" fill="#05CC4A"/>
</svg>
